<?xml version="1.0" encoding="utf-8"?>
<!-- Generator: Adobe Illustrator 21.0.0, SVG Export Plug-In . SVG Version: 6.00 Build 0)  -->
<svg version="1.1" id="Layer_1" xmlns="http://www.w3.org/2000/svg" xmlns:xlink="http://www.w3.org/1999/xlink" x="0px" y="0px"
	 viewBox="0 0 369 159" style="enable-background:new 0 0 369 159;" xml:space="preserve">
<style type="text/css">
	.st0{fill:#00AAFF;}
	.st1{fill:#818182;}
	.st2{fill:#818180;}
</style>
<g>
	<path class="st0" d="M302.2,51.2c0,0,6.4,11.7,19.5,17c0,0,1.6,0.9,4.6,1.7s4.3,2.7,4.3,2.7s2,1.9,2.2,9s-4,21.9-4,21.9
		s-4.6,13-6.6,15.8s-4.5,8.4-11,12.9s-9.7,4.1-9.7,4.1S302.2,51.2,302.2,51.2z"/>
	<path class="st1" d="M296.6,28h-6.4l2.7-4.5c0,0-0.9-14.5,10.1-18.5V1h64v5.1L356.4,6l-0.1,8c0,0-19.2-10-42.7-0.3L313.4,6h-10.3
		c0,0-9.5,2.8-9,17.4L296.6,28z"/>
	<path class="st0" d="M335.1,13c-14.4,0-34,6-34,27s34,28.8,34,28.8s33.7-7.4,33.7-28.8S349.5,13,335.1,13z M361.7,47.7
		c-8.4,10.7-22.1,11.8-22.1,11.8l-4.5,8l-4.7-8c0,0-15-1.8-22.1-11.6s0-20.3,0-20.3c10.9-14.5,26.9-2.4,26.9-2.4
		c5.7-5.7,20-8.1,26.6,2.8S361.7,47.7,361.7,47.7L361.7,47.7z"/>
	<path class="st0" d="M343.6,44.3c10.5-1,11-7,11-7C344.9,30.7,343.6,44.3,343.6,44.3z"/>
	<path class="st0" d="M316.1,37.4c0,0,0.4,6,11,7C327,44.3,325.8,30.7,316.1,37.4z"/>
	<path class="st1" d="M334,72.4c0,0,7,3.8-2.6,33.2S303,142.8,302,138.9v6.4c0,0,62-15.2,67-58.9V53.8C369,53.8,356.2,69.8,334,72.4
		z"/>
	<path class="st2" d="M47.5,146.1h-5.3c-0.6,0-1.1-0.2-1.5-0.5s-0.7-0.7-0.8-1.2l-4.7-12.1H12.8l-4.7,12.1c-0.1,0.4-0.4,0.8-0.8,1.1
		S6.4,146,5.8,146H0.5l20.1-50h6.9L47.5,146.1z M33.4,127.5l-7.9-20.4c-0.2-0.6-0.5-1.3-0.7-2.1c-0.3-0.8-0.5-1.7-0.7-2.6
		c-0.5,1.9-1,3.5-1.5,4.7l-7.9,20.4H33.4z"/>
	<path class="st2" d="M75.3,117c-0.2,0.3-0.4,0.5-0.6,0.6s-0.4,0.2-0.8,0.2c-0.3,0-0.7-0.1-1.2-0.4c-0.4-0.3-0.9-0.6-1.6-1
		s-1.4-0.7-2.3-1s-2-0.4-3.3-0.4c-1.8,0-3.3,0.3-4.6,0.9s-2.4,1.5-3.3,2.7s-1.6,2.6-2,4.2c-0.5,1.7-0.7,3.5-0.7,5.6s0.2,4.1,0.7,5.7
		c0.5,1.7,1.2,3.1,2.1,4.2s2,2,3.3,2.6s2.7,0.9,4.3,0.9c1.5,0,2.8-0.2,3.7-0.5c1-0.4,1.8-0.8,2.4-1.2s1.2-0.8,1.6-1.2
		s0.9-0.5,1.3-0.5c0.5,0,0.9,0.2,1.2,0.6l1.8,2.3c-0.8,1-1.6,1.8-2.6,2.4c-1,0.7-2,1.2-3.2,1.7c-1.1,0.5-2.3,0.8-3.6,1
		c-1.2,0.2-2.5,0.3-3.8,0.3c-2.2,0-4.3-0.4-6.2-1.2s-3.6-2-5-3.6s-2.5-3.5-3.3-5.7c-0.8-2.3-1.2-4.8-1.2-7.7c0-2.6,0.4-5.1,1.1-7.3
		s1.8-4.2,3.2-5.8s3.1-2.9,5.2-3.8s4.4-1.4,7.1-1.4c2.5,0,4.7,0.4,6.6,1.2s3.6,1.9,5.1,3.4L75.3,117L75.3,117z"/>
	<path class="st2" d="M82,115.7c2-1.9,4.1-3.3,6.3-4.2s4.8-1.4,7.5-1.4c2,0,3.7,0.3,5.3,1c1.5,0.7,2.8,1.6,3.9,2.7
		c1,1.2,1.8,2.6,2.4,4.2c0.5,1.7,0.8,3.5,0.8,5.5v22.7h-2.8c-0.6,0-1.1-0.1-1.4-0.3s-0.6-0.6-0.8-1.2l-0.7-3.4
		c-0.9,0.9-1.8,1.6-2.7,2.3s-1.8,1.2-2.8,1.7s-2,0.8-3.1,1s-2.3,0.4-3.7,0.4s-2.7-0.2-3.9-0.6s-2.3-1-3.2-1.7s-1.6-1.7-2.1-2.9
		s-0.8-2.6-0.8-4.2c0-1.4,0.4-2.7,1.2-4s2-2.4,3.7-3.4s4-1.8,6.8-2.5c2.8-0.6,6.2-1,10.2-1.1v-2.8c0-2.8-0.6-4.8-1.8-6.2
		s-2.9-2.1-5.2-2.1c-1.5,0-2.8,0.2-3.9,0.6c-1,0.4-1.9,0.8-2.7,1.3s-1.4,0.9-2,1.3c-0.5,0.4-1.1,0.6-1.6,0.6c-0.4,0-0.8-0.1-1.1-0.3
		s-0.6-0.5-0.8-0.8L82,115.7L82,115.7z M102.1,130.2c-2.9,0.1-5.3,0.3-7.3,0.7s-3.7,0.8-4.9,1.4c-1.3,0.6-2.2,1.3-2.8,2.1
		s-0.9,1.7-0.9,2.7c0,0.9,0.2,1.7,0.5,2.4s0.7,1.2,1.2,1.7s1.1,0.7,1.9,0.9c0.7,0.2,1.5,0.3,2.3,0.3c1.1,0,2.1-0.1,3-0.3
		s1.8-0.5,2.6-1s1.6-0.9,2.3-1.5s1.5-1.2,2.2-2L102.1,130.2L102.1,130.2z"/>
	<path class="st2" d="M145.9,94.6v51.6h-3.7c-0.9,0-1.4-0.4-1.7-1.3l-0.6-4.3c-1.5,1.8-3.2,3.3-5.2,4.4c-1.9,1.1-4.2,1.7-6.7,1.7
		c-2,0-3.9-0.4-5.5-1.2s-3.1-1.9-4.2-3.4c-1.2-1.5-2.1-3.4-2.7-5.7s-0.9-4.9-0.9-7.8c0-2.6,0.4-5,1.1-7.3s1.7-4.2,3-5.9
		s2.9-3,4.8-3.9s4-1.4,6.4-1.4c2.2,0,4,0.4,5.6,1.1s2.9,1.8,4.1,3.1V94.6L145.9,94.6L145.9,94.6z M139.7,119.1
		c-1.2-1.6-2.4-2.7-3.8-3.3s-2.9-0.9-4.5-0.9c-3.3,0-5.8,1.2-7.6,3.5c-1.8,2.4-2.7,5.7-2.7,10.1c0,2.3,0.2,4.3,0.6,5.9s1,3,1.8,4.1
		s1.7,1.8,2.8,2.3s2.4,0.7,3.8,0.7c2.1,0,3.8-0.5,5.4-1.4c1.5-0.9,2.9-2.3,4.2-4C139.7,136.1,139.7,119.1,139.7,119.1z"/>
	<path class="st2" d="M183.4,141.2c-0.8,0.9-1.7,1.7-2.8,2.4s-2.2,1.3-3.4,1.7s-2.5,0.8-3.8,1s-2.6,0.3-3.9,0.3
		c-2.5,0-4.7-0.4-6.8-1.2s-3.9-2-5.4-3.6s-2.7-3.6-3.5-5.9c-0.8-2.4-1.3-5.1-1.3-8.1c0-2.5,0.4-4.8,1.1-6.9c0.8-2.1,1.8-4,3.3-5.6
		c1.4-1.6,3.2-2.8,5.2-3.7s4.4-1.3,6.9-1.3c2.1,0,4.1,0.4,5.9,1.1s3.4,1.7,4.7,3.1c1.3,1.3,2.4,3,3.1,5s1.1,4.2,1.1,6.7
		c0,1-0.1,1.6-0.3,2c-0.2,0.3-0.6,0.5-1.2,0.5h-23.7c0.1,2.2,0.4,4.2,0.9,5.8c0.5,1.7,1.3,3,2.3,4.1s2.1,1.9,3.5,2.5
		c1.4,0.5,2.9,0.8,4.5,0.8s2.9-0.2,4-0.5c1.1-0.4,2.1-0.8,2.9-1.2s1.5-0.8,2-1.2s1-0.5,1.4-0.5c0.5,0,0.9,0.2,1.2,0.6L183.4,141.2
		L183.4,141.2z M178.4,124.5c0-1.4-0.2-2.8-0.6-4s-1-2.2-1.8-3.1s-1.7-1.6-2.9-2s-2.4-0.7-3.8-0.7c-3,0-5.3,0.9-7.1,2.6
		c-1.7,1.7-2.8,4.1-3.2,7.2H178.4L178.4,124.5z"/>
	<path class="st2" d="M190.5,146.1v-35.5h3.7c0.9,0,1.4,0.4,1.6,1.3l0.5,3.6c1.3-1.6,2.8-2.9,4.4-4c1.6-1,3.5-1.5,5.7-1.5
		c2.4,0,4.3,0.7,5.8,2s2.5,3.1,3.2,5.4c0.5-1.3,1.2-2.4,2-3.3s1.7-1.7,2.7-2.3s2.1-1.1,3.2-1.3c1.1-0.3,2.3-0.4,3.4-0.4
		c1.9,0,3.5,0.3,5,0.9s2.7,1.5,3.7,2.6s1.8,2.5,2.3,4.2s0.8,3.6,0.8,5.7v22.6h-6.3v-22.6c0-2.8-0.6-4.9-1.8-6.3s-3-2.2-5.3-2.2
		c-1,0-2,0.2-2.9,0.5c-0.9,0.4-1.7,0.9-2.4,1.6s-1.3,1.6-1.7,2.6c-0.4,1.1-0.6,2.3-0.6,3.7V146h-6.3v-22.6c0-2.8-0.6-5-1.7-6.4
		s-2.8-2.1-5-2.1c-1.5,0-3,0.4-4.3,1.2s-2.5,2-3.6,3.4v26.4h-6.1L190.5,146.1z"/>
	<path class="st2" d="M276.7,110.7l-19.8,45.9c-0.2,0.5-0.5,0.8-0.8,1.1s-0.8,0.4-1.5,0.4H250l6.5-14.1l-14.6-33.4h5.4
		c0.5,0,1,0.1,1.3,0.4s0.5,0.6,0.6,0.9l9.5,22.3c0.4,1,0.7,2,0.9,3.1c0.3-1.1,0.7-2.1,1-3.1l9.2-22.3c0.1-0.4,0.4-0.7,0.7-0.9
		s0.7-0.4,1.1-0.4h5.1L276.7,110.7z"/>
	<path class="st0" d="M66.8,36.7c0,4.9-0.8,9.4-2.4,13.4c-1.6,4.1-3.9,7.6-6.9,10.5c-2.9,2.9-6.5,5.2-10.6,6.9
		c-4.1,1.6-8.7,2.4-13.8,2.4H7.7V3.5H33c5.1,0,9.7,0.8,13.8,2.5c4.1,1.6,7.7,3.9,10.6,6.9c2.9,2.9,5.2,6.4,6.9,10.5
		C66,27.4,66.8,31.9,66.8,36.7z M54.1,36.7c0-3.6-0.5-6.9-1.4-9.8c-1-2.9-2.4-5.4-4.2-7.4s-4-3.5-6.6-4.6s-5.5-1.6-8.8-1.6H20.2
		v46.8h12.9c3.3,0,6.2-0.5,8.8-1.6s4.8-2.6,6.6-4.6s3.2-4.5,4.2-7.4C53.6,43.7,54.1,40.4,54.1,36.7z"/>
	<path class="st0" d="M88.9,9c0,1-0.2,1.9-0.6,2.8s-0.9,1.6-1.6,2.3c-0.7,0.6-1.4,1.2-2.3,1.5c-0.9,0.4-1.8,0.6-2.9,0.6
		c-1,0-1.9-0.2-2.8-0.6s-1.6-0.9-2.3-1.5c-0.6-0.6-1.2-1.4-1.5-2.3C74.6,11,74.4,10,74.4,9s0.2-2,0.6-2.9s0.9-1.7,1.5-2.3
		s1.4-1.2,2.3-1.5c0.9-0.4,1.8-0.6,2.8-0.6s2,0.2,2.9,0.6s1.7,0.9,2.3,1.5c0.7,0.6,1.2,1.4,1.6,2.3C88.7,7.1,88.9,8,88.9,9z
		 M87.4,22.8V70H76V22.8H87.4z"/>
	<path class="st0" d="M140.8,24.4v4.2c0,1.3-0.8,2.2-2.4,2.5l-4.2,0.8c0.6,1.6,1,3.4,1,5.3c0,2.3-0.5,4.4-1.4,6.3s-2.2,3.5-3.9,4.8
		s-3.6,2.3-5.9,3.1c-2.3,0.7-4.7,1.1-7.3,1.1c-0.9,0-1.8,0-2.7-0.1s-1.7-0.2-2.5-0.4c-1.5,0.9-2.2,1.9-2.2,3c0,1,0.4,1.6,1.3,2.1
		c0.9,0.4,2,0.8,3.5,0.9c1.4,0.2,3.1,0.3,4.9,0.3s3.7,0.1,5.7,0.3c1.9,0.2,3.8,0.4,5.7,0.8c1.8,0.4,3.5,1,4.9,1.8s2.6,2,3.5,3.4
		s1.3,3.3,1.3,5.5c0,2.1-0.5,4.1-1.5,6.1s-2.5,3.7-4.5,5.2c-1.9,1.5-4.3,2.8-7.2,3.7c-2.8,0.9-6.1,1.4-9.7,1.4s-6.7-0.3-9.3-1
		s-4.8-1.6-6.6-2.8c-1.7-1.1-3.1-2.5-3.9-4c-0.9-1.5-1.3-3.1-1.3-4.7c0-2.2,0.7-4.1,2-5.5c1.3-1.5,3.2-2.7,5.5-3.6
		c-1.3-0.6-2.3-1.5-3-2.6s-1.1-2.5-1.1-4.2c0-0.7,0.1-1.4,0.4-2.2s0.6-1.5,1.2-2.2c0.5-0.7,1.1-1.4,1.9-2.1s1.7-1.2,2.7-1.8
		c-2.4-1.3-4.3-3-5.6-5.2c-1.4-2.1-2-4.7-2-7.5c0-2.3,0.5-4.4,1.4-6.3s2.2-3.5,3.9-4.8s3.6-2.4,5.9-3.1s4.8-1.1,7.5-1.1
		c2,0,3.9,0.2,5.7,0.6s3.4,1,4.9,1.8h13.4L140.8,24.4z M129.5,72.1c0-0.9-0.3-1.7-0.8-2.3c-0.6-0.6-1.3-1-2.3-1.4
		c-1-0.3-2.1-0.6-3.3-0.7c-1.3-0.2-2.6-0.3-4-0.3c-1.4-0.1-2.9-0.1-4.4-0.2s-3-0.2-4.4-0.4c-1.3,0.7-2.3,1.5-3.1,2.5
		s-1.2,2.1-1.2,3.3c0,0.8,0.2,1.6,0.6,2.3s1.1,1.3,2,1.9c0.9,0.5,2.1,0.9,3.5,1.2s3.2,0.4,5.3,0.4s3.9-0.2,5.5-0.5
		c1.5-0.3,2.8-0.8,3.8-1.3c1-0.6,1.7-1.2,2.2-2C129.3,73.9,129.5,73,129.5,72.1z M116.7,45.3c1.4,0,2.6-0.2,3.7-0.6
		c1-0.4,1.9-0.9,2.6-1.6s1.2-1.5,1.6-2.4c0.4-1,0.5-2,0.5-3.1c0-2.3-0.7-4.2-2.1-5.5c-1.4-1.4-3.5-2-6.3-2s-4.9,0.7-6.3,2
		c-1.4,1.4-2.1,3.2-2.1,5.5c0,1.1,0.2,2.1,0.5,3.1c0.4,1,0.9,1.8,1.6,2.5s1.6,1.2,2.6,1.6C114.1,45.1,115.3,45.3,116.7,45.3
		L116.7,45.3z"/>
	<path class="st0" d="M161.8,9c0,1-0.2,1.9-0.6,2.8s-0.9,1.6-1.6,2.3c-0.7,0.6-1.4,1.2-2.3,1.5c-0.9,0.4-1.8,0.6-2.9,0.6
		c-1,0-1.9-0.2-2.8-0.6s-1.6-0.9-2.3-1.5c-0.6-0.6-1.2-1.4-1.5-2.3c-0.4-0.9-0.6-1.8-0.6-2.8s0.2-2,0.6-2.9s0.9-1.7,1.5-2.3
		s1.4-1.2,2.3-1.5c0.9-0.4,1.8-0.6,2.8-0.6s2,0.2,2.9,0.6s1.7,0.9,2.3,1.5c0.7,0.6,1.2,1.4,1.6,2.3C161.6,7.1,161.8,8,161.8,9z
		 M160.2,22.8V70h-11.4V22.8H160.2z"/>
	<path class="st0" d="M188,70.7c-4.1,0-7.3-1.2-9.5-3.5s-3.3-5.5-3.3-9.6V31.3h-4.8c-0.6,0-1.1-0.2-1.6-0.6c-0.4-0.4-0.6-1-0.6-1.8
		v-4.5l7.6-1.2l2.4-12.9c0.2-0.6,0.4-1.1,0.9-1.4c0.4-0.3,1-0.5,1.7-0.5h5.9v14.9h12.6v8.1h-12.6V57c0,1.5,0.4,2.6,1.1,3.4
		s1.7,1.2,3,1.2c0.7,0,1.3-0.1,1.8-0.3s0.9-0.3,1.2-0.5c0.4-0.2,0.7-0.4,0.9-0.5c0.3-0.2,0.6-0.3,0.8-0.3c0.3,0,0.6,0.1,0.8,0.3
		s0.4,0.4,0.7,0.8l3.4,5.5c-1.7,1.4-3.6,2.4-5.7,3.1S190.3,70.7,188,70.7L188,70.7z"/>
	<path class="st0" d="M205.9,29.4c5.4-5,12-7.5,19.6-7.5c2.8,0,5.2,0.5,7.4,1.4s4,2.2,5.5,3.8s2.6,3.5,3.4,5.8
		c0.8,2.2,1.2,4.7,1.2,7.4V70h-5.2c-1.1,0-1.9-0.2-2.5-0.5s-1-1-1.4-2l-1-3.4c-1.2,1.1-2.4,2-3.5,2.8s-2.3,1.5-3.5,2
		c-1.2,0.6-2.5,1-3.9,1.3s-2.9,0.4-4.6,0.4c-2,0-3.8-0.3-5.5-0.8s-3.1-1.3-4.4-2.4c-1.2-1.1-2.2-2.4-2.9-4s-1-3.5-1-5.6
		c0-1.2,0.2-2.4,0.6-3.6s1.1-2.3,2-3.4s2.1-2.1,3.5-3c1.4-1,3.2-1.8,5.3-2.5s4.5-1.3,7.3-1.7s6-0.7,9.6-0.8V40c0-3.2-0.7-5.5-2-7
		s-3.3-2.3-5.8-2.3c-1.8,0-3.4,0.2-4.6,0.6s-2.3,0.9-3.2,1.4s-1.8,1-2.5,1.4c-0.8,0.4-1.6,0.6-2.5,0.6c-0.8,0-1.5-0.2-2-0.6
		s-1-0.9-1.3-1.4L205.9,29.4L205.9,29.4z M231.9,49.9c-3.3,0.2-6,0.4-8.3,0.9s-4,0.9-5.4,1.6s-2.3,1.4-2.9,2.3s-0.9,1.8-0.9,2.8
		c0,2,0.6,3.4,1.8,4.3s2.7,1.3,4.6,1.3c2.3,0,4.3-0.4,6-1.3c1.7-0.8,3.4-2.1,5-3.8L231.9,49.9L231.9,49.9z"/>
	<path class="st0" d="M265.6,1.6V70h-11.4V1.6H265.6z"/>
</g>
</svg>
