<?xml version="1.0" encoding="UTF-8"?>
<svg xmlns="http://www.w3.org/2000/svg" xmlns:xlink="http://www.w3.org/1999/xlink" width="18pt" height="18pt" viewBox="0 0 18 18" version="1.1">
<g id="surface1">
<path style=" stroke:none;fill-rule:nonzero;fill:rgb(100%,100%,100%);fill-opacity:1;" d="M 7.980469 5.875 C 8.011719 5.941406 8.046875 6.003906 8.078125 6.054688 C 8.113281 6.105469 8.160156 6.152344 8.195312 6.203125 C 8.242188 6.253906 8.292969 6.300781 8.359375 6.351562 C 8.40625 6.382812 8.472656 6.433594 8.554688 6.449219 C 8.621094 6.484375 8.6875 6.5 8.769531 6.515625 C 8.851562 6.53125 8.917969 6.53125 8.984375 6.53125 C 9.050781 6.53125 9.132812 6.53125 9.199219 6.515625 C 9.261719 6.5 9.328125 6.484375 9.378906 6.449219 L 9.394531 6.449219 C 9.460938 6.417969 9.527344 6.382812 9.59375 6.335938 C 9.640625 6.300781 9.691406 6.253906 9.742188 6.203125 L 9.757812 6.1875 C 9.804688 6.136719 9.839844 6.085938 9.871094 6.039062 C 9.90625 5.988281 9.9375 5.941406 9.953125 5.875 C 9.953125 5.855469 9.953125 5.855469 9.972656 5.839844 C 10.003906 5.773438 10.019531 5.691406 10.035156 5.628906 C 10.054688 5.5625 10.054688 5.480469 10.054688 5.414062 C 10.054688 5.347656 10.054688 5.265625 10.035156 5.199219 C 10.019531 5.132812 10.003906 5.066406 9.972656 4.984375 C 9.921875 4.871094 9.855469 4.769531 9.773438 4.6875 C 9.757812 4.671875 9.757812 4.671875 9.742188 4.65625 C 9.691406 4.605469 9.640625 4.574219 9.574219 4.523438 C 9.511719 4.492188 9.460938 4.457031 9.394531 4.425781 C 9.328125 4.394531 9.261719 4.375 9.199219 4.359375 C 9.113281 4.34375 9.050781 4.34375 8.984375 4.34375 C 8.917969 4.34375 8.835938 4.34375 8.769531 4.359375 C 8.703125 4.375 8.636719 4.394531 8.570312 4.425781 L 8.554688 4.425781 C 8.488281 4.457031 8.425781 4.492188 8.375 4.523438 C 8.308594 4.574219 8.257812 4.605469 8.210938 4.65625 C 8.160156 4.707031 8.113281 4.753906 8.078125 4.804688 C 8.046875 4.855469 8.011719 4.917969 7.980469 4.984375 C 7.945312 5.050781 7.929688 5.117188 7.914062 5.183594 C 7.898438 5.265625 7.898438 5.332031 7.898438 5.398438 C 7.898438 5.460938 7.898438 5.542969 7.914062 5.609375 C 7.929688 5.742188 7.964844 5.808594 7.980469 5.875 Z M 7.980469 5.875 "/>
<path style=" stroke:none;fill-rule:nonzero;fill:rgb(100%,100%,100%);fill-opacity:1;" d="M 10.265625 11.894531 L 9.886719 11.894531 L 9.886719 7.863281 C 9.886719 7.632812 9.707031 7.4375 9.460938 7.4375 L 7.734375 7.4375 C 7.503906 7.4375 7.304688 7.617188 7.304688 7.863281 L 7.304688 8.753906 C 7.304688 8.984375 7.484375 9.179688 7.734375 9.179688 L 8.078125 9.179688 L 8.078125 11.914062 L 7.734375 11.914062 C 7.503906 11.914062 7.304688 12.09375 7.304688 12.339844 L 7.304688 13.230469 C 7.304688 13.457031 7.484375 13.65625 7.734375 13.65625 L 10.265625 13.65625 C 10.496094 13.65625 10.695312 13.476562 10.695312 13.230469 L 10.695312 12.339844 C 10.695312 12.09375 10.496094 11.894531 10.265625 11.894531 Z M 10.265625 11.894531 "/>
<path style=" stroke:none;fill-rule:nonzero;fill:rgb(100%,100%,100%);fill-opacity:1;" d="M 9 0 C 4.03125 0 0 4.03125 0 9 C 0 13.96875 4.03125 18 9 18 C 13.96875 18 18 13.96875 18 9 C 18 4.03125 13.96875 0 9 0 Z M 9 16.816406 C 4.6875 16.816406 1.183594 13.3125 1.183594 9 C 1.183594 4.6875 4.6875 1.183594 9 1.183594 C 13.3125 1.183594 16.816406 4.6875 16.816406 9 C 16.816406 13.3125 13.3125 16.816406 9 16.816406 Z M 9 16.816406 "/>
</g>
</svg>
