<?xml version="1.0" encoding="utf-8"?>
<!-- Generator: Adobe Illustrator 26.5.2, SVG Export Plug-In . SVG Version: 6.00 Build 0)  -->
<svg version="1.1" id="Calque_1" xmlns="http://www.w3.org/2000/svg" xmlns:xlink="http://www.w3.org/1999/xlink" x="0px" y="0px"
	 viewBox="0 0 18 18" style="enable-background:new 0 0 18 18;" xml:space="preserve">
<style type="text/css">
	.st0{fill:#2D455E;}
</style>
<g id="surface1">
	<path class="st0" d="M8,5.9C8,5.9,8,6,8.1,6.1c0,0.1,0.1,0.1,0.1,0.1c0,0.1,0.1,0.1,0.2,0.1c0,0,0.1,0.1,0.2,0.1
		c0.1,0,0.1,0.1,0.2,0.1c0.1,0,0.1,0,0.2,0s0.1,0,0.2,0c0.1,0,0.1,0,0.2-0.1h0c0.1,0,0.1-0.1,0.2-0.1c0,0,0.1-0.1,0.1-0.1l0,0
		c0-0.1,0.1-0.1,0.1-0.1C9.9,6,9.9,5.9,10,5.9c0,0,0,0,0,0c0-0.1,0-0.1,0.1-0.2c0-0.1,0-0.1,0-0.2c0-0.1,0-0.1,0-0.2
		C10,5.1,10,5.1,10,5C9.9,4.9,9.9,4.8,9.8,4.7c0,0,0,0,0,0C9.7,4.6,9.6,4.6,9.6,4.5c-0.1,0-0.1-0.1-0.2-0.1c-0.1,0-0.1-0.1-0.2-0.1
		c-0.1,0-0.1,0-0.2,0s-0.1,0-0.2,0c-0.1,0-0.1,0-0.2,0.1h0c-0.1,0-0.1,0.1-0.2,0.1C8.3,4.6,8.3,4.6,8.2,4.7C8.2,4.7,8.1,4.8,8.1,4.8
		C8,4.9,8,4.9,8,5c0,0.1-0.1,0.1-0.1,0.2c0,0.1,0,0.1,0,0.2c0,0.1,0,0.1,0,0.2C7.9,5.7,8,5.8,8,5.9z"/>
	<path class="st0" d="M10.3,11.9H9.9v-4c0-0.2-0.2-0.4-0.4-0.4H7.7c-0.2,0-0.4,0.2-0.4,0.4v0.9c0,0.2,0.2,0.4,0.4,0.4h0.3v2.7H7.7
		c-0.2,0-0.4,0.2-0.4,0.4v0.9c0,0.2,0.2,0.4,0.4,0.4h2.5c0.2,0,0.4-0.2,0.4-0.4v-0.9C10.7,12.1,10.5,11.9,10.3,11.9z"/>
	<path class="st0" d="M9,0C4,0,0,4,0,9s4,9,9,9s9-4,9-9S14,0,9,0z M9,16.8c-4.3,0-7.8-3.5-7.8-7.8S4.7,1.2,9,1.2s7.8,3.5,7.8,7.8
		S13.3,16.8,9,16.8z"/>
</g>
</svg>
