<?xml version="1.0" encoding="utf-8"?>
<!-- Generator: Adobe Illustrator 26.5.2, SVG Export Plug-In . SVG Version: 6.00 Build 0)  -->
<svg version="1.1" id="Calque_1" xmlns="http://www.w3.org/2000/svg" xmlns:xlink="http://www.w3.org/1999/xlink" x="0px" y="0px"
	 viewBox="0 0 52 53.2" style="enable-background:new 0 0 52 53.2;" xml:space="preserve">
<style type="text/css">
	.st0{fill-rule:evenodd;clip-rule:evenodd;fill:#BD3C30;}
</style>
<g>
	<path class="st0" d="M52,52.6H41.3V34.4c0-5-1.9-7.8-5.8-7.8c-4.3,0-6.5,2.9-6.5,7.8v18.2H18.6V17.9h10.3v4.7c0,0,3.1-5.7,10.5-5.7
		c7.4,0,12.6,4.5,12.6,13.8V52.6z M6.3,13.4C2.8,13.4,0,10.5,0,7s2.8-6.4,6.3-6.4s6.3,2.9,6.3,6.4S9.9,13.4,6.3,13.4z M1,52.6h10.7
		V17.9H1V52.6z"/>
</g>
</svg>
