<?xml version="1.0" encoding="utf-8"?>
<!-- Generator: Adobe Illustrator 23.0.1, SVG Export Plug-In . SVG Version: 6.00 Build 0)  -->
<svg version="1.1"
	 id="Calque_1" xmlns:cc="http://creativecommons.org/ns#" xmlns:dc="http://purl.org/dc/elements/1.1/" xmlns:rdf="http://www.w3.org/1999/02/22-rdf-syntax-ns#"
	 xmlns="http://www.w3.org/2000/svg" xmlns:xlink="http://www.w3.org/1999/xlink" x="0px" y="0px" viewBox="0 0 100 100"
	 style="enable-background:new 0 0 100 100;" xml:space="preserve">
<style type="text/css">
	.st0{fill:#BDC3C7;}
	.st1{fill:#ECF0F1;}
	.st2{fill:#E74C3C;}
	.st3{fill:#C0392B;}
</style>
<g transform="translate(0 -1028.4)">
	<path class="st0" d="M29.6,1056.1c-3.2,0-5.8,2.6-5.8,5.8v40.7c0,3.2,2.6,5.8,5.8,5.8h17.4h5.8h17.4c3.2,0,5.8-2.6,5.8-5.8v-40.7
		c0-3.2-2.6-5.8-5.8-5.8H52.9h-5.8H29.6z"/>
	<path class="st1" d="M29.6,1053.2c-3.2,0-5.8,2.6-5.8,5.8v40.7c0,3.2,2.6,5.8,5.8,5.8h17.4h5.8h17.4c3.2,0,5.8-2.6,5.8-5.8V1059
		c0-3.2-2.6-5.8-5.8-5.8H52.9h-5.8H29.6z"/>
	<path class="st2" d="M29.6,1053.2c-3.2,0-5.8,2.6-5.8,5.8v8.7h52.3v-8.7c0-3.2-2.6-5.8-5.8-5.8H52.9h-5.8H29.6z"/>
	<path class="st3" d="M36.9,1060.5c0,2.4-2,4.4-4.4,4.4s-4.4-2-4.4-4.4s2-4.4,4.4-4.4S36.9,1058,36.9,1060.5z"/>
	<path class="st0" d="M32.6,1047.4c-1.6,0-2.9,1.3-2.9,2.9v8.7c0,1.6,1.3,2.9,2.9,2.9c1.6,0,2.9-1.3,2.9-2.9v-8.7
		C35.5,1048.7,34.2,1047.4,32.6,1047.4z"/>
	<path class="st3" d="M71.8,1060.5c0,2.4-2,4.4-4.4,4.4c-2.4,0-4.4-2-4.4-4.4s2-4.4,4.4-4.4C69.9,1056.1,71.8,1058,71.8,1060.5z"/>
	<g>
		<path class="st0" d="M67.4,1047.4c-1.6,0-2.9,1.2-2.9,2.9v8.7c0,1.5,1.3,2.9,2.9,2.9s2.9-1.5,2.9-2.9v-8.7
			C70.4,1048.5,69.1,1047.4,67.4,1047.4z"/>
		<path class="st0" d="M29.6,1076.4v5.8h5.8v-5.8H29.6z M38.4,1076.4v5.8h5.8v-5.8H38.4z M47.1,1076.4v5.8h5.8v-5.8H47.1z
			 M55.8,1076.4v5.8h5.8v-5.8H55.8z M64.5,1076.4v5.8h5.8v-5.8H64.5z"/>
		<path class="st0" d="M29.6,1085.2v5.8h5.8v-5.8H29.6z M38.4,1085.2v5.8h5.8v-5.8H38.4z M47.1,1085.2v5.8h5.8v-5.8H47.1z
			 M55.8,1085.2v5.8h5.8v-5.8H55.8z M64.5,1085.2v5.8h5.8v-5.8H64.5z"/>
		<path class="st0" d="M29.6,1093.9v5.8h5.8v-5.8H29.6z M38.4,1093.9v5.8h5.8v-5.8H38.4z M47.1,1093.9v5.8h5.8v-5.8H47.1z
			 M55.8,1093.9v5.8h5.8v-5.8H55.8z M64.5,1093.9v5.8h5.8v-5.8H64.5z"/>
	</g>
	<rect x="23.8" y="1067.7" class="st3" width="52.3" height="2.9"/>
</g>
</svg>
