<?xml version="1.0" encoding="utf-8"?>
<!-- Generator: Adobe Illustrator 23.0.1, SVG Export Plug-In . SVG Version: 6.00 Build 0)  -->
<svg version="1.1" id="Calque_1" xmlns="http://www.w3.org/2000/svg" xmlns:xlink="http://www.w3.org/1999/xlink" x="0px" y="0px"
	 viewBox="0 0 63.4 15.8" style="enable-background:new 0 0 63.4 15.8;" xml:space="preserve">
<style type="text/css">
	.st0{fill:#FFFFFF;}
</style>
<g>
	<g>
		<path class="st0" d="M0,7.8c0-2.5,0-5,0-7.6C0,0.1,0,0,0.3,0c5.1,0,10.1,0,15.2,0c0.2,0,0.3,0.1,0.3,0.3c0,5.1,0,10.1,0,15.2
			c0,0.2,0,0.3-0.3,0.3c-5.1,0-10.2,0-15.3,0C0,15.8,0,15.6,0,15.5C0,12.9,0,10.4,0,7.8z M15.1,15.2c0.1-0.1,0.1-0.2,0.1-0.3
			c0-4.7,0-9.4,0-14.1c0-0.2,0-0.3-0.2-0.3c-4.7,0-9.4,0-14.1,0c-0.2,0-0.3,0.1-0.3,0.3c0,4.7,0,9.4,0,14.1c0,0.1,0,0.2,0.1,0.3
			c0.1,0.1,0.2,0.1,0.3,0.1c4.6,0,9.3,0,13.9,0C15,15.3,15.1,15.3,15.1,15.2C15.2,15.3,15.2,15.3,15.1,15.2
			C15.2,15.2,15.1,15.2,15.1,15.2z"/>
		<path class="st0" d="M21.2,7.7c0-1,0-2.1,0-3.1c0-0.2,0-0.3,0.3-0.3c0.9,0,1.8-0.1,2.6,0.1c1.7,0.3,2.8,1.8,2.7,3.6
			c-0.1,1.7-1.4,3-3.2,3.1c-0.7,0-1.5,0-2.2,0c-0.2,0-0.2-0.1-0.2-0.2C21.2,9.8,21.2,8.8,21.2,7.7z M22,7.7c0,0.8,0,1.6,0,2.4
			c0,0.2,0.1,0.3,0.3,0.3c0.4,0,0.8,0,1.1,0c1.4,0,2.3-0.8,2.6-2.1c0.3-1.6-0.6-3-2.1-3.2c-0.5-0.1-1.1,0-1.7-0.1
			c-0.2,0-0.3,0.1-0.3,0.3C22,6.1,22,6.9,22,7.7z"/>
		<path class="st0" d="M31.8,10.2c-0.4,0.5-0.8,0.8-1.4,0.9c-1.4,0.3-2.7-0.6-2.9-2.1c-0.2-1.5,0.9-2.7,2.2-2.8
			c0.8-0.1,1.5,0.2,2,0.8c0,0.1,0.1,0.2,0.2,0.1c0.1,0,0-0.1,0-0.2c0-0.1,0-0.2,0-0.4c0-0.3,0.1-0.3,0.4-0.3c0.1,0,0.2,0.1,0.2,0.2
			c0,1.5,0,3,0,4.5c0,0.2-0.1,0.2-0.2,0.2c-0.1,0-0.3,0.1-0.3-0.1C31.9,10.7,31.9,10.5,31.8,10.2C31.9,10.2,31.8,10.2,31.8,10.2z
			 M28.2,8.7c0,1,0.8,1.8,1.8,1.8c1,0,1.8-0.8,1.8-1.8c0-1-0.8-1.8-1.8-1.8C29,6.9,28.2,7.7,28.2,8.7z"/>
		<path class="st0" d="M41.1,8.7c0,0.7,0,1.4,0,2.2c0,0.2-0.1,0.2-0.3,0.2c-0.2,0-0.3,0-0.3-0.2c0-0.2,0.1-0.5-0.1-0.6
			c-0.2-0.1-0.3,0.2-0.4,0.4c-0.8,0.6-1.8,0.7-2.7,0.2c-0.8-0.5-1.4-1.5-1.2-2.4c0.2-1.3,0.9-2.1,2.1-2.2c0.8-0.1,1.4,0.2,2,0.7
			c0.1,0.1,0.1,0.2,0.2,0.1c0.1,0,0.1-0.2,0.1-0.3c0-0.1,0-0.2,0-0.3c0-0.2,0.1-0.3,0.3-0.3c0.2,0,0.2,0.1,0.2,0.2
			C41.1,7.3,41.1,8,41.1,8.7z M40.4,8.7c0-1-0.7-1.8-1.7-1.8c-1,0-1.8,0.8-1.8,1.7c0,1,0.7,1.8,1.8,1.9C39.6,10.5,40.4,9.7,40.4,8.7
			z"/>
		<g>
			<g>
				<path class="st0" d="M53.1,8.7c0,1.4-1.1,2.5-2.6,2.5c-1.4,0-2.5-1.1-2.5-2.5c0-1.4,1.1-2.5,2.6-2.5C52,6.2,53.1,7.4,53.1,8.7z
					 M49.2,9.9L49.2,9.9c0.3,0.5,0.8,0.6,1.3,0.7c0.9,0,1.8-0.7,1.8-1.7c0.1-1.1-0.6-1.9-1.7-2c-0.7-0.1-1.7,0.4-1.8,1.5
					C48.7,8.9,48.8,9.4,49.2,9.9z"/>
			</g>
		</g>
		<g>
			<path class="st0" d="M56.2,6.2c0.7,0,1.3,0.2,1.8,0.7c0.2,0.2,0,0.3-0.1,0.5c-0.1,0.2-0.2,0.2-0.4,0c-0.7-0.6-1.7-0.7-2.4-0.1
				c-0.6,0.4-0.8,1.5-0.5,2.1c0.4,0.8,1.1,1.2,1.9,1c0.4-0.1,0.7-0.2,1-0.5c0.2-0.2,0.3,0,0.4,0.1c0.1,0.1,0.2,0.2,0,0.4
				c-1.1,1.1-3,0.9-3.9-0.4c-0.8-1.3-0.3-3.1,1.2-3.7C55.6,6.3,55.9,6.2,56.2,6.2z"/>
		</g>
		<path class="st0" d="M34.1,9c0-0.6,0-1.2,0-1.8C34.1,7,34.1,7,33.8,7c-0.4,0-0.5-0.1-0.4-0.6c0-0.1,0.1-0.1,0.2-0.1
			c0.1,0,0.2,0,0.2,0c0.3,0,0.3-0.1,0.3-0.3c0-0.4,0-0.7,0-1.1c0-0.2,0.1-0.3,0.2-0.2c0.5,0,0.5,0,0.5,0.5c0,0.3,0,0.6,0,0.9
			c0,0.2,0,0.2,0.2,0.2c0,0,0.1,0,0.1,0c0.4,0,0.4,0,0.4,0.4c0,0.3-0.1,0.3-0.3,0.3c-0.4,0-0.4,0-0.4,0.4c0,1.2,0,2.3,0,3.5
			c0,0.2-0.1,0.3-0.3,0.3c-0.1,0-0.2,0-0.2,0c-0.2,0-0.2,0-0.2-0.2C34.1,10.3,34.1,9.7,34.1,9C34.1,9,34.1,9,34.1,9z"/>
		<g>
			<g>
				<path class="st0" d="M47.1,7.8c0,1,0,2.1,0,3.1c0,0.3-0.2,0.3-0.3,0.3c-0.2,0-0.3-0.1-0.3-0.3c0,0,0-0.1,0-0.1
					c0-0.1,0.1-0.2-0.1-0.3c-0.1,0-0.2,0.1-0.2,0.1c-0.8,0.7-1.7,0.9-2.7,0.4c-1-0.5-1.5-1.4-1.4-2.6c0-0.5,0.3-1,0.5-1.4
					c0.4-0.6,1.7-1,2.5-0.8c0.4,0.1,0.7,0.3,0.9,0.5c0.1,0.1,0.1,0.1,0.2,0.1c0.1,0,0.1-0.1,0.1-0.2c0-0.6,0.1-1.1,0-1.7
					c0-0.2,0-0.4,0.1-0.5c0-0.1,0.1-0.1,0.1-0.1c0.1,0,0.2,0,0.3,0c0.2,0,0.3,0.1,0.3,0.3c0,0.5,0,1.1,0,1.6
					C47.1,6.7,47.1,7.2,47.1,7.8C47.1,7.8,47.1,7.8,47.1,7.8z M46.3,7.3c-0.2-0.2-0.3-0.4-0.5-0.6c0,0-0.1-0.1-0.1-0.1
					c-0.5-0.3-1-0.2-1.5-0.2c-0.1,0-0.3,0-0.4,0.1c-0.4,0.2-0.8,0.5-1.1,0.9c-0.3,0.4-0.3,0.7-0.4,1.1c-0.1,0.3,0,0.6,0.1,0.8
					c0.2,0.6,0.6,1.1,1.1,1.4c0.2,0.2,0.6,0.2,0.9,0.3c0.6,0.1,1.2-0.1,1.7-0.5c0.1-0.1,0.3-0.2,0.4-0.4c0-0.1,0.1-0.1,0.2-0.1
					c0.1,0.1,0.2,0.1,0.2,0.2c0,0.1,0,0.3,0,0.4c0,0.1,0,0.3,0.1,0.2c0.1,0,0.2-0.1,0.2-0.3c0-2,0-4,0-6.1c0,0,0,0,0,0
					c-0.1,0,0,0.1-0.1,0.2c0-0.2,0-0.3-0.3-0.3c-0.3,0-0.2,0.2-0.2,0.3c0,0.7,0,1.3,0,2C46.4,7,46.4,7.2,46.3,7.3z M44.7,6.3
					C44.7,6.3,44.7,6.3,44.7,6.3C44.7,6.3,44.7,6.3,44.7,6.3C44.7,6.3,44.6,6.3,44.7,6.3C44.6,6.3,44.6,6.3,44.7,6.3z"/>
			</g>
		</g>
		<path class="st0" d="M0.7,15.2c0.1,0,0.2,0,0.3,0c4.6,0,9.2,0,13.9,0c0.1,0,0.2,0,0.3,0c0,0,0.1,0,0.1,0c0,0,0,0,0,0
			c-0.1,0-0.2,0-0.2,0c-4.6,0-9.3,0-13.9,0C0.9,15.3,0.8,15.4,0.7,15.2z"/>
		<g>
			<path class="st0" d="M62.6,7.5c-0.3,0.2-0.4,0.6-0.7,0.8c-0.1,0.1-0.3,0.2-0.3,0.3c0,0.1,0.2,0.1,0.3,0.2
				c0.5,0.5,0.8,1.1,1.1,1.6c0,0.1,0.1,0.1,0.1,0.2c0.1,0.1,0.3,0.2,0.2,0.4c-0.1,0.1-0.6,0-0.7-0.1c-0.3-0.4-0.5-0.8-0.8-1.2
				c-0.1-0.2-0.2-0.4-0.4-0.5c-0.3-0.3-0.7-0.3-1-0.3c-0.6,0-0.6,0-0.6,0.6c0,0.4,0,0.9,0,1.3c0,0.2-0.1,0.3-0.3,0.3
				c-0.2,0-0.4,0.1-0.4-0.2c0,0,0-0.1,0-0.1c0-2,0-4,0-6c0-0.3,0.1-0.4,0.3-0.4c0.3,0,0.3,0.1,0.3,0.4c0,1.1,0,2.2,0,3.3
				c0,0.2,0.1,0.2,0.3,0.3C61,8.5,61.5,8,61.9,7.2c0.1-0.3,0.3-0.5,0.5-0.8c0.1-0.1,0.1-0.2,0.3-0.2c0.2,0,0.4-0.1,0.4,0.1
				C63.2,6.5,63,6.6,63,6.8C62.9,7,62.6,7.2,62.6,7.5C62.6,7.5,62.6,7.5,62.6,7.5z"/>
		</g>
		<g>
			<g>
				<path class="st0" d="M46.3,7.3c0.1-0.1,0.2-0.3,0.2-0.5c0-0.7,0-1.3,0-2c0-0.1-0.1-0.3,0.2-0.3c0.2,0,0.3,0.1,0.3,0.3
					c0.1,0,0-0.1,0.1-0.2c0,0,0,0,0,0c0,2,0,4,0,6.1c0,0.2-0.1,0.2-0.2,0.3c-0.1,0-0.1-0.1-0.1-0.2c0-0.1,0-0.3,0-0.4
					c0-0.2-0.1-0.2-0.2-0.2c-0.1-0.1-0.1,0-0.2,0.1c-0.1,0.1-0.2,0.3-0.4,0.4c-0.5,0.4-1.1,0.5-1.7,0.5c-0.3,0-0.6-0.1-0.9-0.3
					c-0.5-0.4-0.9-0.8-1.1-1.4c-0.1-0.3-0.2-0.6-0.1-0.8c0.1-0.4,0.2-0.8,0.4-1.1c0.3-0.4,0.7-0.7,1.1-0.9c0.1-0.1,0.3-0.1,0.4-0.1
					c0.5,0,1-0.1,1.5,0.2c0,0,0.1,0.1,0.1,0.1C45.9,6.9,46.1,7.1,46.3,7.3z M46.4,8.7c0-1-0.8-1.8-1.8-1.8c-1,0-1.8,0.8-1.8,1.8
					c0,1,0.8,1.8,1.8,1.8C45.6,10.5,46.4,9.7,46.4,8.7z"/>
			</g>
		</g>
		<g>
			<path class="st0" d="M44.7,6.3C44.6,6.3,44.6,6.3,44.7,6.3C44.6,6.3,44.7,6.3,44.7,6.3C44.7,6.3,44.7,6.3,44.7,6.3
				C44.7,6.3,44.7,6.3,44.7,6.3z"/>
		</g>
		<path class="st0" d="M8.2,7.1c0-0.4-0.2-0.8-0.5-1.1C7.2,5.4,6.5,5.2,5.8,5.1c-0.5,0-0.9,0-1.4,0c-0.2,0-0.2,0.1-0.2,0.2
			c0,1.6,0,3.3,0,4.9c0,0.1,0,0.2,0.1,0.2c0.8,0,1.5,0.1,2.3-0.2c0.3-0.1,0.5-0.2,0.7-0.4c0.1-0.1,0.1-0.1,0.2,0
			c0.3,0.5,0.3,0.5-0.2,0.8c-0.5,0.3-1.1,0.4-1.7,0.4c-0.7,0-1.3,0-2,0c-0.2,0-0.2-0.1-0.2-0.3c0-2.1,0-4.2,0-6.3
			c0-0.1,0-0.3,0.2-0.3c0.8,0,1.7-0.1,2.5,0c2.5,0.3,3.7,3,2.4,5.2C8.1,9.2,8.2,8.7,8.3,8.2C8.3,7.8,8.4,7.5,8.2,7.1z"/>
		<g>
			<path class="st0" d="M8.2,7.1c0.2,0.4,0.2,0.8,0.1,1.1c-0.1,0.5-0.1,1,0.2,1.4c0.2,0.5,0.6,0.7,1,0.8c0.7,0.1,1.3,0,1.7-0.6
				c0.5-0.6,0.6-1.2,0.3-1.9c-0.3-0.7-0.8-1-1.6-1C9.8,6.9,9.6,7,9.4,7c-0.2,0.1-0.2,0-0.3-0.1C9,6.4,9,6.3,9.5,6.3
				c0.8-0.1,1.4,0.1,2,0.7c0,0,0.1,0.1,0.1,0.1c0.1,0,0-0.1,0-0.2c0-0.7,0-1.5,0-2.2c0-0.2,0-0.3,0.3-0.3c0.2,0,0.5-0.2,0.5,0.3
				c0,2.1,0,4.1,0,6.2c0,0.3-0.1,0.4-0.3,0.3c-0.2,0-0.2-0.1-0.2-0.2c0-0.2,0-0.4,0-0.7c-0.3,0.2-0.5,0.5-0.7,0.6
				c-0.9,0.6-2.4,0.5-3.2-0.6C7.3,9.4,7.3,8,8,7.2C8,7.1,8.1,7.1,8.2,7.1z"/>
		</g>
	</g>
</g>
</svg>
