<?xml version="1.0" encoding="utf-8"?>
<!-- Generator: Adobe Illustrator 23.0.1, SVG Export Plug-In . SVG Version: 6.00 Build 0)  -->
<svg version="1.1" id="Calque_1" xmlns="http://www.w3.org/2000/svg" xmlns:xlink="http://www.w3.org/1999/xlink" x="0px" y="0px"
	 viewBox="0 0 63.4 15.8" style="enable-background:new 0 0 63.4 15.8;" xml:space="preserve">
<style type="text/css">
	.st0{fill:#FFFFFF;}
</style>
<g>
	<path class="st0" d="M15.5,0C10.4,0,5.4,0,0.3,0C0,0,0,0.1,0,0.2c0,2.6,0,5.1,0,7.6c0,2.6,0,5.1,0,7.7c0,0.1,0,0.3,0.2,0.3
		c5.1,0,10.2,0,15.3,0c0.3,0,0.3-0.1,0.3-0.3c0-5.1,0-10.1,0-15.2C15.8,0.1,15.7,0,15.5,0z M14.9,15.3c-4.6,0-9.3,0-13.9,0
		c0,0,0,0-0.1,0c0.1,0,0.1-0.1,0.3-0.1c-0.1,0-0.1,0-0.2,0c-0.1,0-0.2,0-0.3,0c-0.1-0.1-0.1-0.2-0.1-0.3c0-4.7,0-9.4,0-14.1
		c0-0.2,0.1-0.3,0.3-0.3c4.7,0,9.4,0,14.1,0c0.2,0,0.2,0.1,0.2,0.3c0,4.7,0,9.4,0,14.1c0,0.1,0,0.2-0.1,0.3
		C15.1,15.3,15,15.3,14.9,15.3z"/>
	<path class="st0" d="M24.1,4.4c-0.8-0.2-1.7-0.1-2.6-0.1c-0.3,0-0.3,0.1-0.3,0.3c0,1,0,2.1,0,3.1c0,1.1,0,2.1,0,3.2
		c0,0.1,0,0.2,0.2,0.2c0.7,0,1.5,0,2.2,0c1.8-0.1,3.1-1.4,3.2-3.1C26.9,6.2,25.8,4.7,24.1,4.4z M26,8.3c-0.3,1.3-1.2,2.1-2.6,2.1
		c-0.3,0-0.7,0-1.1,0c-0.2,0-0.3-0.1-0.3-0.3c0-0.8,0-1.6,0-2.4s0-1.6-0.1-2.4C21.9,5.1,22,5,22.2,5c0.6,0.1,1.2,0,1.7,0.1
		C25.4,5.3,26.3,6.7,26,8.3z"/>
	<path class="st0" d="M32.3,6.2c-0.3,0-0.4,0-0.4,0.3c0,0.2,0,0.3,0,0.4s0.1,0.2,0,0.2c-0.1,0.1-0.2,0-0.2-0.1
		c-0.5-0.6-1.2-0.9-2-0.8c-1.3,0.1-2.4,1.3-2.2,2.8s1.5,2.4,2.9,2.1c0.6-0.1,1-0.4,1.4-0.9c0.1,0.3,0.1,0.5,0.2,0.8
		c0,0.2,0.2,0.1,0.3,0.1c0.1,0,0.2,0,0.2-0.2c0-1.5,0-3,0-4.5C32.5,6.3,32.4,6.2,32.3,6.2z M30,10.5c-1,0-1.8-0.8-1.8-1.8
		S29,6.9,30,6.9s1.8,0.8,1.8,1.8S31,10.5,30,10.5z"/>
	<path class="st0" d="M40.8,6.2c-0.2,0-0.3,0.1-0.3,0.3c0,0.1,0,0.2,0,0.3c0,0.1,0,0.3-0.1,0.3c-0.1,0.1-0.1,0-0.2-0.1
		c-0.6-0.5-1.2-0.8-2-0.7c-1.2,0.1-1.9,0.9-2.1,2.2c-0.2,0.9,0.4,1.9,1.2,2.4c0.9,0.5,1.9,0.4,2.7-0.2c0.1-0.2,0.2-0.5,0.4-0.4
		c0.2,0.1,0.1,0.4,0.1,0.6s0.1,0.2,0.3,0.2s0.3,0,0.3-0.2c0-0.8,0-1.5,0-2.2s0-1.4-0.1-2.3C41,6.3,41,6.2,40.8,6.2z M38.7,10.5
		c-1.1-0.1-1.8-0.9-1.8-1.9c0-0.9,0.8-1.7,1.8-1.7s1.7,0.8,1.7,1.8S39.6,10.5,38.7,10.5z"/>
	<path class="st0" d="M50.6,6.2c-1.5,0-2.6,1.1-2.6,2.5c0,1.4,1.1,2.5,2.5,2.5c1.5,0,2.6-1.1,2.6-2.5C53.1,7.4,52,6.2,50.6,6.2z
		 M52.3,8.9c0,1-0.9,1.7-1.8,1.7c-0.5-0.1-1-0.2-1.3-0.7c-0.4-0.5-0.5-1-0.4-1.5c0.1-1.1,1.1-1.6,1.8-1.5C51.7,7,52.4,7.8,52.3,8.9z
		"/>
	<path class="st0" d="M55.1,7.3c0.7-0.6,1.7-0.5,2.4,0.1c0.2,0.2,0.3,0.2,0.4,0C58,7.2,58.2,7.1,58,6.9c-0.5-0.5-1.1-0.7-1.8-0.7
		c-0.3,0-0.6,0.1-1,0.1c-1.5,0.6-2,2.4-1.2,3.7c0.9,1.3,2.8,1.5,3.9,0.4c0.2-0.2,0.1-0.3,0-0.4c-0.1-0.1-0.2-0.3-0.4-0.1
		c-0.3,0.3-0.6,0.4-1,0.5c-0.8,0.2-1.5-0.2-1.9-1C54.3,8.8,54.5,7.7,55.1,7.3z"/>
	<path class="st0" d="M35.1,6.3L35.1,6.3c-0.3,0-0.3,0-0.3-0.2c0-0.3,0-0.6,0-0.9c0-0.5,0-0.5-0.5-0.5c-0.1-0.1-0.2,0-0.2,0.2
		c0,0.4,0,0.7,0,1.1c0,0.2,0,0.3-0.3,0.3c0,0-0.1,0-0.2,0c-0.1,0-0.2,0-0.2,0.1c-0.1,0.5,0,0.6,0.4,0.6c0.3,0,0.3,0,0.3,0.2
		c0,0.6,0,1.2,0,1.8c0,0.7,0,1.3,0,2c0,0.2,0,0.2,0.2,0.2c0,0,0.1,0,0.2,0c0.2,0,0.3-0.1,0.3-0.3c0-1.2,0-2.3,0-3.5
		c0-0.4,0-0.4,0.4-0.4c0.2,0,0.3,0,0.3-0.3C35.5,6.3,35.5,6.3,35.1,6.3z"/>
	<path class="st0" d="M46.4,4.4c-0.1,0.1-0.1,0.3-0.1,0.5c0.1,0.6,0,1.1,0,1.7c0,0.1,0,0.2-0.1,0.2c-0.1,0-0.1,0-0.2-0.1
		c-0.2-0.2-0.5-0.4-0.9-0.5C44.3,6,43,6.4,42.6,7c-0.2,0.4-0.5,0.9-0.5,1.4c-0.1,1.2,0.4,2.1,1.4,2.6s1.9,0.3,2.7-0.4
		c0,0,0.1-0.1,0.2-0.1c0.2,0.1,0.1,0.2,0.1,0.3v0.1c0,0.2,0.1,0.3,0.3,0.3c0.1,0,0.3,0,0.3-0.3c0,0,0-0.1,0-0.2c0,0,0,0,0,0
		c0,0,0,0,0,0c0,0,0,0,0,0c0.1,0,0.1-0.1,0.1-0.2c0-1.9,0-3.8,0-5.7c0-0.1,0-0.2,0-0.4V4.3L46.4,4.4C46.5,4.3,46.4,4.3,46.4,4.4z
		 M44.6,6.9c1,0,1.8,0.8,1.8,1.8s-0.8,1.8-1.8,1.8s-1.8-0.8-1.8-1.8S43.6,6.9,44.6,6.9z M46.3,7.3C46.3,7.3,46.3,7.3,46.3,7.3
		L46.3,7.3C46.3,7.3,46.3,7.3,46.3,7.3L46.3,7.3z M45.2,6.4c0.1,0,0.2,0,0.2,0.1L45.2,6.4z"/>
	<path class="st0" d="M63.1,10.6c0-0.1-0.1-0.1-0.1-0.2c-0.3-0.5-0.6-1.1-1.1-1.6c-0.1-0.1-0.3-0.1-0.3-0.2c0-0.1,0.2-0.2,0.3-0.3
		c0.3-0.2,0.4-0.6,0.7-0.8c0-0.3,0.3-0.5,0.4-0.7c0-0.2,0.2-0.3,0.1-0.5c0-0.2-0.2-0.1-0.4-0.1s-0.2,0.1-0.3,0.2
		c-0.2,0.3-0.4,0.5-0.5,0.8C61.5,8,61,8.5,60,8.4c-0.2-0.1-0.3-0.1-0.3-0.3c0-1.1,0-2.2,0-3.3c0-0.3,0-0.4-0.3-0.4
		c-0.2,0-0.3,0.1-0.3,0.4c0,2,0,4,0,6v0.1c0,0.3,0.2,0.2,0.4,0.2s0.3-0.1,0.3-0.3c0-0.4,0-0.9,0-1.3c0-0.6,0-0.6,0.6-0.6
		c0.3,0,0.7,0,1,0.3c0.2,0.1,0.3,0.3,0.4,0.5c0.3,0.4,0.5,0.8,0.8,1.2c0.1,0.1,0.6,0.2,0.7,0.1C63.4,10.8,63.2,10.7,63.1,10.6z"/>
	<path class="st0" d="M3.6,11c0.7,0,1.3,0,2,0c0.6,0,1.2-0.1,1.7-0.4s0.5-0.3,0.2-0.8c-0.1-0.1-0.1-0.1-0.2,0
		c-0.2,0.2-0.4,0.3-0.7,0.4c-0.8,0.3-1.5,0.2-2.3,0.2c-0.1,0-0.1-0.1-0.1-0.2c0-1.6,0-3.3,0-4.9c0-0.1,0-0.2,0.2-0.2
		c0.5,0,0.9,0,1.4,0C6.5,5.2,7.2,5.4,7.7,6C8,6.3,8.2,6.7,8.2,7.1C8.1,7.1,8,7.1,8,7.2C7.3,8,7.3,9.4,8,10.3
		c0.8,1.1,2.3,1.2,3.2,0.6c0.2-0.1,0.4-0.4,0.7-0.6c0,0.3,0,0.5,0,0.7c0,0.1,0,0.2,0.2,0.2c0.2,0.1,0.3,0,0.3-0.3c0-2.1,0-4.1,0-6.2
		c0-0.5-0.3-0.3-0.5-0.3c-0.3,0-0.3,0.1-0.3,0.3c0,0.7,0,1.5,0,2.2c0,0.1,0.1,0.2,0,0.2L11.5,7c-0.6-0.6-1.2-0.8-2-0.7
		C9,6.3,9,6.4,9.1,6.9C9.2,7,9.2,7.1,9.4,7c0.2,0,0.4-0.1,0.5-0.1c0.8,0,1.3,0.3,1.6,1s0.2,1.3-0.3,1.9c-0.4,0.6-1,0.7-1.7,0.6
		c-0.4-0.1-0.8-0.3-1-0.8C8.4,9.5,8.3,9.3,8.3,9.2c0,0.1,0.1,0.1,0.2,0.1c1.3-2.2,0.1-4.9-2.4-5.2c-0.8-0.1-1.7,0-2.5,0
		c-0.2,0-0.2,0.2-0.2,0.3c0,2.1,0,4.2,0,6.3C3.4,10.9,3.4,11,3.6,11z"/>
</g>
</svg>
