<?xml version="1.0" encoding="utf-8"?>
<!-- Generator: Adobe Illustrator 23.0.1, SVG Export Plug-In . SVG Version: 6.00 Build 0)  -->
<svg version="1.1" id="Calque_1" xmlns="http://www.w3.org/2000/svg" xmlns:xlink="http://www.w3.org/1999/xlink" x="0px" y="0px"
	 viewBox="0 0 665.1170654 177.1111145" style="enable-background:new 0 0 665.1170654 177.1111145;" xml:space="preserve">
<style type="text/css">
	.st0{fill:#999999;}
	.st1{fill:#BD3C30;}
	.st2{fill:#818182;}
</style>
<rect x="3.9502413" y="105.0739441" class="st0" width="551.6832275" height="0.9945531"/>
<g>
	<path class="st1" d="M591.8660889,66.6430359c0,0,6.8162842,12.4964905,20.8275146,18.555397
		c0,0,1.8933716,1.1360397,4.9228516,1.8934097c3.02948,0.7573624,4.5441895,3.0294495,4.5441895,3.0294495
		s2.2720947,2.2720871,2.6507568,9.4670334c0.3787231,7.5736389-4.1655273,23.4782639-4.1655273,23.4782639
		s-4.9228516,14.0112305-7.1949463,17.0406799s-4.9228516,8.709671-11.7391357,14.0112152
		c-7.1949463,4.9228668-10.2243652,4.1654968-10.2243652,4.1654968L591.8660889,66.6430359z"/>
	<path class="st2" d="M578.9909058,41.2713661l3.02948-4.9228592c0,0-1.1361084-15.5259476,10.9816895-20.0701275v-3.7868166
		h68.9200439v5.3015432h-11.3604126v8.7096748c0,0-20.4487915-10.6030836-45.8204956-0.3786812l-0.3787231-8.3309956h-10.9817505
		c0,0-10.2243652,3.0294533-9.467041,18.9340801l3.02948,4.922863L578.9909058,41.2713661"/>
	<g>
		<path class="st1" d="M627.4621582,25.3667374c-15.526001,0-36.7321167,6.4375877-36.7321167,29.1584816
			c0,22.3422127,34.8123169,31.0518913,36.7321167,31.0518913s36.3534546-8.3310013,36.3534546-31.0518951
			C663.8156128,31.4256439,642.609436,25.3667374,627.4621582,25.3667374z M655.8632813,62.4775352
			c-8.7097168,11.7391319-23.8569336,12.8751717-23.8569336,12.8751717l-4.9229126,8.7096786l-4.9228516-8.7096786
			c0,0-16.2833252-2.2720871-23.8569336-12.4964943c-7.5736694-10.6030846,0-21.5848503,0-21.5848503
			c11.7391357-15.5259457,28.7797852-2.6507683,28.7797852-2.6507683c6.05896-5.6802254,21.5848999-8.3309956,28.7798462,3.0294533
			S655.8632813,62.4775352,655.8632813,62.4775352z"/>
		<path class="st1" d="M636.5504761,59.0694008c11.3604736-1.1360435,11.7391357-7.5736313,11.7391357-7.5736313
			C637.6865234,44.3008156,636.5504761,59.0694008,636.5504761,59.0694008z"/>
		<path class="st1" d="M607.0133667,51.4957695c0,0,0.3787231,6.4375877,11.7391357,7.5736313
			C618.7524414,59.0694008,617.2377319,44.3008156,607.0133667,51.4957695z"/>
	</g>
	<path class="st2" d="M625.9474487,89.3639297c0,0,7.5736084,3.7868195-3.02948,35.5960693
		s-24.7532349,35.7256088-31.8092041,35.9747543v7.1949615c0,0,67.0266113-16.2833099,72.328186-63.2398376v-35.217392
		C663.8156128,68.915123,649.8043213,86.3344727,625.9474487,89.3639297z"/>
</g>
<g>
	<path class="st1" d="M518.2028809,134.6374817l-1.239502-2.2484283l6.7164917-3.5167694l-6.7164917-3.7185593l1.239502-2.2484207
		l6.5435181,4.1797638l-0.1729736-7.8983231h2.5366821l-0.2305908,7.8983231l6.5531006-4.1221161l1.2299194,2.190773
		l-6.668396,3.7185593l6.668396,3.5167694l-1.3452148,2.2484283l-6.4954224-4.0068207l0.2305908,7.6677246h-2.4790649
		l0.2306519-7.6100616L518.2028809,134.6374817z"/>
</g>
<g>
	<g>
		<g>
			<path class="st1" d="M55.6289101,47.5008736c0,4.2662506-0.7113304,8.1838913-2.1331291,11.7520638
				c-1.4226532,3.5690231-3.4212074,6.6411896-5.9969368,9.2169189c-2.5761566,2.5757294-5.6752357,4.5751343-9.2976646,5.9969406
				c-3.6220016,1.4226532-7.6468754,2.1331253-12.074192,2.1331253H3.9502413V18.4013958h22.1767464
				c4.4273167,0,8.4521904,0.7181625,12.074192,2.1532059c3.6224289,1.4358978,6.721508,3.4348774,9.2976646,5.9969368
				c2.5757294,2.5629139,4.5742836,5.6286716,5.9969368,9.1968403
				C54.9175797,39.3169785,55.6289101,43.2346191,55.6289101,47.5008736z M44.5202408,47.5008736
				c0-3.1930695-0.4225235-6.0576057-1.2675705-8.593174c-0.8454742-2.5355721-2.0664787-4.6819458-3.6625862-6.4395409
				c-1.596962-1.7571716-3.5288696-3.1054897-5.7957153-4.0449543c-2.2677021-0.9390373-4.823782-1.408556-7.6673813-1.408556
				H14.8175259v40.9720154h11.3094616c2.8435993,0,5.3996792-0.4690857,7.6673813-1.4085541
				c2.2668457-0.9386063,4.1987534-2.2869263,5.7957153-4.0449524c1.5961075-1.7567406,2.817112-3.9039688,3.6625862-6.439537
				C44.0977173,53.5580482,44.5202408,50.6939392,44.5202408,47.5008736z"/>
			<path class="st1" d="M74.9881134,23.2713165c0,0.8591461-0.1751633,1.6640358-0.5233459,2.4150944
				c-0.3490448,0.7514858-0.8117218,1.408556-1.3884735,1.972065c-0.5771866,0.5635071-1.2547607,1.0129452-2.0327301,1.3483162
				c-0.7784042,0.3357983-1.6097794,0.5032692-2.4954147,0.5032692c-0.8587189,0-1.6700211-0.1674709-2.4347458-0.5032692
				c-0.7647324-0.335371-1.4290619-0.7848091-1.9921494-1.3483162c-0.5635033-0.563509-1.0133705-1.2205791-1.3483124-1.972065
				c-0.3358002-0.7510586-0.5032692-1.5559483-0.5032692-2.4150944c0-0.8852081,0.167469-1.7165833,0.5032692-2.4949856
				c0.3349419-0.7779732,0.7848091-1.4491425,1.3483124-2.0126495c0.5630875-0.563509,1.227417-1.0125198,1.9921494-1.3483181
				c0.7647247-0.3349438,1.5760269-0.5028419,2.4347458-0.5028419c0.8856354,0,1.7170105,0.1678982,2.4954147,0.5028419
				c0.7779694,0.3357983,1.4555435,0.7848091,2.0327301,1.3483181c0.5767517,0.5635071,1.0394287,1.2346764,1.3884735,2.0126495
				C74.8129501,21.5547333,74.9881134,22.3861084,74.9881134,23.2713165z M73.6197205,35.3057747v41.2941475h-9.9816513V35.3057747
				H73.6197205z"/>
			<path class="st1" d="M120.3874512,36.7143326v3.7027473c0,1.1808434-0.7113266,1.9054146-2.1331253,2.1732864
				l-3.7031784,0.6844101c0.5635071,1.422226,0.8454819,2.9781761,0.8454819,4.6686974
				c0,2.039566-0.4092865,3.8838921-1.2278442,5.534256c-0.8185577,1.6499367-1.9519806,3.0525131-3.4006958,4.2055893
				c-1.4491425,1.1539307-3.1593246,2.0463982-5.131813,2.6765518c-1.9720612,0.6305847-4.0987854,0.9458733-6.379303,0.9458733
				c-0.8048859,0-1.5832901-0.0401573-2.3343506-0.120903c-0.7514801-0.0803185-1.4888687-0.1871223-2.2134399-0.3216972
				c-1.2880783,0.7784004-1.9319077,1.6499367-1.9319077,2.6158867c0,0.8322334,0.3823624,1.4427376,1.1470947,1.8315086
				c0.7647324,0.3891983,1.7772522,0.6639023,3.0388412,0.8249664c1.2607346,0.1610641,2.6962051,0.2614594,4.3064117,0.3016205
				c1.6097794,0.0405884,3.2601471,0.127739,4.9502411,0.2618866c1.6905212,0.1345749,3.340889,0.3691254,4.9506683,0.7040634
				c1.6097794,0.3362274,3.0448227,0.8655548,4.3064117,1.590126c1.2611618,0.724144,2.2741089,1.7106094,3.0388412,2.9580994
				s1.1470947,2.8512878,1.1470947,4.8096848c0,1.8242416-0.4498672,3.5950851-1.34832,5.3125229
				c-0.8992996,1.7170105-2.2006226,3.2464676-3.9039688,4.5883789c-1.7041931,1.3414841-3.7971573,2.4215012-6.2789001,3.2400665
				c-2.4821701,0.8185577-5.3061142,1.2269821-8.4722748,1.2269821c-3.1127472,0-5.8226242-0.300766-8.1300583-0.9057083
				c-2.3078613-0.603241-4.2256699-1.4081345-5.755127-2.4146729c-1.5294647-1.0056839-2.6701508-2.1668777-3.4212112-3.4810181
				c-0.7514877-1.3149948-1.1270142-2.6833878-1.1270142-4.1051865c0-1.9319077,0.5835876-3.5489502,1.7507629-4.8498459
				c1.1671753-1.3013229,2.7701187-2.3407516,4.8096848-3.1191559c-1.1005325-0.5635071-1.9720688-1.3145676-2.6158905-2.2540283
				c-0.6442566-0.9390411-0.9659576-2.1732864-0.9659576-3.7027512c0-0.6169128,0.1136475-1.2538986,0.3417816-1.9118271
				c0.2277145-0.6570663,0.5635071-1.3081551,1.0065384-1.9519806c0.4426041-0.6442528,0.9992752-1.2539024,1.6700211-1.8315086
				c0.670311-0.5767517,1.4623795-1.0928383,2.3745041-1.5495377c-2.0925369-1.127018-3.736496-2.6291351-4.9301605-4.507637
				c-1.1940842-1.8776474-1.7909164-4.0782776-1.7909164-6.600605c0-2.0387077,0.4088516-3.8838882,1.2274094-5.5342522
				c0.8181305-1.6499367,1.9583969-3.0589218,3.4212036-4.2260933c1.4619598-1.1671753,3.1926422-2.0587921,5.1920547-2.6761284
				c1.9985504-0.6169128,4.1786728-0.9257965,6.5399323-0.9257965c1.7712708,0,3.4344482,0.1811447,4.9908295,0.5434303
				c1.5559464,0.3622856,2.9785995,0.8920441,4.2662506,1.5896988H120.3874512z M110.4861221,78.4515076
				c0-0.8053131-0.2413864-1.4628143-0.724144-1.9724884c-0.4831924-0.5092545-1.1411209-0.9052887-1.972496-1.1872559
				c-0.8318024-0.2815399-1.8045883-0.4891739-2.9179382-0.6237488c-1.1137695-0.1341476-2.2937622-0.2345428-3.5416794-0.3020477
				c-1.2474899-0.0666428-2.5355759-0.1268845-3.8638077-0.1807098c-1.3282394-0.053833-2.6231537-0.1610641-3.8838882-0.3221283
				c-1.1005325,0.6173325-1.9921494,1.3419037-2.6765594,2.1732864c-0.6839828,0.8313751-1.0261917,1.7973251-1.0261917,2.8978577
				c0,0.7245712,0.1811447,1.4017181,0.5434265,2.0327301c0.3622894,0.6301498,0.9386139,1.1731491,1.7306824,1.6298523
				c0.7907944,0.4558487,1.8174133,0.8113022,3.0790024,1.0667801c1.2607346,0.2546234,2.8034439,0.3819351,4.6281128,0.3819351
				c1.8515854,0,3.4476929-0.1405563,4.7896042-0.4225235c1.3414841-0.2815399,2.4484177-0.6707382,3.3203812-1.1671753
				c0.8719635-0.4968567,1.5093765-1.0864258,1.9118271-1.7708359
				C110.2848969,80.0010452,110.4861221,79.2563934,110.4861221,78.4515076z M99.2569733,54.9465218
				c1.2338257,0,2.3074341-0.1670418,3.219986-0.5032692c0.9116974-0.3349419,1.6704407-0.7976265,2.2741089-1.3884735
				c0.6036682-0.5895691,1.0595169-1.3008957,1.3684006-2.1331291c0.3080292-0.8313751,0.4626846-1.743927,0.4626846-2.7367935
				c0-2.0387115-0.6105042-3.6557503-1.8310852-4.8498421c-1.2214279-1.1936607-3.0525131-1.7909203-5.4940948-1.7909203
				s-4.2730865,0.5972595-5.4936676,1.7909203c-1.2214279,1.1940918-1.8310776,2.8111305-1.8310776,4.8498421
				c0,0.9659538,0.153801,1.8652573,0.4626846,2.6966362c0.3080292,0.8322296,0.7647247,1.5495377,1.3683929,2.1532059
				s1.3684006,1.0736122,2.2941895,1.4085541C96.9832916,54.77948,98.0496445,54.9465218,99.2569733,54.9465218z"/>
			<path class="st1" d="M138.7405396,23.2713165c0,0.8591461-0.1751556,1.6640358-0.5233459,2.4150944
				c-0.3490448,0.7514858-0.8117218,1.408556-1.3884735,1.972065c-0.577179,0.5635071-1.2547607,1.0129452-2.0327301,1.3483162
				c-0.7783966,0.3357983-1.6097717,0.5032692-2.4954071,0.5032692c-0.8587189,0-1.6700134-0.1674709-2.4347534-0.5032692
				c-0.7647247-0.335371-1.4290619-0.7848091-1.9921417-1.3483162c-0.5635071-0.563509-1.0133743-1.2205791-1.34832-1.972065
				c-0.3357925-0.7510586-0.5032654-1.5559483-0.5032654-2.4150944c0-0.8852081,0.1674728-1.7165833,0.5032654-2.4949856
				c0.3349457-0.7779732,0.7848129-1.4491425,1.34832-2.0126495c0.5630798-0.563509,1.227417-1.0125198,1.9921417-1.3483181
				c0.76474-0.3349438,1.5760345-0.5028419,2.4347534-0.5028419c0.8856354,0,1.7170105,0.1678982,2.4954071,0.5028419
				c0.7779694,0.3357983,1.4555511,0.7848091,2.0327301,1.3483181c0.5767517,0.5635071,1.0394287,1.2346764,1.3884735,2.0126495
				C138.5653839,21.5547333,138.7405396,22.3861084,138.7405396,23.2713165z M137.3721466,35.3057747v41.2941475h-9.9816437
				V35.3057747H137.3721466z"/>
			<path class="st1" d="M161.6811676,77.2437439c-3.5955048,0-6.3528137-1.0125198-8.2706146-3.038414
				c-1.9186707-2.0258942-2.8777771-4.8229218-2.8777771-8.3919525V42.7514267h-4.2261047
				c-0.5370178,0-0.9928589-0.174305-1.3683929-0.5233459c-0.3759613-0.3481903-0.5635071-0.8715363-0.5635071-1.569622v-3.9441261
				l6.6407623-1.0868568l2.0929718-11.2693024c0.13414-0.5365925,0.3887634-0.952282,0.7647247-1.2474937
				c0.3755341-0.2952099,0.8582916-0.4430294,1.4491425-0.4430294h5.1514587v12.9999828h11.0274963v7.0837936h-11.0274963
				v22.3779678c0,1.2876511,0.3152924,2.2941895,0.9458771,3.0183334c0.6297302,0.7245712,1.495285,1.0868607,2.5958099,1.0868607
				c0.6169128,0,1.1329956-0.0734863,1.5499725-0.2213058c0.4152527-0.1473923,0.7775421-0.3020477,1.0859985-0.4631042
				c0.3084564-0.1606369,0.5835876-0.3148651,0.8253937-0.4626846c0.241806-0.146965,0.4827576-0.2213058,0.7245636-0.2213058
				c0.2947845,0,0.5366058,0.0743408,0.7245789,0.2213058c0.1871185,0.1478195,0.3887787,0.3691177,0.603241,0.6639023
				l2.9786072,4.8297653c-1.4491425,1.207756-3.1127625,2.1203079-4.9908295,2.7372208
				C165.6389618,76.9352875,163.6933899,77.2437439,161.6811676,77.2437439z"/>
			<path class="st1" d="M177.2970428,41.0609055c4.7490234-4.3465729,10.4644165-6.5198593,17.14534-6.5198593
				c2.4155121,0,4.574707,0.3960342,6.4801178,1.1872559c1.905426,0.7916451,3.5151978,1.8917427,4.8302002,3.3003006
				c1.3141327,1.4085541,2.3138428,3.0926704,2.9982452,5.0510635c0.6844177,1.9588203,1.0261993,4.1051903,1.0261993,6.4395409
				v26.0807152h-4.5080719c-0.9390411,0-1.6636047-0.1409836-2.1728516-0.4225235
				c-0.5101166-0.2819672-0.9125519-0.8514557-1.2073364-1.7106018l-0.8860626-2.9781799
				c-1.0458374,0.9394684-2.0660553,1.7644348-3.0580597,2.4749069c-0.9937286,0.7113266-2.0267487,1.3081589-3.0990906,1.7913513
				c-1.0740356,0.4827576-2.2207031,0.8514557-3.4417114,1.1065063s-2.5693207,0.3823624-4.0449524,0.3823624
				c-1.743927,0-3.3545532-0.2349701-4.8293304-0.7040634c-1.4764862-0.4690933-2.7513275-1.173584-3.8236542-2.1130447
				c-1.0740356-0.9390411-1.9054108-2.1062164-2.4958344-3.5015259c-0.5904236-1.3948822-0.8852081-3.0187607-0.8852081-4.8699188
				c0-1.0466995,0.1743011-2.086132,0.5229187-3.1195869c0.3486176-1.0326004,0.9193878-2.018631,1.7106018-2.9580956
				c0.791214-0.9390373,1.8174133-1.8242455,3.079422-2.6564751c1.2611694-0.8313789,2.8102875-1.5555229,4.6481934-2.1732864
				c1.8379211-0.6169128,3.9783173-1.1197548,6.4194641-1.5093803c2.4420166-0.3883476,5.2326355-0.6237488,8.3718719-0.7040672
				V50.519207c0-2.7632828-0.5904236-4.8096848-1.7712708-6.1379204c-1.1808472-1.3278122-2.884613-1.9921455-5.1112976-1.9921455
				c-1.6097717,0-2.9444275,0.1879807-4.0047913,0.5635071c-1.0595093,0.3759575-1.9917145,0.7989082-2.7966003,1.2680016
				c-0.8049011,0.4695168-1.5363007,0.8920441-2.1933746,1.2675705c-0.6579285,0.3759575-1.389328,0.5635109-2.1942139,0.5635109
				c-0.6980896,0-1.2876587-0.1811447-1.7704163-0.5434303s-0.8723907-0.7848091-1.1671753-1.2675705L177.2970428,41.0609055z
				 M200.0774536,58.9713974c-2.8717957,0.1345749-5.2864685,0.3823624-7.2448578,0.744648s-3.5280151,0.8249702-4.708847,1.3884773
				c-1.1808472,0.5635071-2.0258942,1.2214317-2.5351563,1.972065c-0.5101013,0.7514839-0.7647247,1.569622-0.7647247,2.4552498
				c0,1.7443542,0.5160828,2.9922791,1.549118,3.7429123c1.03302,0.7514801,2.3813324,1.1270142,4.0449524,1.1270142
				c2.0387115,0,3.8031311-0.3686981,5.2924347-1.1069412c1.4893036-0.7373886,2.9444275-1.8575668,4.3670807-3.3605347V58.9713974z
				"/>
			<path class="st1" d="M229.578949,16.7916164v59.8083038h-9.9414978V16.7916164H229.578949z"/>
		</g>
	</g>
	<g>
		<g>
			<path class="st2" d="M292.4937439,76.7271729h-6.0289001c-0.6975403,0-1.2599487-0.1738281-1.6883545-0.5225983
				c-0.4289551-0.3476486-0.7502441-0.7906189-0.964447-1.3266678L278.4263,60.971962h-25.8443146l-5.3857422,13.9059448
				c-0.1603699,0.4822235-0.4687653,0.9117355-0.9240723,1.2863007c-0.4558716,0.375679-1.0188446,0.5629654-1.6883392,0.5629654
				h-6.0289001l23.0305786-57.596405h7.8776245L292.4937439,76.7271729z M276.2557373,55.3445396l-9.0433655-23.4315186
				c-0.2680054-0.6975403-0.5494995-1.507225-0.8438721-2.4324188c-0.2955017-0.9240723-0.5769958-1.9098244-0.8444519-2.9538918
				c-0.5624084,2.1700001-1.1388245,3.9788933-1.7281494,5.4255619l-9.0433502,23.3922672H276.2557373z"/>
			<path class="st2" d="M324.3658142,43.2463646c-0.2147522,0.2960625-0.4289551,0.5225945-0.643158,0.6840858
				c-0.2147522,0.1603661-0.5091248,0.2399864-0.8842468,0.2399864c-0.4014893,0-0.8439026-0.1659737-1.3261108-0.5024071
				c-0.4822083-0.3341904-1.0788269-0.7020264-1.7886963-1.1046257c-0.7098999-0.4025993-1.5812378-0.7704353-2.6124268-1.1046257
				c-1.0317383-0.3353119-2.2978516-0.5024071-3.7983398-0.5024071c-2.0096436,0-3.7781677,0.3543777-5.3049927,1.0642548
				c-1.5274353,0.7098732-2.8075562,1.7348785-3.8387146,3.0750046c-1.0317383,1.3401299-1.8088989,2.9617424-2.3309326,4.8637199
				c-0.5226135,1.9019737-0.783905,4.0327225-0.783905,6.3900032c0,2.4649429,0.2814941,4.65625,0.8439026,6.571682
				c0.5629578,1.9154282,1.3597412,3.5235901,2.3914795,4.8233414c1.0311584,1.2997589,2.2770996,2.2911224,3.737793,2.9740829
				c1.4601135,0.6829605,3.1013489,1.0250015,4.9237061,1.0250015c1.7416077,0,3.1753845-0.2074661,4.3007507-0.622406
				c1.1253662-0.4160538,2.0561829-0.8780899,2.7935181-1.3872299c0.7362366-0.5091324,1.352478-0.9711685,1.8487244-1.3872299
				c0.4956665-0.4149323,0.9846191-0.6223984,1.4668274-0.6223984c0.589325,0,1.0451965,0.2276535,1.3664856,0.6829605
				l2.0096436,2.6129684c-0.8842773,1.0990219-1.8890686,2.0365524-3.0144653,2.8125916
				c-1.1253662,0.7782822-2.3376465,1.427597-3.6373901,1.9501953c-1.2997742,0.5214691-2.6595154,0.9038849-4.0792847,1.1449966
				c-1.4208679,0.2411118-2.8675232,0.3622284-4.3411255,0.3622284c-2.5456848,0-4.9102478-0.4698868-7.093689-1.4074173
				c-2.184021-0.9375305-4.079834-2.2967224-5.687439-4.0798264c-1.6075745-1.7808533-2.8675232-3.9721603-3.7781372-6.5705566
				c-0.9111938-2.5983925-1.3664856-5.5601349-1.3664856-8.8829842c0-3.0279045,0.4222107-5.8270378,1.2661133-8.3996391
				c0.8438721-2.5725975,2.076355-4.7896996,3.6979675-6.6524239c1.6204834-1.8616028,3.617218-3.3161201,5.9885254-4.3601875
				c2.3713074-1.0451889,5.0975342-1.5677834,8.1792603-1.5677834c2.8670044,0,5.3919373,0.4620361,7.5759583,1.3861084
				s4.1201782,2.2305603,5.8079834,3.9183388L324.3658142,43.2463646z"/>
			<path class="st2" d="M332.0819397,41.7593269c2.2507324-2.170002,4.6758728-3.790493,7.2748108-4.8625946
				c2.5989685-1.0721054,5.4794006-1.6081543,8.6413269-1.6081543c2.2776489,0,4.3007507,0.3756828,6.0692749,1.1259308
				c1.7685242,0.7491264,3.2555542,1.7943153,4.4616699,3.1344452c1.2055664,1.3401299,2.1161804,2.9617424,2.7329712,4.8637161
				c0.6162415,1.9019737,0.9246216,3.9923515,0.9246216,6.2688904v26.0456123h-3.175354
				c-0.696991,0-1.2330322-0.113266-1.607605-0.342041c-0.3756714-0.226532-0.6700745-0.6762314-0.8842773-1.3457413
				l-0.8040771-3.8588943c-1.0720825,0.9924774-2.1167297,1.8694534-3.1349792,2.6320343
				c-1.0188599,0.7648239-2.0898438,1.4074173-3.21521,1.9300079c-1.1253662,0.5225983-2.3253174,0.9240723-3.5975952,1.2055588
				c-1.2728271,0.2814865-2.6864319,0.4216614-4.2402039,0.4216614c-1.5812378,0-3.0682678-0.2198029-4.4610901-0.6627731
				c-1.3939819-0.4418488-2.6062622-1.1046219-3.6380005-1.9894485c-1.0317078-0.884819-1.8486938-2.0029068-2.4514771-3.3564911
				c-0.6027832-1.3524628-0.9044495-2.9538879-0.9044495-4.8020325c0-1.6081619,0.4424133-3.1557541,1.3266907-4.6427956
				c0.8842468-1.4870377,2.3168945-2.8058586,4.3001709-3.9587059c1.9827271-1.1528511,4.5682373-2.0971069,7.7576294-2.8339005
				c3.1882629-0.7367897,7.099884-1.1584549,11.7359314-1.2661133v-3.1759377c0-3.1602364-0.6829529-5.5522842-2.0494385-7.1738968
				c-1.3670349-1.620491-3.3632202-2.4312973-5.9891052-2.4312973c-1.7685242,0-3.2493896,0.2209244-4.440918,0.6627731
				c-1.1926575,0.4418526-2.2243958,0.938652-3.0951843,1.4870415c-0.8708191,0.5495071-1.6216125,1.0451889-2.2507629,1.4870377
				c-0.6296692,0.4418488-1.252655,0.6638985-1.8688965,0.6638985c-0.4822083,0-0.8982544-0.1278458-1.2459106-0.3812943
				c-0.3487854-0.2556877-0.643158-0.5696945-0.8842773-0.9453773L332.0819397,41.7593269z M355.1927185,58.3993607
				c-3.295929,0.1076584-6.1029053,0.367836-8.4203796,0.7838898c-2.3180237,0.4160576-4.2071228,0.9588394-5.6672363,1.6272202
				c-1.4606934,0.6706276-2.5187683,1.4612465-3.1748047,2.3718605c-0.657196,0.9117393-0.985199,1.9288902-0.985199,3.054821
				c0,1.0709839,0.1743774,1.9961777,0.522583,2.7733383c0.3482056,0.7771683,0.8242798,1.4130249,1.4270325,1.9087067
				c0.6027832,0.4956818,1.3126831,0.8579102,2.1302185,1.0855637c0.8169556,0.2276535,1.6944885,0.3409195,2.6325684,0.3409195
				c1.2593994,0,2.4116821-0.1256027,3.4568787-0.3812943c1.0446167-0.25457,2.0292664-0.6235275,2.9538879-1.105751
				c0.9246216-0.4822159,1.8088989-1.057518,2.652771-1.7281494c0.8439026-0.6695023,1.6681519-1.4320831,2.4716797-2.2911148
				V58.3993607z"/>
			<path class="st2" d="M405.473938,17.5226116v59.2045593h-4.260376c-1.0188599,0-1.6619873-0.4956818-1.9294739-1.4870377
				l-0.6431274-4.9444656c-1.7421875,2.0903778-3.724884,3.7792816-5.9487305,5.0644608
				c-2.2243958,1.2874222-4.7964172,1.9300079-7.7166748,1.9300079c-2.3314819,0-4.4482117-0.4496994-6.350769-1.3468552
				c-1.9025269-0.8971634-3.5235596-2.2159805-4.8631287-3.9587097c-1.3401489-1.7416077-2.3713074-3.9116058-3.094635-6.5111237
				c-0.7233582-2.599514-1.0855713-5.5870514-1.0855713-8.9626045c0-3.0009956,0.4020386-5.7945213,1.2061157-8.3805771
				c0.8035278-2.5849342,1.9558105-4.8300743,3.4562988-6.732048s3.3424683-3.396862,5.5264893-4.4813004
				c2.184021-1.0855637,4.6422424-1.6283417,7.3757629-1.6283417c2.4918518,0,4.6282043,0.4216614,6.4107361,1.2661133
				c1.7814331,0.8444481,3.3688354,2.0163612,4.7627869,3.5168571V17.5226116H405.473938z M398.3196411,45.6978493
				c-1.3401184-1.7943153-2.7873535-3.0469704-4.341095-3.7568474c-1.5543518-0.7109985-3.2959595-1.0653763-5.224823-1.0653763
				c-3.7781677,0-6.6860962,1.3524666-8.7220764,4.059639c-2.0365295,2.7060547-3.0542603,6.5649529-3.0542603,11.5755806
				c0,2.6522217,0.2271118,4.9231529,0.6829834,6.8116684c0.4552917,1.889637,1.1253662,3.4439659,2.009613,4.6629753
				c0.8842773,1.2201385,1.9692688,2.1105652,3.2555542,2.6724091c1.2863159,0.5629654,2.7464294,0.8444519,4.3809509,0.8444519
				c2.3578491,0,4.4145813-0.5360489,6.1696472-1.6081543c1.7550659-1.0709839,3.3693848-2.5860596,4.8435059-4.5418625V45.6978493z
				"/>
			<path class="st2" d="M448.5599365,71.0201263c-0.8848267,1.0721054-1.9429016,2.0029068-3.1753845,2.7924042
				c-1.2324829,0.7917404-2.5524292,1.4410629-3.9587097,1.9501953c-1.4068604,0.50914-2.8608093,0.8915482-4.3612976,1.1449966
				c-1.5005188,0.25457-2.9880981,0.3824158-4.4611206,0.3824158c-2.8137207,0-5.4059448-0.4766159-7.7772522-1.4276047
				c-2.3712769-0.9509888-4.4212952-2.3438187-6.1494446-4.1796341c-1.7281494-1.8346863-3.0750122-4.1056137-4.0394592-6.8127899
				c-0.964447-2.7060509-1.4472351-5.8135796-1.4472351-9.3237114c0-2.8406258,0.4356995-5.4928474,1.306488-7.9589119
				c0.8702393-2.4649391,2.1234741-4.6012955,3.7579651-6.4113121c1.6339722-1.8077736,3.6307068-3.2275238,5.9885559-4.2592545
				c2.3578186-1.0317345,5.0106201-1.5475998,7.9583435-1.5475998c2.4380188,0,4.6954956,0.4082069,6.7723999,1.2257423
				c2.0763855,0.8175354,3.8717957,1.9961777,5.3857727,3.535923c1.5133972,1.5419922,2.698761,3.4439659,3.5577698,5.708168
				c0.856781,2.2653236,1.2851868,4.8424072,1.2851868,7.7368622c0,1.1248131-0.1199951,1.8761826-0.3611145,2.2507439
				c-0.2410889,0.3756866-0.6975403,0.5629692-1.3670349,0.5629692h-27.2102356
				c0.0802002,2.5725975,0.4351196,4.8098869,1.0653687,6.7118607c0.6291504,1.9030952,1.5072327,3.4910622,2.6325989,4.7627831
				c1.1253662,1.2739639,2.4649353,2.2249527,4.0192871,2.8540878c1.5537415,0.6291275,3.2953491,0.9442596,5.224823,0.9442596
				c1.7948608,0,3.3424683-0.2074738,4.6422119-0.622406c1.2991943-0.4149399,2.4178467-0.8646393,3.3559265-1.3468552
				c0.9381104-0.4822235,1.7214355-0.9308014,2.3516846-1.3468628c0.6291199-0.4149323,1.1719055-0.6223984,1.6277771-0.6223984
				c0.5887756,0,1.0446167,0.2276535,1.3664856,0.6829605L448.5599365,71.0201263z M442.7721252,51.9286118
				c0-1.6619873-0.2349243-3.1815491-0.703125-4.5620499c-0.4693298-1.3793793-1.1528625-2.5725975-2.0500183-3.5774155
				c-0.8982849-1.004818-1.9894409-1.7808571-3.2757568-2.330368c-1.2862854-0.5495071-2.7469788-0.825386-4.3809204-0.825386
				c-3.4305115,0-6.14328,0.9992104-8.138916,2.995388c-1.9967346,1.9961739-3.2359314,4.7627869-3.7181396,8.2998314H442.7721252z"
				/>
			<path class="st2" d="M456.6780701,76.7271729V36.0119095h4.3018799c1.0171509,0,1.6473999,0.4968033,1.8885193,1.4870415
				l0.522583,4.1796303c1.5005188-1.8481445,3.1882935-3.3620987,5.0644836-4.5418587
				c1.8750305-1.1775208,4.0450439-1.7674026,6.5111084-1.7674026c2.7329712,0,4.9500732,0.7625847,6.6513062,2.2899971
				c1.7012329,1.5274086,2.9281006,3.5908737,3.6772156,6.1903877c0.5898743-1.4735832,1.3468628-2.7464256,2.2720642-3.8185272
				c0.9240723-1.0709839,1.9613953-1.9558029,3.1142578-2.6522217c1.1517334-0.6975403,2.3774719-1.2066803,3.6772156-1.5274124
				c1.2997742-0.3218536,2.6197205-0.4822235,3.9598389-0.4822235c2.1430969,0,4.0517883,0.3409195,5.7272339,1.0250053
				c1.6743164,0.6829605,3.0951843,1.6810493,4.260376,2.9942627c1.1651917,1.3120918,2.055603,2.9269753,2.6723938,4.8424072
				c0.6167908,1.9165535,0.9252014,4.1067429,0.9252014,6.571682v25.9244957h-7.1951904V50.8026772
				c0-3.1882744-0.6964417-5.607235-2.0892639-7.2546425c-1.3939514-1.6474037-3.403595-2.4716682-6.0289001-2.4716682
				c-1.1797791,0-2.2978516,0.2074661-3.3565063,0.6224022c-1.0586243,0.4160576-1.9894409,1.0250015-2.7935181,1.8290825
				c-0.8040771,0.8040771-1.4410706,1.8156204-1.9086914,3.0346336c-0.4698792,1.2190132-0.7042847,2.6320381-0.7042847,4.2401924
				v25.9244957h-7.1940613V50.8026772c0-3.2678986-0.6560669-5.7070465-1.9692688-7.3140793
				c-1.3132324-1.6081543-3.2286682-2.4122314-5.7474365-2.4122314c-1.7685242,0-3.4035645,0.4766159-4.9029541,1.4264793
				c-1.5016174,0.9521103-2.8821106,2.2440147-4.1403809,3.8790855v30.3452415H456.6780701z"/>
			<path class="st2" d="M555.6334839,36.0119095l-22.7093506,52.7326889
				c-0.2410889,0.5360565-0.5427856,0.9655685-0.9038696,1.2863007c-0.3622437,0.3218536-0.918457,0.4822235-1.6687012,0.4822235
				h-5.305603l7.4363403-16.157814l-16.800415-38.343399h6.18927c0.6157227,0,1.1057739,0.1547623,1.4668579,0.4620361
				c0.3622437,0.3083992,0.6089478,0.6504402,0.7435303,1.0250053l10.8926392,25.6430092
				c0.4283447,1.1248093,0.7894897,2.3045731,1.0855103,3.5370483c0.3745728-1.2593918,0.776062-2.4514847,1.2055664-3.5774193
				l10.5708008-25.6026382c0.1603394-0.4283943,0.4351196-0.7838936,0.8231201-1.0642548
				c0.3880005-0.2826042,0.8242798-0.4227867,1.3064575-0.4227867H555.6334839z"/>
		</g>
	</g>
</g>
<g>
	<path class="st2" d="M24.7325153,152.7719879v-28.0915451h8.9584026c1.7256851,0,3.2119293,0.1689148,4.4604836,0.5084763
		c1.2476807,0.3413086,2.2733383,0.8236618,3.0778427,1.4505463c0.8036385,0.6286316,1.3983116,1.3965759,1.7840195,2.3038177
		c0.3848419,0.9089813,0.5781326,1.9311676,0.5781326,3.0682678c0,0.6930542-0.1079674,1.3600006-0.3238945,1.9990692
		c-0.2150574,0.6408234-0.5424309,1.2363739-0.980381,1.7848969c-0.4379539,0.5485229-0.9864807,1.0378418-1.6464539,1.469696
		s-1.4340057,0.7836151-2.3229675,1.0587463c2.0513153,0.4057465,3.6002541,1.1440735,4.6459351,2.2150116
		c1.0456848,1.0726776,1.5680923,2.4831696,1.5680923,4.2349701c0,1.1893463-0.2185402,2.2742157-0.6564903,3.2545929
		c-0.4379501,0.9803925-1.0778999,1.8231964-1.9207153,2.5284576c-0.8428154,0.705246-1.8754387,1.2520294-3.0978737,1.6368713
		c-1.2215576,0.3848419-2.6172562,0.578125-4.1853447,0.578125H24.7325153z M28.535635,137.265213h5.0185871
		c1.0709343,0,1.9990768-0.1166687,2.7835579-0.3534851c0.784481-0.2350922,1.4340057-0.5607147,1.9503174-0.978653
		c0.5163116-0.4196625,0.8985405-0.9246521,1.1466827-1.5202026c0.2481422-0.5937958,0.3726501-1.2450562,0.3726501-1.9503174
		c0-1.6473236-0.4962883-2.8558197-1.4897308-3.627243c-0.9934425-0.7714081-2.5354118-1.1562576-4.6267815-1.1562576h-5.155283
		V137.265213z M28.535635,139.971283v9.781189h6.0773296c1.0839958,0,2.0156212-0.1236267,2.7931366-0.3726501
		c0.7775154-0.2472687,1.4183311-0.5972748,1.9215851-1.0482941c0.5023804-0.451004,0.8724174-0.9855957,1.107502-1.6072693
		c0.2350845-0.6199188,0.352623-1.3042755,0.352623-2.0478363c0-1.4522858-0.5128288-2.5980988-1.5384865-3.440918
		c-1.0265274-0.842804-2.5780754-1.2642212-4.6563835-1.2642212H28.535635z"/>
	<path class="st2" d="M49.550312,152.7719879v-19.8584137h1.9999466c0.378746,0,0.6399498,0.0713959,0.7836113,0.2159271
		c0.1436615,0.1427917,0.2420464,0.3917999,0.2942886,0.7435608l0.2350845,3.0978699
		c0.6799965-1.3843842,1.5193329-2.4657593,2.5197411-3.2441406c0.9995384-0.7766571,2.1723404-1.1667175,3.5184059-1.1667175
		c0.5494003,0,1.0456848,0.0626984,1.4897308,0.1863251c0.4449158,0.1253815,0.8558769,0.2977753,1.2354927,0.5189209
		l-0.4510117,2.608551c-0.091423,0.3256378-0.2942886,0.4893188-0.6077347,0.4893188
		c-0.1828423,0-0.4640694-0.0609436-0.8428154-0.1863251c-0.3796158-0.1236267-0.9089851-0.1863251-1.5881157-0.1863251
		c-1.2154655,0-2.2315483,0.3535004-3.0482407,1.0587463c-0.8166962,0.7070007-1.5001793,1.7326508-2.0487061,3.0787201v12.6439819
		H49.550312z"/>
	<path class="st2" d="M70.0164642,126.6795197c0,0.3395615-0.0687866,0.6564865-0.2054825,0.9507828
		c-0.1375656,0.2942886-0.3204041,0.5554886-0.5493927,0.7836075c-0.2289886,0.2298584-0.4936752,0.4092102-0.7940598,0.5398254
		c-0.3003845,0.1306-0.6207962,0.1950226-0.9603577,0.1950226c-0.3404388,0-0.6564941-0.0644226-0.9507828-0.1950226
		c-0.2942886-0.1306152-0.5554886-0.309967-0.7844772-0.5398254c-0.2281189-0.2281189-0.4083481-0.4893188-0.5389481-0.7836075
		c-0.1306076-0.2942963-0.1959076-0.6112213-0.1959076-0.9507828s0.0653-0.6634598,0.1959076-0.9699326
		c0.1306-0.3082199,0.3108292-0.5763931,0.5389481-0.804512c0.2289886-0.2281113,0.4901886-0.4074783,0.7844772-0.5398178
		c0.2942886-0.1306,0.6103439-0.1950302,0.9507828-0.1950302c0.3395615,0,0.6599731,0.0644302,0.9603577,0.1950302
		c0.3003845,0.1323395,0.5650711,0.3117065,0.7940598,0.5398178c0.2289886,0.2281189,0.4118271,0.4962921,0.5493927,0.804512
		C69.9476776,126.0160599,70.0164642,126.3399582,70.0164642,126.6795197z M69.2319794,132.9135742v19.8584137h-3.4888v-19.8584137
		H69.2319794z"/>
	<path class="st2" d="M75.3876724,152.7719879v-19.8584137h2.0783081c0.4962845,0,0.8097305,0.2420502,0.9412079,0.7243958
		l0.2742615,2.157547c0.8628387-0.9542694,1.8258057-1.7256927,2.8915176-2.31427
		c1.0648422-0.5868378,2.2968521-0.8811188,3.6951599-0.8811188c1.0848618,0,2.0417404,0.1793518,2.8723602,0.5380707
		c0.8297577,0.3604736,1.5219498,0.8706818,2.0774384,1.5289154c0.5554962,0.6599731,0.9769058,1.4540405,1.2650986,2.3821716
		c0.287323,0.9281464,0.4309845,1.9538116,0.4309845,3.0787201v12.6439819h-3.4896774V140.128006
		c0-1.5027924-0.3430481-2.6694946-1.0291443-3.5001221c-0.6860886-0.8288879-1.73526-1.2450714-3.1466293-1.2450714
		c-1.0326233,0-1.99646,0.2490082-2.8915176,0.7453003s-1.7221985,1.1701965-2.4796906,2.0199738v14.6239014H75.3876724z"/>
	<path class="st2" d="M103.8727646,132.5792236c0.8619766,0,1.6682205,0.0957794,2.4204865,0.2855835
		c0.7505264,0.1898193,1.433136,0.4666901,2.0478363,0.8323669h5.3912354v1.2938385
		c0,0.4318542-0.2733917,0.705246-0.8236618,0.8236542l-2.2533112,0.313446
		c0.4440384,0.8497772,0.6669388,1.7970734,0.6669388,2.8436279c0,0.9664612-0.1863251,1.8458405-0.5589752,2.6364136
		s-0.8898392,1.4662323-1.5498123,2.0286865s-1.4435806,0.992569-2.3525696,1.2938232
		c-0.9072418,0.3012543-1.9050446,0.4510193-2.9881668,0.4510193c-0.9281387,0-1.804039-0.1114502-2.6277008-0.3343506
		c-0.4179306,0.2716522-0.7348557,0.5624542-0.9507828,0.8724213s-0.3238907,0.6147003-0.3238907,0.9124756
		c0,0.4858398,0.1898041,0.8532562,0.5694199,1.1040192c0.3778763,0.2507477,0.8811264,0.4283752,1.509758,0.5380707
		c0.6268845,0.1079712,1.3391037,0.1619568,2.1366425,0.1619568c0.7957993,0,1.6107559,0,2.4396362,0
		c0.8306274,0,1.6438446,0.0713959,2.4413834,0.2176666s1.509758,0.3830872,2.1366425,0.7139587
		c0.6268845,0.3308563,1.1301422,0.7870789,1.509758,1.3704376c0.3778687,0.5816193,0.5676804,1.3356171,0.5676804,2.2620239
		c0,0.85849-0.2124481,1.6925964-0.6373367,2.5005798c-0.4248886,0.8062592-1.0343628,1.5236969-1.8319092,2.1523132
		c-0.7975388,0.6286316-1.7709579,1.1318817-2.9219894,1.5080261c-1.1492996,0.3778687-2.4500885,0.5659332-3.9006348,0.5659332
		c-1.4505539,0-2.7217407-0.1445313-3.8135757-0.4318542c-1.0900879-0.287323-1.9955902-0.6739044-2.7147675-1.1580048
		c-0.7191849-0.4841003-1.2572632-1.0430603-1.6177216-1.6769257c-0.3587189-0.6355896-0.5380783-1.2990417-0.5380783-1.9921112
		c0-0.9821167,0.3099594-1.8162231,0.9316254-2.5023193c0.6199188-0.6860962,1.4731827-1.2328796,2.5580521-1.6386261
		c-0.5624619-0.2612-1.0099869-0.6094666-1.3425827-1.0465546c-0.334343-0.4370728-0.4997711-1.022171-0.4997711-1.7518005
		c0-0.287323,0.050499-0.5850983,0.156723-0.891571c0.1044769-0.3064728,0.2646866-0.6094666,0.4788666-0.9089813
		c0.2159348-0.3012543,0.4806213-0.5885773,0.7940598-0.861969c0.313446-0.273407,0.6808701-0.5154419,1.0988007-0.724411
		c-0.9803848-0.5485229-1.7483215-1.276413-2.3038177-2.1853943c-0.5554886-0.9089966-0.8323669-1.9712219-0.8323669-3.1849518
		c0-0.9681854,0.1863251-1.8458252,0.5572357-2.6381531c0.3726501-0.7905731,0.8933105-1.462738,1.5585098-2.018219
		c0.6669388-0.5554962,1.4609985-0.9838715,2.3821793-1.2851257
		C101.7639847,132.7307281,102.7739716,132.5792236,103.8727646,132.5792236z M110.0667648,153.7802277
		c0-0.5067291-0.1375656-0.9141998-0.4109573-1.2206879c-0.2751312-0.3064728-0.6477814-0.5433044-1.1179504-0.708725
		c-0.4701691-0.1671753-1.0134659-0.290802-1.6264267-0.3709106c-0.6147003-0.0801086-1.2624817-0.1201477-1.9416122-0.1201477
		c-0.6791229,0-1.3721848,0-2.0774384,0c-0.7069855,0-1.3791504-0.0870819-2.0199661-0.2646942
		c-0.7453003,0.3535004-1.349556,0.7870941-1.8127518,1.2973175c-0.4649429,0.5102081-0.6965408,1.1179504-0.6965408,1.8249359
		c0,0.4457855,0.1149292,0.8602295,0.3430405,1.2468109c0.2281189,0.3865814,0.5781326,0.7209167,1.0483017,1.0012817
		c0.4719086,0.2820892,1.0622253,0.5049896,1.774437,0.6686707c0.7122192,0.1619568,1.5515518,0.2455292,2.5197449,0.2455292
		c0.9403305,0,1.7831497-0.0870667,2.52845-0.2612c0.7453003-0.1723938,1.3756638-0.4196625,1.8928528-0.738327
		c0.5154419-0.3204193,0.9107285-0.701767,1.1858597-1.1405945
		C109.9291992,154.7989197,110.0667648,154.3130951,110.0667648,153.7802277z M103.8727646,143.0674133
		c0.7052536,0,1.3286591-0.0975189,1.8719559-0.2925415c0.5415649-0.1967773,0.9960556-0.4719086,1.3617401-0.8236694
		c0.3656845-0.3534851,0.6408234-0.7749023,0.8236618-1.2642212c0.1828461-0.4910583,0.2751389-1.0291443,0.2751389-1.6177216
		c0-1.2154694-0.3709106-2.1836548-1.1092453-2.9010925c-0.7383347-0.7191772-1.8127518-1.0796356-3.2232513-1.0796356
		c-1.4000473,0-2.4674988,0.3604584-3.2058334,1.0796356c-0.7383347,0.7174377-1.1075058,1.6856232-1.1075058,2.9010925
		c0,0.5885773,0.0940399,1.1266632,0.283844,1.6177216c0.1898117,0.4893188,0.4666824,0.9107361,0.8341064,1.2642212
		c0.3656845,0.3517609,0.8149567,0.6268921,1.3512955,0.8236694
		C102.5650101,142.9698944,103.1797104,143.0674133,103.8727646,143.0674133z"/>
	<path class="st2" d="M149.6860809,138.7349243c0,2.1053009-0.3325958,4.019043-0.999527,5.7447357
		c-0.6669464,1.7256775-1.6072693,3.2023468-2.8227386,4.4300079c-1.2154694,1.2293854-2.6729889,2.1801758-4.3725433,2.8523407
		c-1.6978302,0.6739044-3.5802307,1.0099792-5.6454773,1.0099792h-10.5073395v-28.0915451h10.5073395
		c2.0652466,0,3.9476471,0.3360825,5.6454773,1.0082474c1.6995544,0.6739044,3.157074,1.6281662,4.3725433,2.862793
		c1.2154694,1.2346191,2.1557922,2.7147675,2.8227386,4.4404449
		C149.3534851,134.7176208,149.6860809,136.6313629,149.6860809,138.7349243z M145.7854462,138.7349243
		c0-1.723938-0.2350769-3.2667847-0.7069855-4.6250458c-0.4701691-1.3600006-1.1353607-2.5092926-1.9990692-3.451355
		c-0.8619843-0.9403381-1.9085388-1.6595154-3.1361847-2.1558075c-1.2294006-0.4962769-2.5946198-0.7453003-4.0974121-0.7453003
		h-6.6850586v21.9375916h6.6850586c1.5027924,0,2.8680115-0.2490082,4.0974121-0.7453003
		c1.2276459-0.4962769,2.2742004-1.2119751,3.1361847-2.1470795c0.8637085-0.9351196,1.5289001-2.0809326,1.9990692-3.440918
		C145.5503693,142.0034485,145.7854462,140.4606018,145.7854462,138.7349243z"/>
	<path class="st2" d="M158.9779663,126.6795197c0,0.3395615-0.0679169,0.6564865-0.2054901,0.9507828
		c-0.137558,0.2942886-0.3204041,0.5554886-0.5485229,0.7836075c-0.2298584,0.2298584-0.4945526,0.4092102-0.7940521,0.5398254
		c-0.3012543,0.1306-0.6216736,0.1950226-0.9612274,0.1950226c-0.3395691,0-0.6564941-0.0644226-0.9507904-0.1950226
		c-0.294281-0.1306152-0.5554962-0.309967-0.7835999-0.5398254c-0.2298737-0.2281189-0.4092255-0.4893188-0.5398254-0.7836075
		c-0.1306-0.2942963-0.1950378-0.6112213-0.1950378-0.9507828s0.0644379-0.6634598,0.1950378-0.9699326
		c0.1306-0.3082199,0.3099518-0.5763931,0.5398254-0.804512c0.2281036-0.2281113,0.4893188-0.4074783,0.7835999-0.5398178
		c0.2942963-0.1306,0.6112213-0.1950302,0.9507904-0.1950302c0.3395538,0,0.6599731,0.0644302,0.9612274,0.1950302
		c0.2994995,0.1323395,0.5641937,0.3117065,0.7940521,0.5398178c0.2281189,0.2281189,0.410965,0.4962921,0.5485229,0.804512
		C158.9100494,126.0160599,158.9779663,126.3399582,158.9779663,126.6795197z M158.1943512,132.9135742v19.8584137h-3.4896851
		v-19.8584137H158.1943512z"/>
	<path class="st2" d="M171.0359802,132.5792236c0.861969,0,1.6682129,0.0957794,2.4204865,0.2855835
		c0.7505188,0.1898193,1.4331207,0.4666901,2.047821,0.8323669h5.3912354v1.2938385
		c0,0.4318542-0.2733917,0.705246-0.8236542,0.8236542l-2.2533112,0.313446
		c0.444046,0.8497772,0.6669312,1.7970734,0.6669312,2.8436279c0,0.9664612-0.1863251,1.8458405-0.5589752,2.6364136
		s-0.8898315,1.4662323-1.5498047,2.0286865s-1.443573,0.992569-2.3525696,1.2938232
		c-0.9072418,0.3012543-1.9050446,0.4510193-2.9881592,0.4510193c-0.9281464,0-1.8040466-0.1114502-2.6277161-0.3343506
		c-0.417923,0.2716522-0.734848,0.5624542-0.9507751,0.8724213s-0.3238983,0.6147003-0.3238983,0.9124756
		c0,0.4858398,0.1898193,0.8532562,0.5694275,1.1040192c0.3778839,0.2507477,0.881134,0.4283752,1.5097504,0.5380707
		c0.6268921,0.1079712,1.3391113,0.1619568,2.1366577,0.1619568c0.7957916,0,1.6107483,0,2.4396362,0
		c0.8306274,0,1.6438293,0.0713959,2.4413757,0.2176666s1.5097504,0.3830872,2.1366425,0.7139587
		c0.6268921,0.3308563,1.1301422,0.7870789,1.5097504,1.3704376c0.3778839,0.5816193,0.567688,1.3356171,0.567688,2.2620239
		c0,0.85849-0.2124481,1.6925964-0.6373291,2.5005798c-0.4248962,0.8062592-1.0343781,1.5236969-1.8319092,2.1523132
		c-0.7975464,0.6286316-1.7709656,1.1318817-2.9219971,1.5080261c-1.149292,0.3778687-2.4500885,0.5659332-3.9006348,0.5659332
		s-2.7217407-0.1445313-3.8135681-0.4318542c-1.0900879-0.287323-1.99646-0.6739044-2.7156525-1.1580048
		c-0.7191772-0.4841003-1.2572479-1.0430603-1.6177063-1.6769257c-0.3587341-0.6355896-0.5380859-1.2990417-0.5380859-1.9921112
		c0-0.9821167,0.309967-1.8162231,0.9316254-2.5023193c0.6199188-0.6860962,1.4731903-1.2328796,2.5589142-1.6386261
		c-0.563324-0.2612-1.010849-0.6094666-1.3434448-1.0465546c-0.3343506-0.4370728-0.4997711-1.022171-0.4997711-1.7518005
		c0-0.287323,0.0504913-0.5850983,0.156723-0.891571c0.1044769-0.3064728,0.264679-0.6094666,0.4788666-0.9089813
		c0.2159271-0.3012543,0.4806213-0.5885773,0.7940674-0.861969c0.3143158-0.273407,0.6817322-0.5154419,1.0996552-0.724411
		c-0.9812469-0.5485229-1.7491913-1.276413-2.3046722-2.1853943c-0.5554962-0.9089966-0.8323822-1.9712219-0.8323822-3.1849518
		c0-0.9681854,0.1863251-1.8458252,0.5572357-2.6381531c0.3726501-0.7905731,0.8933258-1.462738,1.5585175-2.018219
		c0.6678162-0.5554962,1.4618683-0.9838715,2.3830414-1.2851257
		C168.9272003,132.7307281,169.9371796,132.5792236,171.0359802,132.5792236z M177.2299805,153.7802277
		c0-0.5067291-0.1375732-0.9141998-0.410965-1.2206879c-0.2751312-0.3064728-0.6477814-0.5433044-1.1179504-0.708725
		c-0.4701691-0.1671753-1.0134735-0.290802-1.6264191-0.3709106c-0.6147003-0.0801086-1.2624817-0.1201477-1.9416199-0.1201477
		c-0.6791229,0-1.3721924,0-2.0774384,0c-0.7069855,0-1.3791504-0.0870819-2.0199738-0.2646942
		c-0.7453003,0.3535004-1.3495483,0.7870941-1.8127441,1.2973175c-0.4649506,0.5102081-0.6974182,1.1179504-0.6974182,1.8249359
		c0,0.4457855,0.1149292,0.8602295,0.3439178,1.2468109c0.2281189,0.3865814,0.5781403,0.7209167,1.0482941,1.0012817
		c0.4719086,0.2820892,1.0622253,0.5049896,1.7744446,0.6686707c0.7122192,0.1619568,1.5515442,0.2455292,2.5197449,0.2455292
		c0.9403381,0,1.7831421-0.0870667,2.5284424-0.2612c0.7453003-0.1723938,1.3756714-0.4196625,1.8928528-0.738327
		c0.5154419-0.3204193,0.9107361-0.701767,1.1858673-1.1405945
		C177.0924072,154.7989197,177.2299805,154.3130951,177.2299805,153.7802277z M171.0359802,143.0674133
		c0.705246,0,1.3286438-0.0975189,1.8719482-0.2925415c0.5415649-0.1967773,0.9960632-0.4719086,1.3617401-0.8236694
		c0.3656921-0.3534851,0.6408234-0.7749023,0.8236694-1.2642212c0.1828308-0.4910583,0.2751312-1.0291443,0.2751312-1.6177216
		c0-1.2154694-0.3709106-2.1836548-1.1092529-2.9010925c-0.738327-0.7191772-1.8127441-1.0796356-3.2232361-1.0796356
		c-1.4000549,0-2.4674988,0.3604584-3.2058411,1.0796356c-0.738327,0.7174377-1.1074982,1.6856232-1.1074982,2.9010925
		c0,0.5885773,0.0940247,1.1266632,0.283844,1.6177216c0.1898041,0.4893188,0.4666748,0.9107361,0.8341064,1.2642212
		c0.3656769,0.3517609,0.8149567,0.6268921,1.3512878,0.8236694
		C169.7282104,142.9698944,170.3429108,143.0674133,171.0359802,143.0674133z"/>
	<path class="st2" d="M189.050293,126.6795197c0,0.3395615-0.0679016,0.6564865-0.2054749,0.9507828
		c-0.1375732,0.2942886-0.3204041,0.5554886-0.5485229,0.7836075c-0.2298584,0.2298584-0.4945526,0.4092102-0.7940674,0.5398254
		c-0.3012543,0.1306-0.6216583,0.1950226-0.9612274,0.1950226c-0.3395538,0-0.6564941-0.0644226-0.9507751-0.1950226
		c-0.2942963-0.1306152-0.5554962-0.309967-0.7836151-0.5398254c-0.2298584-0.2281189-0.4092102-0.4893188-0.5398102-0.7836075
		c-0.1306152-0.2942963-0.1950378-0.6112213-0.1950378-0.9507828s0.0644226-0.6634598,0.1950378-0.9699326
		c0.1306-0.3082199,0.3099518-0.5763931,0.5398102-0.804512c0.2281189-0.2281113,0.4893188-0.4074783,0.7836151-0.5398178
		c0.294281-0.1306,0.6112213-0.1950302,0.9507751-0.1950302c0.3395691,0,0.6599731,0.0644302,0.9612274,0.1950302
		c0.2995148,0.1323395,0.564209,0.3117065,0.7940674,0.5398178c0.2281189,0.2281189,0.4109497,0.4962921,0.5485229,0.804512
		C188.9823914,126.0160599,189.050293,126.3399582,189.050293,126.6795197z M188.2666931,132.9135742v19.8584137h-3.4896851
		v-19.8584137H188.2666931z"/>
	<path class="st2" d="M200.440506,153.085434c-1.5689697,0-2.7739868-0.437088-3.6167908-1.3129883
		c-0.8428192-0.8759003-1.2642365-2.1366425-1.2642365-3.7839661v-12.1546478h-2.3926239
		c-0.2089539,0-0.3848267-0.0609589-0.5293732-0.1863251c-0.1427765-0.123642-0.2159271-0.3169403-0.2159271-0.5781403v-1.3913422
		l3.2545929-0.4127045l0.8045197-6.1347885c0.0261078-0.1967773,0.1096954-0.3569794,0.2542267-0.4806137
		s0.3273773-0.1863251,0.5485382-0.1863251h1.7639923v6.8417816h5.6855164v2.5284576h-5.6855164v11.9195709
		c0,0.8358459,0.2037354,1.4575195,0.6077271,1.8615112c0.4057312,0.4057312,0.9281464,0.6077271,1.5689545,0.6077271
		c0.3656921,0,0.6826172-0.0487518,0.9507904-0.1462708c0.268158-0.0975189,0.4997711-0.2054749,0.6965332-0.3238983
		c0.1950378-0.1166687,0.3622131-0.2246246,0.4997711-0.3221436c0.1375732-0.0992584,0.2577209-0.1480103,0.3621979-0.1480103
		c0.1828461,0,0.3465424,0.1114349,0.4910736,0.3325958l1.018692,1.6664734
		c-0.600769,0.5624542-1.3269196,1.0030212-2.1766968,1.3234253
		C202.2166901,152.9252319,201.3425293,153.085434,200.440506,153.085434z"/>
	<path class="st2" d="M223.630127,152.7719879h-1.5480652c-0.3395538,0-0.6146851-0.0522461-0.8236542-0.156723
		s-0.3465271-0.3273773-0.410965-0.6669312l-0.3917999-1.8423615c-0.5241547,0.4701691-1.0326233,0.891571-1.5289154,1.2642212
		c-0.4980164,0.3726501-1.0204315,0.6860962-1.5689545,0.9403381c-0.5485229,0.2559814-1.1336212,0.4492645-1.7552948,0.5798645
		c-0.6199188,0.1288605-1.309494,0.1950378-2.0669861,0.1950378c-0.7714233,0-1.4940796-0.1079712-2.1662445-0.3238983
		c-0.6739044-0.2159271-1.2590027-0.5415497-1.7552795-0.9734192c-0.4962921-0.4335938-0.891571-0.9803772-1.1858673-1.6438293
		c-0.2942963-0.6617126-0.440567-1.4453278-0.440567-2.3508301c0-0.7853546,0.2159271-1.5428467,0.6460419-2.2707367
		c0.4318542-0.7278748,1.1284027-1.3739166,2.0878906-1.9381256c0.9612274-0.5641937,2.2184906-1.02565,3.7735138-1.3878632
		c1.5550385-0.3604584,3.4565887-0.5398102,5.7046814-0.5398102v-1.5585175c0-1.5515442-0.3291168-2.7252197-0.98909-3.5210266
		c-0.6599731-0.7957916-1.6368713-1.1945648-2.9306946-1.1945648c-0.8497925,0-1.5654907,0.1079712-2.1470947,0.3238983
		c-0.5816193,0.2159271-1.0848694,0.4579773-1.5097504,0.7261353c-0.4248962,0.2681732-0.7905884,0.5084839-1.0970612,0.724411
		c-0.3082123,0.2159271-0.6112213,0.3238831-0.9124756,0.3238831c-0.2350769,0-0.4405518-0.0626831-0.6164398-0.1863251
		c-0.1776123-0.1236267-0.316925-0.2768707-0.421402-0.4614563l-0.6286316-1.1162109
		c1.0988007-1.0587311,2.2811737-1.8493195,3.5488892-2.3717194c1.2677002-0.5241547,2.6729736-0.7853546,4.2140808-0.7853546
		c1.1109772,0,2.0983276,0.1828461,2.9602966,0.5485229c0.8637085,0.3674316,1.5881195,0.8759155,2.1766968,1.5306549
		c0.5885773,0.6530151,1.0326233,1.4435883,1.3338776,2.3717346c0.2995148,0.9281311,0.4492645,1.9468231,0.4492645,3.0578156
		V152.7719879z M214.573349,150.6353455c0.6147003,0,1.1771545-0.0626831,1.6873627-0.1863251
		c0.5084839-0.123642,0.98909-0.3012543,1.4401093-0.5293732c0.451004-0.2281189,0.8828583-0.5067291,1.2938232-0.8323669
		c0.410965-0.3273773,0.8132172-0.7000275,1.2050171-1.1179504v-4.0974121c-1.6072693,0-2.9724884,0.1027374-4.0974121,0.306488
		c-1.1231689,0.2037354-2.037384,0.4701538-2.7443695,0.7975311c-0.705246,0.3291168-1.2189484,0.7174377-1.5376129,1.1632233
		c-0.3204193,0.4475403-0.4806213,0.9472961-0.4806213,1.4993134c0,0.5258942,0.0853271,0.9786377,0.2542419,1.3600006
		c0.1706543,0.3813477,0.3987732,0.6930542,0.6860962,0.9368439s0.6268768,0.4214172,1.0204315,0.5328522
		C213.692215,150.5796204,214.1171112,150.6353455,214.573349,150.6353455z"/>
	<path class="st2" d="M232.8053284,123.8950882v28.8768997h-3.4896698v-28.8768997H232.8053284z"/>
	<path class="st2" d="M250.8788605,149.5765991h12.1546783v3.1953888h-15.9577942v-28.0915451h3.8031158V149.5765991z"/>
	<path class="st2" d="M273.835144,132.6001282c1.1893616,0,2.2864075,0.1985168,3.2929077,0.59729
		c1.0065002,0.3987579,1.8754578,0.9734192,2.608551,1.7256775c0.7313843,0.7505188,1.3025513,1.6786652,1.7152405,2.7826843
		c0.4109497,1.1057587,0.6164246,2.3630219,0.6164246,3.7752533c0,0.5485382-0.0574646,0.9142151-0.1758728,1.0970612
		s-0.3395691,0.2751312-0.6669312,0.2751312h-13.2134094c0.026123,1.2537842,0.1967773,2.3456116,0.5102234,3.2737579
		c0.313446,0.9281311,0.7453003,1.7012939,1.2938232,2.3229675c0.5485229,0.6199188,1.2032776,1.0848541,1.9607544,1.3913422
		c0.7575073,0.3064728,1.6072998,0.4614563,2.5476074,0.4614563c0.8759155,0,1.6316528-0.1027374,2.2655029-0.3047333
		c0.6338501-0.2020111,1.178894-0.4214172,1.6368713-0.6564941c0.4562378-0.2350922,0.8393555-0.4544983,1.145813-0.6564941
		c0.3082275-0.2037354,0.5729065-0.3047333,0.7940674-0.3047333c0.287323,0,0.5102234,0.1114349,0.6669312,0.3343353
		l0.9804077,1.272934c-0.4318848,0.5241394-0.9472961,0.9786377-1.5480652,1.3634796
		c-0.6025085,0.3848419-1.2450867,0.701767-1.9311829,0.9507751c-0.6860962,0.2472687-1.3965759,0.4335938-2.1279297,0.5589752
		c-0.7313843,0.123642-1.4575195,0.1863251-2.1749573,0.1863251c-1.3721924,0-2.6381531-0.2333374-3.7944031-0.6965332
		c-1.1562805-0.4632111-2.1557922-1.1440735-2.9986267-2.0391388c-0.842804-0.89505-1.4992981-2.0025482-1.9712219-3.3224945
		c-0.4701538-1.3199463-0.7052307-2.8366699-0.7052307-4.5484314c0-1.3843689,0.2124329-2.6781921,0.6373291-3.8814697
		c0.4248962-1.2015381,1.0361023-2.2446136,1.8336487-3.1274872c0.7958069-0.8811188,1.7692261-1.574173,2.9202576-2.0774231
		C271.1029663,132.8508759,272.3967896,132.6001282,273.835144,132.6001282z M273.9135132,135.1668854
		c-1.6856384,0-3.0125427,0.4875793-3.9790039,1.4609985c-0.9682007,0.9734192-1.5689697,2.3229675-1.8040466,4.048645h10.8016357
		c0-0.8097229-0.1114502-1.5515442-0.3326111-2.2254486c-0.2228699-0.6721649-0.5502625-1.2537689-0.9803772-1.7448425
		c-0.4318542-0.4893188-0.9577332-0.868927-1.5776672-1.1371002
		C275.4197998,135.3027039,274.7110596,135.1668854,273.9135132,135.1668854z"/>
	<path class="st2" d="M301.1030273,152.7719879h-1.5480652c-0.3395691,0-0.6146851-0.0522461-0.8236389-0.156723
		c-0.2089844-0.1044769-0.3465576-0.3273773-0.4109802-0.6669312l-0.3917847-1.8423615
		c-0.5241699,0.4701691-1.0326233,0.891571-1.5289307,1.2642212c-0.4980164,0.3726501-1.0204163,0.6860962-1.5689392,0.9403381
		c-0.5485535,0.2559814-1.1336365,0.4492645-1.7553101,0.5798645c-0.6199036,0.1288605-1.3094788,0.1950378-2.0669861,0.1950378
		c-0.7714233,0-1.4940796-0.1079712-2.1662292-0.3238983c-0.6739197-0.2159271-1.2590027-0.5415497-1.7553101-0.9734192
		c-0.4962769-0.4335938-0.891571-0.9803772-1.1858521-1.6438293c-0.294281-0.6617126-0.4405518-1.4453278-0.4405518-2.3508301
		c0-0.7853546,0.2159119-1.5428467,0.6460266-2.2707367c0.4318542-0.7278748,1.128418-1.3739166,2.0878906-1.9381256
		c0.9612427-0.5641937,2.2184753-1.02565,3.7735291-1.3878632c1.5550232-0.3604584,3.4565735-0.5398102,5.7046814-0.5398102
		v-1.5585175c0-1.5515442-0.3291321-2.7252197-0.9891052-3.5210266c-0.6599731-0.7957916-1.6368713-1.1945648-2.9306946-1.1945648
		c-0.8497925,0-1.5654907,0.1079712-2.1470947,0.3238983s-1.0848694,0.4579773-1.5097656,0.7261353
		c-0.4248657,0.2681732-0.7905579,0.5084839-1.0970459,0.724411c-0.3082275,0.2159271-0.6112061,0.3238831-0.9124756,0.3238831
		c-0.2350769,0-0.4405518-0.0626831-0.6164246-0.1863251c-0.1776123-0.1236267-0.316925-0.2768707-0.4214172-0.4614563
		l-0.6286316-1.1162109c1.0988159-1.0587311,2.281189-1.8493195,3.5488892-2.3717194
		c1.2677002-0.5241547,2.6729736-0.7853546,4.2140808-0.7853546c1.1109924,0,2.0983276,0.1828461,2.9602966,0.5485229
		c0.8637085,0.3674316,1.5881348,0.8759155,2.1766968,1.5306549c0.5885925,0.6530151,1.0326233,1.4435883,1.3338928,2.3717346
		c0.2994995,0.9281311,0.4492493,1.9468231,0.4492493,3.0578156V152.7719879z M292.0462341,150.6353455
		c0.6147156,0,1.1771545-0.0626831,1.6873779-0.1863251c0.5084839-0.123642,0.9891052-0.3012543,1.4401245-0.5293732
		c0.4509888-0.2281189,0.882843-0.5067291,1.2938232-0.8323669c0.4109497-0.3273773,0.8132019-0.7000275,1.2050171-1.1179504
		v-4.0974121c-1.6072693,0-2.9725037,0.1027374-4.0974121,0.306488c-1.1231689,0.2037354-2.037384,0.4701538-2.7443848,0.7975311
		c-0.7052612,0.3291168-1.2189331,0.7174377-1.5376282,1.1632233c-0.3204041,0.4475403-0.4805908,0.9472961-0.4805908,1.4993134
		c0,0.5258942,0.0853271,0.9786377,0.2542419,1.3600006c0.1706238,0.3813477,0.3987427,0.6930542,0.6860657,0.9368439
		s0.6268921,0.4214172,1.0204468,0.5328522C291.1651306,150.5796204,291.5900269,150.6353455,292.0462341,150.6353455z"/>
	<path class="st2" d="M306.396759,152.7719879v-19.8584137h1.9990845c0.3796082,0,0.6408081,0.0713959,0.7835999,0.2159271
		c0.1445313,0.1427917,0.2420349,0.3917999,0.294281,0.7435608l0.2350769,3.0978699
		c0.6791382-1.3843842,1.5202026-2.4657593,2.5197449-3.2441406c0.9995422-0.7766571,2.1732178-1.1667175,3.5192871-1.1667175
		c0.5485229,0,1.0448303,0.0626984,1.4888611,0.1863251c0.4440613,0.1253815,0.8567505,0.2977753,1.2346191,0.5189209
		l-0.4492798,2.608551c-0.0922852,0.3256378-0.294281,0.4893188-0.6077271,0.4893188
		c-0.1845703,0-0.4649353-0.0609436-0.8445435-0.1863251c-0.3778687-0.1236267-0.9072571-0.1863251-1.5863953-0.1863251
		c-1.2154541,0-2.2323914,0.3535004-3.0491028,1.0587463c-0.8166809,0.7070007-1.4992981,1.7326508-2.047821,3.0787201v12.6439819
		H306.396759z"/>
	<path class="st2" d="M322.1978149,152.7719879v-19.8584137h2.0774536c0.4962769,0,0.8097229,0.2420502,0.9403076,0.7243958
		l0.2751465,2.157547c0.861969-0.9542694,1.8266907-1.7256927,2.8906555-2.31427
		c1.0657043-0.5868378,2.2968445-0.8811188,3.6968994-0.8811188c1.0830994,0,2.040863,0.1793518,2.8714905,0.5380707
		c0.8288879,0.3604736,1.5219421,0.8706818,2.0774231,1.5289154c0.5555115,0.6599731,0.9768982,1.4540405,1.2642212,2.3821716
		c0.287323,0.9281464,0.4318542,1.9538116,0.4318542,3.0787201v12.6439819h-3.4896545V140.128006
		c0-1.5027924-0.3430481-2.6694946-1.0291443-3.5001221c-0.6860962-0.8288879-1.7344055-1.2450714-3.146637-1.2450714
		c-1.0326233,0-1.9956055,0.2490082-2.8906555,0.7453003c-0.8967896,0.4962921-1.7221985,1.1701965-2.4796753,2.0199738v14.6239014
		H322.1978149z"/>
	<path class="st2" d="M348.6629333,126.6795197c0,0.3395615-0.0679016,0.6564865-0.2054749,0.9507828
		c-0.1375732,0.2942886-0.3204041,0.5554886-0.5485229,0.7836075c-0.2298584,0.2298584-0.4945374,0.4092102-0.7940674,0.5398254
		c-0.301239,0.1306-0.6216736,0.1950226-0.9612122,0.1950226c-0.3395691,0-0.6564941-0.0644226-0.9508057-0.1950226
		c-0.294281-0.1306152-0.555481-0.309967-0.7835999-0.5398254c-0.2298584-0.2281189-0.4092102-0.4893188-0.5398254-0.7836075
		c-0.1305847-0.2942963-0.1950378-0.6112213-0.1950378-0.9507828s0.0644531-0.6634598,0.1950378-0.9699326
		c0.1306152-0.3082199,0.309967-0.5763931,0.5398254-0.804512c0.2281189-0.2281113,0.4893188-0.4074783,0.7835999-0.5398178
		c0.2943115-0.1306,0.6112366-0.1950302,0.9508057-0.1950302c0.3395386,0,0.6599731,0.0644302,0.9612122,0.1950302
		c0.29953,0.1323395,0.564209,0.3117065,0.7940674,0.5398178c0.2281189,0.2281189,0.4109497,0.4962921,0.5485229,0.804512
		C348.5950317,126.0160599,348.6629333,126.3399582,348.6629333,126.6795197z M347.8793335,132.9135742v19.8584137h-3.4896851
		v-19.8584137H347.8793335z"/>
	<path class="st2" d="M354.0332642,152.7719879v-19.8584137h2.0774536c0.4962769,0,0.8097229,0.2420502,0.9403381,0.7243958
		l0.275116,2.157547c0.861969-0.9542694,1.8266907-1.7256927,2.8906555-2.31427
		c1.0657043-0.5868378,2.2968445-0.8811188,3.6968994-0.8811188c1.0831299,0,2.040863,0.1793518,2.8714905,0.5380707
		c0.8288879,0.3604736,1.5219421,0.8706818,2.0774536,1.5289154c0.555481,0.6599731,0.9768982,1.4540405,1.2642212,2.3821716
		c0.287323,0.9281464,0.4318542,1.9538116,0.4318542,3.0787201v12.6439819h-3.4896851V140.128006
		c0-1.5027924-0.3430481-2.6694946-1.0291443-3.5001221c-0.6860962-0.8288879-1.734375-1.2450714-3.146637-1.2450714
		c-1.0326233,0-1.995575,0.2490082-2.890625,0.7453003c-0.8968201,0.4962921-1.7221985,1.1701965-2.4797058,2.0199738v14.6239014
		H354.0332642z"/>
	<path class="st2" d="M382.5183716,132.5792236c0.861969,0,1.6682129,0.0957794,2.4204712,0.2855835
		c0.7505493,0.1898193,1.433136,0.4666901,2.0478516,0.8323669h5.3912354v1.2938385
		c0,0.4318542-0.273407,0.705246-0.8236694,0.8236542l-2.2533264,0.313446
		c0.4440613,0.8497772,0.6669617,1.7970734,0.6669617,2.8436279c0,0.9664612-0.1863403,1.8458405-0.5589905,2.6364136
		s-0.8898315,1.4662323-1.5498047,2.0286865s-1.443573,0.992569-2.3525696,1.2938232
		c-0.9072571,0.3012543-1.9050293,0.4510193-2.9881592,0.4510193c-0.9281311,0-1.8040466-0.1114502-2.6277161-0.3343506
		c-0.4179077,0.2716522-0.7348328,0.5624542-0.9507751,0.8724213c-0.2159119,0.309967-0.3238831,0.6147003-0.3238831,0.9124756
		c0,0.4858398,0.1897888,0.8532562,0.5694275,1.1040192c0.3778687,0.2507477,0.8811035,0.4283752,1.5097351,0.5380707
		c0.6268921,0.1079712,1.3391113,0.1619568,2.1366577,0.1619568c0.7958069,0,1.6107483,0,2.4396362,0
		c0.8306274,0,1.6438293,0.0713959,2.4413757,0.2176666s1.5097656,0.3830872,2.1366577,0.7139587
		c0.6268616,0.3308563,1.130127,0.7870789,1.5097351,1.3704376c0.3778687,0.5816193,0.567688,1.3356171,0.567688,2.2620239
		c0,0.85849-0.2124329,1.6925964-0.6373291,2.5005798c-0.4248962,0.8062592-1.0343628,1.5236969-1.8319092,2.1523132
		c-0.7975464,0.6286316-1.7709656,1.1318817-2.9219971,1.5080261c-1.149292,0.3778687-2.4500732,0.5659332-3.9006348,0.5659332
		s-2.7217407-0.1445313-3.8135681-0.4318542c-1.0900879-0.287323-1.9956055-0.6739044-2.7147827-1.1580048
		s-1.2572632-1.0430603-1.6177063-1.6769257c-0.3587341-0.6355896-0.5380859-1.2990417-0.5380859-1.9921112
		c0-0.9821167,0.309967-1.8162231,0.9316406-2.5023193c0.6199036-0.6860962,1.473175-1.2328796,2.5580444-1.6386261
		c-0.5624695-0.2612-1.0099792-0.6094666-1.3425903-1.0465546c-0.3343506-0.4370728-0.4997559-1.022171-0.4997559-1.7518005
		c0-0.287323,0.0504761-0.5850983,0.1567078-0.891571c0.1044922-0.3064728,0.264679-0.6094666,0.4788818-0.9089813
		c0.2159119-0.3012543,0.4805908-0.5885773,0.7940369-0.861969c0.313446-0.273407,0.6808777-0.5154419,1.0988159-0.724411
		c-0.9803772-0.5485229-1.7483215-1.276413-2.303833-2.1853943c-0.555481-0.9089966-0.8323669-1.9712219-0.8323669-3.1849518
		c0-0.9681854,0.1863403-1.8458252,0.557251-2.6381531c0.3726501-0.7905731,0.8933105-1.462738,1.5585022-2.018219
		c0.6669312-0.5554962,1.4609985-0.9838715,2.3821716-1.2851257
		C380.4095764,132.7307281,381.4195862,132.5792236,382.5183716,132.5792236z M388.7123718,153.7802277
		c0-0.5067291-0.1375732-0.9141998-0.4109497-1.2206879c-0.2751465-0.3064728-0.6477966-0.5433044-1.1179504-0.708725
		c-0.4701843-0.1671753-1.0134888-0.290802-1.6264343-0.3709106c-0.6147156-0.0801086-1.2624817-0.1201477-1.9416199-0.1201477
		s-1.3721924,0-2.0774231,0c-0.7070007,0-1.3791504-0.0870819-2.019989-0.2646942
		c-0.7453003,0.3535004-1.3495483,0.7870941-1.8127441,1.2973175c-0.4649353,0.5102081-0.6965332,1.1179504-0.6965332,1.8249359
		c0,0.4457855,0.1149292,0.8602295,0.3430481,1.2468109s0.578125,0.7209167,1.0482788,1.0012817
		c0.4719238,0.2820892,1.0622253,0.5049896,1.7744446,0.6686707c0.7122192,0.1619568,1.5515442,0.2455292,2.5197449,0.2455292
		c0.9403381,0,1.7831421-0.0870667,2.5284424-0.2612c0.7453003-0.1723938,1.3756714-0.4196625,1.8928528-0.738327
		c0.5154419-0.3204193,0.9107361-0.701767,1.1858826-1.1405945
		C388.5747986,154.7989197,388.7123718,154.3130951,388.7123718,153.7802277z M382.5183716,143.0674133
		c0.7052612,0,1.3286438-0.0975189,1.8719482-0.2925415c0.5415649-0.1967773,0.9960632-0.4719086,1.3617554-0.8236694
		c0.3656616-0.3534851,0.6408081-0.7749023,0.8236389-1.2642212c0.1828613-0.4910583,0.2751465-1.0291443,0.2751465-1.6177216
		c0-1.2154694-0.3709106-2.1836548-1.1092529-2.9010925c-0.7383118-0.7191772-1.8127441-1.0796356-3.2232361-1.0796356
		c-1.4000549,0-2.4674988,0.3604584-3.2058411,1.0796356c-0.7383423,0.7174377-1.1075134,1.6856232-1.1075134,2.9010925
		c0,0.5885773,0.0940552,1.1266632,0.283844,1.6177216c0.1898193,0.4893188,0.4667053,0.9107361,0.8341064,1.2642212
		c0.3656921,0.3517609,0.8149719,0.6268921,1.3513184,0.8236694
		C381.2106018,142.9698944,381.8253174,143.0674133,382.5183716,143.0674133z"/>
	<path class="st2" d="M409.4536438,153.085434c-1.5689392,0-2.7739563-0.437088-3.6167908-1.3129883
		c-0.842804-0.8759003-1.2642212-2.1366425-1.2642212-3.7839661v-12.1546478h-2.3926086
		c-0.2089844,0-0.3848572-0.0609589-0.5293884-0.1863251c-0.1427917-0.123642-0.2159119-0.3169403-0.2159119-0.5781403v-1.3913422
		l3.2545776-0.4127045l0.8045044-6.1347885c0.026123-0.1967773,0.1097107-0.3569794,0.2542419-0.4806137
		s0.3273926-0.1863251,0.5485229-0.1863251h1.7640076v6.8417816h5.6855164v2.5284576h-5.6855164v11.9195709
		c0,0.8358459,0.2037354,1.4575195,0.6077271,1.8615112c0.4057312,0.4057312,0.9281311,0.6077271,1.5689697,0.6077271
		c0.3656616,0,0.6825867-0.0487518,0.9507751-0.1462708c0.268158-0.0975189,0.4997559-0.2054749,0.6965332-0.3238983
		c0.1950378-0.1166687,0.3622131-0.2246246,0.4997864-0.3221436c0.1375427-0.0992584,0.2577209-0.1480103,0.3621826-0.1480103
		c0.1828613,0,0.3465271,0.1114349,0.4910583,0.3325958l1.0187073,1.6664734
		c-0.600769,0.5624542-1.3269043,1.0030212-2.1766968,1.3234253
		C411.2298279,152.9252319,410.3556824,153.085434,409.4536438,153.085434z"/>
	<path class="st2" d="M426.0957947,132.6001282c1.450531,0,2.7617798,0.2420502,3.9319763,0.7243958
		c1.168457,0.4841003,2.1627502,1.1701965,2.9794617,2.0582886c0.8166809,0.8898315,1.443573,1.9642487,1.8806458,3.2249908
		c0.4388428,1.2624817,0.6582336,2.6694946,0.6582336,4.2245331c0,1.5689545-0.2193909,2.9794617-0.6582336,4.2349701
		c-0.4370728,1.2537842-1.0639648,2.3264465-1.8806458,3.2145386c-0.8167114,0.8898315-1.8110046,1.5724487-2.9794617,2.0495758
		c-1.1701965,0.4771423-2.4814453,0.7156982-3.9319763,0.7156982c-1.4505615,0-2.7600403-0.2385559-3.9302368-0.7156982
		c-1.1701965-0.4771271-2.1662598-1.1597443-2.9899292-2.0495758c-0.8218994-0.888092-1.457489-1.9607544-1.9015503-3.2145386
		c-0.4440308-1.2555084-0.6651917-2.6660156-0.6651917-4.2349701c0-1.5550385,0.2211609-2.9620514,0.6651917-4.2245331
		c0.4440613-1.2607422,1.0796509-2.3351593,1.9015503-3.2249908c0.8236694-0.888092,1.8197327-1.5741882,2.9899292-2.0582886
		C423.3357544,132.8421783,424.6452332,132.6001282,426.0957947,132.6001282z M426.0957947,150.3218994
		c1.9607544,0,3.4252319-0.6564941,4.3916931-1.9712067c0.9664612-1.3129883,1.4505615-3.146637,1.4505615-5.497467
		c0-2.3665009-0.4841003-4.208847-1.4505615-5.5288086c-0.9664612-1.3199463-2.4309387-1.9799194-4.3916931-1.9799194
		c-0.9925842,0-1.8545532,0.1689148-2.5876465,0.5102234c-0.7313843,0.3395691-1.3425903,0.8288879-1.8319092,1.469696
		c-0.4910583,0.6408234-0.8567505,1.4279175-1.0988159,2.3612823c-0.2420349,0.9351044-0.3621826,1.9903717-0.3621826,3.1675262
		c0,1.175415,0.1201477,2.2272034,0.3621826,3.1553345c0.2420654,0.9281464,0.6077576,1.7082672,1.0988159,2.3421326
		c0.4893188,0.6338501,1.1005249,1.1214294,1.8319092,1.4609985
		C424.2412415,150.1512451,425.1032104,150.3218994,426.0957947,150.3218994z"/>
	<path class="st2" d="M451.7773132,149.5765991h12.1546326v3.1953888h-15.9577637v-28.0915451h3.8031311V149.5765991z"/>
	<path class="st2" d="M472.2434387,126.6795197c0,0.3395615-0.0679016,0.6564865-0.2054749,0.9507828
		c-0.1375732,0.2942886-0.3204041,0.5554886-0.5485229,0.7836075c-0.2298584,0.2298584-0.4945374,0.4092102-0.7940674,0.5398254
		c-0.301239,0.1306-0.6216431,0.1950226-0.9612122,0.1950226s-0.6564941-0.0644226-0.9507751-0.1950226
		c-0.2943115-0.1306152-0.5555115-0.309967-0.7836304-0.5398254c-0.2298584-0.2281189-0.4092102-0.4893188-0.5398254-0.7836075
		c-0.1305847-0.2942963-0.1950073-0.6112213-0.1950073-0.9507828s0.0644226-0.6634598,0.1950073-0.9699326
		c0.1306152-0.3082199,0.309967-0.5763931,0.5398254-0.804512c0.2281189-0.2281113,0.4893188-0.4074783,0.7836304-0.5398178
		c0.294281-0.1306,0.6112061-0.1950302,0.9507751-0.1950302s0.6599731,0.0644302,0.9612122,0.1950302
		c0.29953,0.1323395,0.564209,0.3117065,0.7940674,0.5398178c0.2281189,0.2281189,0.4109497,0.4962921,0.5485229,0.804512
		C472.1755371,126.0160599,472.2434387,126.3399582,472.2434387,126.6795197z M471.4598389,132.9135742v19.8584137h-3.4896851
		v-19.8584137H471.4598389z"/>
	<path class="st2" d="M478.3973999,152.7719879v-16.878952l-2.1958618-0.2542419
		c-0.275116-0.0661774-0.4997559-0.1671753-0.6756287-0.3047333c-0.1776123-0.1375732-0.264679-0.3360901-0.264679-0.59729
		v-1.4313965h3.1361694v-1.9207153c0-1.1371002,0.1602173-2.1470947,0.4806213-3.029953
		c0.3204041-0.8811264,0.7766418-1.6264267,1.3721924-2.2341614c0.5937805-0.6077347,1.3094788-1.069191,2.1470642-1.382637
		c0.8358765-0.313446,1.7761841-0.4701691,2.8227539-0.4701691c0.888092,0,1.7117615,0.1306076,2.4692383,0.3918076
		l-0.0783691,1.7448425c-0.0121765,0.2612-0.1236267,0.4196625-0.3325806,0.4701614
		c-0.2089844,0.0539856-0.5032654,0.0783615-0.8828735,0.0783615h-0.6077271c-0.600769,0-1.145813,0.0783615-1.6368713,0.236824
		c-0.4893188,0.156723-0.9107361,0.4109573-1.2642212,0.7644577c-0.3535156,0.3517456-0.6234131,0.8166962-0.8132324,1.3913422
		c-0.1897888,0.574646-0.283844,1.2868652-0.283844,2.1366425v1.8231964h5.7430115v2.5284576h-5.6263428v16.9381561H478.3973999z"/>
	<path class="st2" d="M498.6876831,132.6001282c1.1893311,0,2.286377,0.1985168,3.2929077,0.59729
		c1.0065002,0.3987579,1.8754272,0.9734192,2.6085205,1.7256775c0.7313843,0.7505188,1.3025513,1.6786652,1.7152405,2.7826843
		c0.4109802,1.1057587,0.6164551,2.3630219,0.6164551,3.7752533c0,0.5485382-0.0574646,0.9142151-0.1758728,1.0970612
		s-0.3395691,0.2751312-0.6669617,0.2751312h-13.2133789c0.0260925,1.2537842,0.1967468,2.3456116,0.5101929,3.2737579
		c0.313446,0.9281311,0.7453003,1.7012939,1.2938232,2.3229675c0.5485535,0.6199188,1.2032776,1.0848541,1.9607849,1.3913422
		c0.7574768,0.3064728,1.6072693,0.4614563,2.5476074,0.4614563c0.875885,0,1.6316528-0.1027374,2.2655029-0.3047333
		c0.6338501-0.2020111,1.178894-0.4214172,1.6368713-0.6564941c0.4562378-0.2350922,0.839325-0.4544983,1.145813-0.6564941
		c0.3082275-0.2037354,0.5729065-0.3047333,0.7940369-0.3047333c0.2873535,0,0.5102234,0.1114349,0.6669617,0.3343353
		l0.9803772,1.272934c-0.4318542,0.5241394-0.9472961,0.9786377-1.5480652,1.3634796
		c-0.6025085,0.3848419-1.2450562,0.701767-1.9311523,0.9507751c-0.6860962,0.2472687-1.3965759,0.4335938-2.1279602,0.5589752
		c-0.7313538,0.123642-1.457489,0.1863251-2.1749268,0.1863251c-1.3721924,0-2.6381531-0.2333374-3.7944336-0.6965332
		c-1.15625-0.4632111-2.1557922-1.1440735-2.9985962-2.0391388c-0.8428345-0.89505-1.4993286-2.0025482-1.9712219-3.3224945
		c-0.4701843-1.3199463-0.7052612-2.8366699-0.7052612-4.5484314c0-1.3843689,0.2124634-2.6781921,0.6373291-3.8814697
		c0.4248962-1.2015381,1.0361328-2.2446136,1.8336487-3.1274872c0.7958069-0.8811188,1.7692261-1.574173,2.9202576-2.0774231
		C495.9554749,132.8508759,497.2492981,132.6001282,498.6876831,132.6001282z M498.7660217,135.1668854
		c-1.6856079,0-3.0125427,0.4875793-3.9789734,1.4609985c-0.9682007,0.9734192-1.5689697,2.3229675-1.8040466,4.048645h10.8016052
		c0-0.8097229-0.1114197-1.5515442-0.3325806-2.2254486c-0.2229004-0.6721649-0.5502625-1.2537689-0.9803772-1.7448425
		c-0.4318542-0.4893188-0.9577637-0.868927-1.5776672-1.1371002
		C500.2723083,135.3027039,499.5635681,135.1668854,498.7660217,135.1668854z"/>
</g>
</svg>
