<?xml version="1.0" encoding="utf-8"?>
<!-- Generator: Adobe Illustrator 23.0.1, SVG Export Plug-In . SVG Version: 6.00 Build 0)  -->
<svg version="1.1" id="Calque_1" xmlns="http://www.w3.org/2000/svg" xmlns:xlink="http://www.w3.org/1999/xlink" x="0px" y="0px"
	 viewBox="0 0 211.3 50.9" style="enable-background:new 0 0 211.3 50.9;" xml:space="preserve">
<style type="text/css">
	.st0{fill:#BD3C30;}
	.st1{fill:#818182;}
	.st2{fill:#999999;}
</style>
<g>
	<g>
		<g>
			<path class="st0" d="M27.8,14.6c0,1.2-0.2,2.3-0.6,3.3c-0.4,1-1,1.9-1.7,2.6c-0.7,0.7-1.6,1.3-2.6,1.7c-0.9,0.3-2.1,0.5-3.3,0.5
				h-6.2V6.5h6.2c1.2,0,2.4,0.2,3.3,0.6c1,0.4,1.9,1,2.6,1.7c0.7,0.7,1.3,1.6,1.7,2.5C27.5,12.4,27.8,13.5,27.8,14.6z M24.6,14.6
				c0-0.9-0.1-1.7-0.3-2.4c-0.3-0.7-0.6-1.3-1-1.8c-0.4-0.5-1-0.9-1.7-1.1c-0.6-0.3-1.3-0.3-2.1-0.3h-3.1v11.4h3.2
				c0.8,0,1.5-0.2,2.1-0.4c0.7-0.3,1.1-0.7,1.7-1.1c0.4-0.5,0.8-1,1-1.8C24.5,16.4,24.6,15.6,24.6,14.6z"/>
			<path class="st0" d="M33.2,7.9c0,0.3-0.1,0.5-0.2,0.7c-0.1,0.3-0.3,0.4-0.4,0.6S32.3,9.4,32,9.6c-0.3,0.1-0.5,0.2-0.7,0.2
				c-0.3,0-0.5-0.1-0.7-0.2c-0.2-0.2-0.3-0.3-0.5-0.4c-0.2-0.2-0.2-0.3-0.3-0.5c-0.1-0.3-0.2-0.4-0.2-0.7c0-0.3,0.1-0.5,0.2-0.7
				c0.1-0.3,0.3-0.4,0.4-0.6s0.3-0.3,0.6-0.4C31.1,6.1,31.3,6,31.5,6c0.3,0,0.5,0.1,0.7,0.2c0.3,0.1,0.4,0.3,0.6,0.4
				s0.3,0.3,0.4,0.6C33.1,7.5,33.2,7.7,33.2,7.9z M32.7,11.3v11.5h-2.8V11.3H32.7z"/>
			<path class="st0" d="M45.9,11.7v1c0,0.3-0.2,0.6-0.6,0.6l-1,0.2c0.2,0.4,0.3,0.8,0.3,1.3c0,0.6-0.1,1-0.3,1.6
				c-0.3,0.5-0.6,0.8-1,1.1c-0.4,0.3-0.9,0.6-1.5,0.7c-0.6,0.2-1.1,0.2-1.8,0.2c-0.3,0-0.4,0-0.7,0c-0.3,0-0.4-0.1-0.7-0.1
				c-0.3,0.3-0.6,0.5-0.6,0.7c0,0.3,0.1,0.4,0.3,0.5s0.5,0.2,0.8,0.3c0.3,0.1,0.7,0.1,1.2,0.1c0.5,0,0.9,0,1.4,0.1
				c0.5,0,0.9,0.1,1.4,0.2s0.8,0.3,1.2,0.4c0.3,0.2,0.7,0.5,0.8,0.8c0.3,0.3,0.3,0.8,0.3,1.3c0,0.5-0.2,1-0.4,1.5
				c-0.1,0.7-0.5,1-0.9,1.4c-0.5,0.4-1,0.7-1.7,0.9c-0.4,0.3-1.3,0.3-2.2,0.3c-0.9,0-1.7-0.1-2.3-0.3c-0.7-0.2-1.1-0.4-1.7-0.7
				c-0.4-0.3-0.7-0.6-1-1c-0.3-0.3-0.3-0.7-0.3-1.1c0-0.6,0.2-1,0.5-1.4c0.3-0.3,0.7-0.7,1.3-0.9c-0.3-0.2-0.6-0.3-0.7-0.7
				c-0.2-0.3-0.3-0.6-0.3-1c0-0.2,0-0.3,0.1-0.6c0.1-0.2,0.2-0.3,0.3-0.6c0.2-0.2,0.3-0.3,0.5-0.5c0.2-0.2,0.4-0.3,0.7-0.4
				c-0.6-0.3-1-0.7-1.4-1.2c-0.3-0.5-0.5-1.1-0.5-1.9c0-0.6,0.1-1,0.3-1.6c0.3-0.5,0.6-0.8,1-1.1c0.4-0.3,0.9-0.6,1.5-0.7
				s1.1-0.3,1.8-0.3c0.5,0,1,0.1,1.4,0.2c0.4,0.1,0.8,0.3,1.2,0.4H46L45.9,11.7L45.9,11.7z M43.1,23.4c0-0.3-0.1-0.4-0.2-0.6
				c-0.2-0.2-0.3-0.3-0.6-0.3c-0.3-0.1-0.5-0.2-0.8-0.2s-0.7-0.1-1-0.1c-0.3,0-0.7,0-1-0.1c-0.4,0-0.7-0.1-1-0.1
				c-0.3,0.2-0.6,0.4-0.7,0.6c-0.2,0.3-0.3,0.5-0.3,0.8c0,0.2,0.1,0.4,0.2,0.6c0.1,0.2,0.3,0.3,0.5,0.5s0.5,0.3,0.9,0.3
				c0.3,0.1,0.8,0.1,1.3,0.1s1,0,1.3-0.1c0.4-0.1,0.7-0.2,0.9-0.3c0.3-0.2,0.4-0.3,0.6-0.5C43.1,23.8,43.1,23.6,43.1,23.4z M40,16.8
				c0.3,0,0.7-0.1,0.9-0.2c0.3-0.1,0.5-0.3,0.7-0.4c0.2-0.2,0.3-0.3,0.4-0.6c0.1-0.3,0.2-0.5,0.2-0.7c0-0.6-0.2-1-0.5-1.4
				c-0.3-0.3-0.8-0.5-1.6-0.5c-0.7,0-1.2,0.2-1.6,0.5S38,14.3,38,14.9c0,0.3,0.1,0.5,0.2,0.7c0.1,0.3,0.3,0.4,0.4,0.6
				c0.2,0.2,0.4,0.3,0.7,0.4C39.4,16.7,39.6,16.8,40,16.8z"/>
			<path class="st0" d="M51.1,7.9c0,0.3-0.1,0.5-0.2,0.7c-0.1,0.3-0.3,0.4-0.4,0.5c-0.2,0.2-0.3,0.3-0.6,0.4
				c-0.2,0.1-0.4,0.2-0.7,0.2s-0.5-0.1-0.7-0.2c-0.2-0.2-0.3-0.3-0.5-0.4c-0.2-0.2-0.3-0.3-0.4-0.6c-0.1-0.3-0.2-0.4-0.2-0.7
				c0-0.3,0.1-0.5,0.2-0.7c0.1-0.3,0.3-0.4,0.4-0.6c0.2-0.2,0.3-0.3,0.6-0.4C48.8,6,49,5.9,49.3,5.9c0.3,0,0.5,0.1,0.7,0.2
				c0.3,0.1,0.4,0.3,0.6,0.4c0.2,0.2,0.3,0.3,0.4,0.6C51,7.5,51.1,7.7,51.1,7.9z M50.7,11.3v11.5h-2.8V11.3H50.7z"/>
			<path class="st0" d="M57.5,23c-1,0-1.8-0.3-2.3-0.8c-0.6-0.6-0.8-1.3-0.8-2.4v-6.5h-1.1c-0.2,0-0.3-0.1-0.4-0.2
				c-0.1-0.1-0.2-0.3-0.2-0.4v-1l1.9-0.3l0.6-3.2c0-0.2,0.1-0.3,0.3-0.3c0.1-0.1,0.3-0.2,0.4-0.2h1.5v3.6h3.1v2h-3.1v6.3
				c0,0.3,0.1,0.7,0.3,0.8c0.2,0.2,0.4,0.3,0.7,0.3c0.2,0,0.3,0,0.4-0.1c0.1-0.1,0.3-0.1,0.3-0.2s0.2-0.1,0.3-0.2c-0.1,0,0,0,0,0
				c0.1,0,0.2,0,0.2,0.1c0.1,0.1,0.1,0.1,0.2,0.2l0.8,1.4c-0.4,0.3-0.9,0.6-1.4,0.7C58.6,22.9,58.1,23,57.5,23z"/>
			<path class="st0" d="M61.9,12.9c1.3-1.2,3-1.8,4.8-1.8c0.7,0,1.3,0.1,1.8,0.3c0.6,0.3,1,0.5,1.4,0.9c0.3,0.4,0.7,0.9,0.8,1.4
				c0.2,0.6,0.3,1.1,0.3,1.8v7.3h-1.4c-0.3,0-0.5,0-0.6-0.1c-0.2-0.1-0.3-0.3-0.3-0.5l-0.3-0.8c-0.3,0.3-0.6,0.5-0.8,0.7
				c-0.3,0.2-0.6,0.3-0.9,0.5c-0.3,0.2-0.7,0.3-1,0.3c-0.3,0.1-0.7,0.1-1.1,0.1c-0.5,0-0.9-0.1-1.4-0.2c-0.4-0.2-0.7-0.3-1-0.6
				c-0.3-0.3-0.6-0.6-0.7-1c-0.2-0.4-0.3-0.8-0.3-1.4c0-0.3,0.1-0.6,0.2-0.9c0.1-0.3,0.3-0.6,0.5-0.8c0.3-0.3,0.5-0.5,0.9-0.7
				c0.3-0.3,0.8-0.4,1.3-0.6c0.5-0.2,1.1-0.3,1.8-0.4c0.7-0.1,1.5-0.2,2.4-0.2v-0.7c0-0.7-0.2-1.3-0.5-1.7c-0.3-0.5-0.9-0.7-1.5-0.7
				c-0.5,0-0.8,0.1-1.1,0.2c-0.3,0.1-0.6,0.3-0.8,0.3c-0.3,0.2-0.4,0.3-0.7,0.3c-0.2,0.2-0.3,0.2-0.6,0.2c-0.2,0-0.3-0.1-0.5-0.2
				c-0.2-0.1-0.3-0.3-0.3-0.3L61.9,12.9z M68.3,18c-0.8,0-1.5,0.1-2,0.3c-0.5,0.2-1,0.3-1.3,0.4s-0.6,0.3-0.7,0.6
				C64.1,19.5,64,19.7,64,20c0,0.5,0.2,0.8,0.4,1c0.3,0.3,0.7,0.3,1.1,0.3c0.6,0,1-0.1,1.5-0.3c0.4-0.3,0.8-0.5,1.2-0.9L68.3,18
				L68.3,18z"/>
			<path class="st0" d="M76.6,6.1v16.8h-2.8V6.1H76.6z"/>
		</g>
	</g>
	<g>
		<g>
			<path class="st1" d="M94.3,22.8h-1.7c-0.2,0-0.3-0.1-0.5-0.2c-0.1-0.1-0.3-0.3-0.3-0.4l-1.5-3.9H83l-1.5,3.9
				c-0.1,0.2-0.2,0.3-0.3,0.3c-0.2,0.1-0.3,0.2-0.5,0.2H79l6.6-16.2h2.1L94.3,22.8z M89.6,16.9l-2.5-6.6c-0.1-0.2-0.2-0.4-0.3-0.7
				c-0.1-0.3-0.2-0.6-0.3-0.8c-0.2,0.6-0.3,1.1-0.5,1.6L83.5,17L89.6,16.9L89.6,16.9z"/>
			<path class="st1" d="M103.2,13.5c-0.1,0.1-0.1,0.2-0.2,0.2c-0.1,0.1-0.2,0.1-0.3,0.1c-0.1,0-0.3-0.1-0.4-0.2
				c-0.2-0.1-0.3-0.2-0.5-0.3c-0.2-0.1-0.4-0.3-0.7-0.3c-0.3-0.1-0.7-0.2-1-0.2c-0.6,0-1,0.1-1.5,0.3c-0.4,0.2-0.8,0.5-1,0.9
				c-0.3,0.4-0.5,0.8-0.7,1.4c-0.2,0.6-0.3,1.1-0.3,1.8c0,0.7,0.1,1.3,0.3,1.8c0.2,0.6,0.4,1,0.7,1.3c0.3,0.3,0.7,0.7,1,0.8
				s0.9,0.3,1.4,0.3c0.5,0,0.9-0.1,1.2-0.2s0.6-0.3,0.8-0.4c0.2-0.2,0.4-0.3,0.5-0.4c0.2-0.1,0.3-0.2,0.4-0.2c0.2,0,0.3,0.1,0.4,0.2
				l0.6,0.7c-0.3,0.3-0.5,0.6-0.8,0.8c-0.3,0.3-0.7,0.4-1,0.6c-0.3,0.2-0.7,0.3-1.1,0.3s-0.8,0.1-1.2,0.1c-0.7,0-1.4-0.2-2-0.4
				c-0.6-0.3-1.1-0.7-1.6-1.1c-0.4-0.4-0.8-1.1-1-1.8s-0.4-1.6-0.4-2.4c0-0.8,0.1-1.7,0.3-2.4c0.3-0.7,0.6-1.3,1-1.9
				c0.5-0.5,1-0.9,1.7-1.2c0.7-0.3,1.4-0.4,2.3-0.4c0.8,0,1.5,0.2,2.1,0.4c0.6,0.3,1.1,0.7,1.7,1L103.2,13.5z"/>
			<path class="st1" d="M105.3,13.1c0.7-0.6,1.3-1,2-1.4s1.6-0.5,2.4-0.5c0.7,0,1.2,0.1,1.7,0.3c0.5,0.3,0.9,0.5,1.2,0.9
				c0.3,0.4,0.6,0.8,0.7,1.4c0.2,0.6,0.3,1.1,0.3,1.7v7.3h-0.9c-0.2,0-0.3,0-0.4-0.1s-0.2-0.2-0.3-0.4l-0.3-1
				c-0.3,0.3-0.6,0.5-0.9,0.7c-0.3,0.3-0.6,0.4-0.9,0.6c-0.3,0.2-0.7,0.3-1,0.3c-0.3,0.1-0.7,0.1-1.2,0.1c-0.4,0-0.8-0.1-1.2-0.2
				c-0.4-0.2-0.7-0.3-1-0.6c-0.3-0.3-0.5-0.6-0.7-0.9c-0.2-0.4-0.3-0.8-0.3-1.3c0-0.5,0.2-0.9,0.4-1.3c0.3-0.4,0.7-0.8,1.2-1.1
				c0.5-0.3,1.3-0.6,2.2-0.8c0.9-0.3,2-0.3,3.3-0.3v-0.9c0-0.9-0.2-1.6-0.6-2c-0.4-0.4-1-0.7-1.7-0.7c-0.5,0-0.9,0.1-1.2,0.2
				c-0.3,0.2-0.7,0.3-0.9,0.4c-0.2,0.2-0.5,0.3-0.7,0.4c-0.2,0.2-0.3,0.2-0.5,0.2c-0.2,0-0.3,0-0.3-0.1c-0.1-0.1-0.2-0.2-0.3-0.3
				L105.3,13.1z M111.8,17.8c-0.9,0-1.7,0.1-2.4,0.3c-0.7,0.1-1.1,0.3-1.6,0.5c-0.4,0.2-0.7,0.4-0.9,0.7c-0.2,0.3-0.3,0.6-0.3,0.8
				c0,0.3,0.1,0.6,0.2,0.7c0.1,0.3,0.3,0.4,0.4,0.6c0.2,0.2,0.3,0.3,0.6,0.3c0.3,0.1,0.5,0.1,0.7,0.1c0.3,0,0.7,0,1-0.1
				c0.3-0.1,0.6-0.2,0.8-0.3c0.2-0.2,0.5-0.3,0.7-0.5c0.2-0.2,0.5-0.4,0.7-0.7V17.8z"/>
			<path class="st1" d="M125.9,6.3v16.6h-1.2c-0.3,0-0.5-0.2-0.6-0.4l-0.2-1.4c-0.5,0.6-1,1-1.7,1.4c-0.7,0.3-1.3,0.6-2.1,0.6
				c-0.7,0-1.2-0.2-1.8-0.4c-0.6-0.3-1-0.7-1.4-1.1c-0.4-0.5-0.7-1-0.9-1.8c-0.2-0.7-0.3-1.6-0.3-2.5c0-0.8,0.1-1.7,0.3-2.4
				c0.3-0.7,0.6-1.4,1-1.9s0.9-1,1.6-1.2c0.6-0.3,1.3-0.5,2-0.5c0.7,0,1.3,0.1,1.8,0.3c0.5,0.3,1,0.6,1.3,1V6.3
				C123.7,6.3,125.9,6.3,125.9,6.3z M123.9,14.2c-0.4-0.5-0.8-0.8-1.2-1c-0.4-0.2-0.9-0.3-1.5-0.3c-1,0-1.9,0.4-2.4,1.1
				c-0.6,0.7-0.8,1.8-0.8,3.3c0,0.7,0.1,1.4,0.2,1.9c0.2,0.5,0.3,1,0.6,1.3c0.3,0.3,0.6,0.6,0.9,0.7c0.3,0.2,0.7,0.3,1.2,0.3
				c0.7,0,1.2-0.2,1.7-0.5c0.5-0.3,1-0.7,1.4-1.3L123.9,14.2L123.9,14.2z"/>
			<path class="st1" d="M138,21.3c-0.3,0.3-0.6,0.6-0.9,0.8c-0.3,0.3-0.7,0.4-1.1,0.6s-0.8,0.3-1.2,0.3c-0.4,0.1-0.8,0.1-1.2,0.1
				c-0.8,0-1.5-0.2-2.2-0.4s-1.2-0.7-1.7-1.1c-0.5-0.5-0.9-1.1-1.1-1.9c-0.3-0.7-0.4-1.7-0.4-2.6c0-0.8,0.1-1.6,0.3-2.2
				c0.3-0.6,0.6-1.3,1-1.8c0.5-0.5,1-0.9,1.7-1.2c0.7-0.3,1.4-0.4,2.2-0.4c0.7,0,1.3,0.1,1.9,0.3c0.6,0.3,1,0.6,1.5,1
				c0.4,0.4,0.7,1,1,1.7s0.3,1.4,0.3,2.1c0,0.3,0,0.5-0.1,0.7c-0.1,0.1-0.2,0.2-0.4,0.2h-7.6c0,0.7,0.1,1.3,0.3,1.9
				c0.2,0.6,0.4,1,0.7,1.3s0.7,0.7,1.1,0.8c0.4,0.2,0.9,0.3,1.5,0.3c0.5,0,0.9-0.1,1.3-0.2c0.3-0.1,0.7-0.3,0.9-0.4
				c0.3-0.2,0.5-0.3,0.7-0.4c0.2-0.1,0.3-0.2,0.5-0.2s0.3,0.1,0.4,0.2L138,21.3z M136.4,15.9c0-0.5-0.1-0.9-0.2-1.3
				c-0.2-0.4-0.3-0.7-0.6-1c-0.3-0.3-0.6-0.5-0.9-0.7c-0.3-0.2-0.7-0.3-1.2-0.3c-1,0-1.7,0.3-2.3,0.8c-0.6,0.6-0.9,1.3-1,2.3
				L136.4,15.9L136.4,15.9z"/>
			<path class="st1" d="M140.2,22.8V11.5h1.2c0.3,0,0.5,0.2,0.5,0.4l0.2,1.1c0.4-0.5,0.9-0.9,1.4-1.3c0.5-0.3,1.1-0.5,1.8-0.5
				s1.4,0.3,1.9,0.7c0.5,0.4,0.8,1,1,1.7c0.2-0.4,0.4-0.7,0.7-1s0.6-0.6,0.9-0.7s0.7-0.3,1-0.4c0.3-0.1,0.7-0.2,1.1-0.2
				c0.6,0,1.1,0.1,1.7,0.3c0.5,0.2,0.9,0.5,1.2,0.8c0.3,0.3,0.6,0.8,0.7,1.4c0.1,0.6,0.3,1.1,0.3,1.8v7.2h-2v-7.3
				c0-0.9-0.2-1.6-0.6-2c-0.4-0.4-1-0.7-1.7-0.7c-0.3,0-0.7,0.1-0.9,0.2c-0.3,0.1-0.6,0.3-0.8,0.5c-0.3,0.2-0.4,0.5-0.6,0.8
				c-0.2,0.3-0.2,0.7-0.2,1.2v7.3h-2v-7.3c0-0.9-0.2-1.7-0.6-2c-0.3-0.5-0.9-0.7-1.7-0.7c-0.5,0-1,0.2-1.4,0.4
				c-0.4,0.3-0.8,0.7-1.1,1v8.6C142.3,22.8,140.2,22.8,140.2,22.8z"/>
			<path class="st1" d="M168.1,11.5l-6.5,14.8c-0.1,0.2-0.2,0.3-0.3,0.3s-0.3,0.2-0.5,0.2h-1.5l2-4.5l-4.5-10.8h1.7
				c0.2,0,0.3,0.1,0.4,0.2c0.1,0.1,0.2,0.2,0.3,0.3l3.1,7.3c0.1,0.3,0.3,0.7,0.3,1c0.1-0.3,0.3-0.7,0.3-1l3-7.3
				c0.1-0.1,0.1-0.3,0.3-0.3c0.1-0.1,0.3-0.1,0.3-0.1L168.1,11.5L168.1,11.5z"/>
		</g>
	</g>
</g>
<rect x="13.2" y="31.3" class="st2" width="154.9" height="0.7"/>
<g>
	<path class="st0" d="M176.1,18.3c0,0,2,3.6,6,5.3c0,0,0.5,0.3,1.4,0.5s1.3,0.9,1.3,0.9s0.7,0.7,0.8,2.7c0.1,2.2-1.2,6.7-1.2,6.7
		s-1.4,4-2.1,4.9c-0.7,0.9-1.4,2.5-3.4,4c-2.1,1.4-2.9,1.2-2.9,1.2L176.1,18.3z"/>
	<path class="st1" d="M172.4,11.1l0.9-1.4c0,0-0.3-4.4,3.1-5.7V2.8h19.7v1.5h-3.3v2.5c0,0-5.9-3-13.1-0.1l-0.1-2.4h-3.1
		c0,0-2.9,0.9-2.7,5.4l0.9,1.4L172.4,11.1"/>
	<g>
		<path class="st0" d="M186.3,6.5c-4.4,0-10.5,1.8-10.5,8.3c0,6.4,10,8.9,10.5,8.9c0.5,0,10.4-2.4,10.4-8.9
			C196.7,8.3,190.6,6.5,186.3,6.5z M194.4,17.1c-2.5,3.4-6.8,3.7-6.8,3.7l-1.4,2.5l-1.4-2.5c0,0-4.7-0.7-6.8-3.6c-2.2-3,0-6.2,0-6.2
			c3.4-4.4,8.2-0.8,8.2-0.8c1.7-1.6,6.2-2.4,8.2,0.9C196.5,14.4,194.4,17.1,194.4,17.1z"/>
		<path class="st0" d="M188.9,16.2c3.3-0.3,3.4-2.2,3.4-2.2C189.2,11.9,188.9,16.2,188.9,16.2z"/>
		<path class="st0" d="M180.5,14c0,0,0.1,1.8,3.4,2.2C183.8,16.2,183.4,11.9,180.5,14z"/>
	</g>
	<path class="st1" d="M185.9,24.8c0,0,2.2,1.1-0.9,10.2c-3,9.1-7.1,10.2-9.1,10.3v2.1c0,0,19.2-4.7,20.7-18.1V19.2
		C196.7,19,192.7,24,185.9,24.8z"/>
</g>
<g>
	<path class="st2" d="M17.2,43.3v-5.9h1.6c0.7,0,1.1,0,1.4,0.1c0.3,0,0.5,0.1,0.7,0.2c0.2,0.1,0.4,0.3,0.5,0.5
		c0.1,0.2,0.2,0.4,0.2,0.7c0,0.3-0.1,0.6-0.3,0.8c-0.2,0.2-0.4,0.3-0.8,0.4c0.4,0,0.7,0.2,1,0.4c0.2,0.3,0.4,0.6,0.4,1.1
		c0,0.3-0.1,0.6-0.2,0.8c-0.1,0.2-0.3,0.4-0.6,0.6c-0.2,0.1-0.4,0.2-0.7,0.2c-0.3,0-0.8,0.1-1.5,0.1H17.2z M18.7,39.8H19
		c0.4,0,0.7,0,0.8-0.1c0.1-0.1,0.2-0.2,0.2-0.5c0-0.2-0.1-0.4-0.2-0.5c-0.2-0.1-0.4-0.1-0.8-0.1h-0.3V39.8z M18.7,42.1h0.6
		c0.4,0,0.7,0,0.8-0.1c0.2-0.1,0.2-0.2,0.2-0.5c0-0.2-0.1-0.4-0.2-0.5c-0.1-0.1-0.4-0.1-0.8-0.1h-0.6V42.1z"/>
	<path class="st2" d="M22.8,43.3v-5.9h1.7c0.3,0,0.6,0,0.8,0c0.2,0,0.4,0,0.6,0.1c0.3,0.1,0.5,0.2,0.7,0.3c0.2,0.2,0.4,0.4,0.5,0.6
		c0.1,0.2,0.2,0.5,0.2,0.8c0,0.5-0.1,0.8-0.3,1.1c-0.2,0.3-0.5,0.5-1,0.6l1.6,2.4h-1.8L24.3,41v2.3H22.8z M24.3,40.2h0.3
		c0.4,0,0.6-0.1,0.8-0.2c0.2-0.1,0.2-0.3,0.2-0.6c0-0.3-0.1-0.5-0.2-0.6c-0.2-0.1-0.4-0.2-0.8-0.2h-0.3V40.2z"/>
	<path class="st2" d="M28.2,43.3v-5.9h1.6v5.9H28.2z"/>
	<path class="st2" d="M31.1,43.3v-5.9h1.6l2.2,3c0.1,0.1,0.1,0.2,0.2,0.4c0.1,0.2,0.2,0.4,0.3,0.7c0-0.3-0.1-0.5-0.1-0.6
		c0-0.2,0-0.4,0-0.5v-2.9h1.5v5.9h-1.5l-2.2-3c0,0-0.1-0.2-0.2-0.4c-0.1-0.2-0.2-0.4-0.3-0.7c0,0.2,0.1,0.4,0.1,0.7
		c0,0.3,0,0.4,0,0.5v2.9H31.1z"/>
	<path class="st2" d="M40.9,41.1v-1.2h3.2c0,0.1,0,0.1,0,0.1v0.2c0,1-0.3,1.8-0.8,2.4c-0.5,0.6-1.3,0.8-2.3,0.8
		c-0.5,0-0.9-0.1-1.3-0.2c-0.4-0.1-0.7-0.4-1-0.7c-0.3-0.3-0.5-0.6-0.6-1C38,41.4,38,41.2,37.9,41c0-0.2-0.1-0.4-0.1-0.6
		c0-0.4,0.1-0.8,0.2-1.2c0.2-0.4,0.4-0.7,0.7-1c0.3-0.3,0.6-0.5,1-0.7c0.4-0.1,0.8-0.2,1.2-0.2c0.6,0,1.1,0.1,1.5,0.3
		c0.1,0.1,0.3,0.2,0.4,0.3c0.1,0.1,0.3,0.2,0.4,0.3c0.1,0.1,0.2,0.3,0.3,0.4l-1.4,0.7c-0.2-0.2-0.4-0.4-0.6-0.5
		c-0.2-0.1-0.4-0.2-0.7-0.2c-0.5,0-0.9,0.2-1.1,0.5c-0.3,0.3-0.4,0.8-0.4,1.3c0,0.6,0.1,1,0.4,1.3c0.3,0.3,0.6,0.5,1.1,0.5
		c0.4,0,0.8-0.1,1-0.3c0.3-0.2,0.4-0.5,0.5-0.8H40.9z"/>
	<path class="st2" d="M47.9,43.3v-5.9h1.2c0.9,0,1.6,0,1.9,0.1c0.4,0.1,0.7,0.2,1,0.4c0.4,0.3,0.7,0.6,0.9,1
		c0.2,0.4,0.3,0.9,0.3,1.4c0,0.5-0.1,1-0.3,1.4c-0.2,0.4-0.5,0.7-0.9,1c-0.3,0.2-0.6,0.3-1,0.4c-0.4,0.1-0.9,0.1-1.7,0.1h-0.3H47.9z
		 M49.5,42h0.3c0.6,0,1.1-0.1,1.4-0.4c0.3-0.3,0.4-0.7,0.4-1.2c0-0.6-0.1-1-0.4-1.2c-0.3-0.3-0.8-0.4-1.4-0.4h-0.3V42z"/>
	<path class="st2" d="M54.3,43.3v-5.9h1.6v5.9H54.3z"/>
	<path class="st2" d="M60,41.1v-1.2h3.2c0,0.1,0,0.1,0,0.1v0.2c0,1-0.3,1.8-0.8,2.4c-0.5,0.6-1.3,0.8-2.3,0.8
		c-0.5,0-0.9-0.1-1.3-0.2c-0.4-0.1-0.7-0.4-1-0.7c-0.3-0.3-0.5-0.6-0.6-1C57.1,41.4,57,41.2,57,41c0-0.2-0.1-0.4-0.1-0.6
		c0-0.4,0.1-0.8,0.2-1.2c0.2-0.4,0.4-0.7,0.7-1c0.3-0.3,0.6-0.5,1-0.7c0.4-0.1,0.8-0.2,1.2-0.2c0.6,0,1.1,0.1,1.5,0.3
		c0.1,0.1,0.3,0.2,0.4,0.3c0.1,0.1,0.3,0.2,0.4,0.3c0.1,0.1,0.2,0.3,0.3,0.4l-1.4,0.7c-0.2-0.2-0.4-0.4-0.6-0.5
		c-0.2-0.1-0.4-0.2-0.7-0.2c-0.5,0-0.9,0.2-1.1,0.5c-0.3,0.3-0.4,0.8-0.4,1.3c0,0.6,0.1,1,0.4,1.3c0.3,0.3,0.6,0.5,1.1,0.5
		c0.4,0,0.8-0.1,1-0.3c0.3-0.2,0.4-0.5,0.5-0.8H60z"/>
	<path class="st2" d="M64.2,43.3v-5.9h1.6v5.9H64.2z"/>
	<path class="st2" d="M68,43.3v-4.5h-1.3v-1.4h4.3v1.4h-1.3v4.5H68z"/>
	<path class="st2" d="M71,43.3l2-5.9h2l2,5.9h-1.6l-0.3-1.1h-2.3l-0.3,1.1H71z M73.2,41.1h1.6l-0.6-1.9c0,0,0-0.1-0.1-0.3
		c0-0.2-0.1-0.4-0.1-0.5c0,0.1-0.1,0.3-0.1,0.4c0,0.1-0.1,0.3-0.1,0.4L73.2,41.1z"/>
	<path class="st2" d="M77.6,43.3v-5.9h1.6v4.5h2v1.4H77.6z"/>
	<path class="st2" d="M85.5,43.3v-4.5h-1.3v-1.4h4.3v1.4h-1.3v4.5H85.5z"/>
	<path class="st2" d="M89.2,43.3v-5.9h1.7c0.3,0,0.6,0,0.8,0c0.2,0,0.4,0,0.6,0.1c0.3,0.1,0.5,0.2,0.7,0.3c0.2,0.2,0.4,0.4,0.5,0.6
		c0.1,0.2,0.2,0.5,0.2,0.8c0,0.5-0.1,0.8-0.3,1.1c-0.2,0.3-0.5,0.5-1,0.6l1.6,2.4H92L90.7,41v2.3H89.2z M90.7,40.2H91
		c0.4,0,0.6-0.1,0.8-0.2c0.2-0.1,0.2-0.3,0.2-0.6c0-0.3-0.1-0.5-0.2-0.6c-0.2-0.1-0.4-0.2-0.8-0.2h-0.3V40.2z"/>
	<path class="st2" d="M93.8,43.3l2-5.9h2l2,5.9h-1.6L98,42.3h-2.3l-0.3,1.1H93.8z M96,41.1h1.6L97,39.2c0,0,0-0.1-0.1-0.3
		c0-0.2-0.1-0.4-0.1-0.5c0,0.1-0.1,0.3-0.1,0.4c0,0.1-0.1,0.3-0.1,0.4L96,41.1z"/>
	<path class="st2" d="M100.5,43.3v-5.9h1.6v5.9H100.5z"/>
	<path class="st2" d="M103.4,43.3v-5.9h1.6l2.2,3c0.1,0.1,0.1,0.2,0.2,0.4c0.1,0.2,0.2,0.4,0.3,0.7c0-0.3-0.1-0.5-0.1-0.6
		c0-0.2,0-0.4,0-0.5v-2.9h1.5v5.9h-1.5l-2.2-3c0,0-0.1-0.2-0.2-0.4c-0.1-0.2-0.2-0.4-0.3-0.7c0,0.2,0.1,0.4,0.1,0.7
		c0,0.3,0,0.4,0,0.5v2.9H103.4z"/>
	<path class="st2" d="M110.5,43.3v-5.9h1.6v5.9H110.5z"/>
	<path class="st2" d="M113.4,43.3v-5.9h1.6l2.2,3c0.1,0.1,0.1,0.2,0.2,0.4c0.1,0.2,0.2,0.4,0.3,0.7c0-0.3-0.1-0.5-0.1-0.6
		c0-0.2,0-0.4,0-0.5v-2.9h1.5v5.9h-1.5l-2.2-3c0,0-0.1-0.2-0.2-0.4c-0.1-0.2-0.2-0.4-0.3-0.7c0,0.2,0.1,0.4,0.1,0.7
		c0,0.3,0,0.4,0,0.5v2.9H113.4z"/>
	<path class="st2" d="M123.2,41.1v-1.2h3.2c0,0.1,0,0.1,0,0.1v0.2c0,1-0.3,1.8-0.8,2.4c-0.5,0.6-1.3,0.8-2.3,0.8
		c-0.5,0-0.9-0.1-1.3-0.2c-0.4-0.1-0.7-0.4-1-0.7c-0.3-0.3-0.5-0.6-0.6-1c-0.1-0.2-0.1-0.4-0.2-0.6c0-0.2-0.1-0.4-0.1-0.6
		c0-0.4,0.1-0.8,0.2-1.2c0.2-0.4,0.4-0.7,0.7-1c0.3-0.3,0.6-0.5,1-0.7c0.4-0.1,0.8-0.2,1.2-0.2c0.6,0,1.1,0.1,1.5,0.3
		c0.1,0.1,0.3,0.2,0.4,0.3c0.1,0.1,0.3,0.2,0.4,0.3c0.1,0.1,0.2,0.3,0.3,0.4l-1.4,0.7c-0.2-0.2-0.4-0.4-0.6-0.5
		c-0.2-0.1-0.4-0.2-0.7-0.2c-0.5,0-0.9,0.2-1.1,0.5c-0.3,0.3-0.4,0.8-0.4,1.3c0,0.6,0.1,1,0.4,1.3c0.3,0.3,0.6,0.5,1.1,0.5
		c0.4,0,0.8-0.1,1-0.3c0.3-0.2,0.4-0.5,0.5-0.8H123.2z"/>
	<path class="st2" d="M130.8,43.3v-4.5h-1.3v-1.4h4.3v1.4h-1.3v4.5H130.8z"/>
	<path class="st2" d="M140.6,40.4c0,0.4-0.1,0.8-0.2,1.2c-0.2,0.4-0.4,0.7-0.7,1c-0.3,0.3-0.6,0.5-1,0.7c-0.4,0.2-0.8,0.2-1.2,0.2
		c-0.4,0-0.8-0.1-1.2-0.2c-0.4-0.2-0.7-0.4-1-0.7c-0.3-0.3-0.5-0.6-0.7-1c-0.2-0.4-0.2-0.8-0.2-1.2c0-0.4,0.1-0.8,0.2-1.2
		c0.2-0.4,0.4-0.7,0.7-1c0.3-0.3,0.6-0.5,1-0.7c0.4-0.2,0.8-0.2,1.2-0.2c0.4,0,0.8,0.1,1.2,0.2c0.4,0.2,0.7,0.4,1,0.7
		c0.3,0.3,0.5,0.6,0.7,1C140.5,39.6,140.6,40,140.6,40.4z M137.4,42.1c0.4,0,0.8-0.2,1.1-0.5c0.1-0.2,0.3-0.3,0.3-0.6
		c0.1-0.2,0.1-0.4,0.1-0.7c0-0.5-0.1-0.9-0.4-1.2c-0.3-0.3-0.7-0.5-1.1-0.5c-0.4,0-0.8,0.2-1.1,0.5c-0.3,0.3-0.4,0.7-0.4,1.2
		c0,0.5,0.1,0.9,0.4,1.2C136.6,42,137,42.1,137.4,42.1z"/>
	<path class="st2" d="M144.2,43.3v-5.9h1.6v4.5h2v1.4H144.2z"/>
	<path class="st2" d="M148.6,43.3v-5.9h1.6v5.9H148.6z"/>
	<path class="st2" d="M151.5,43.3v-5.9h3.6v1.3h-2v1h1.9V41h-1.9v2.3H151.5z"/>
	<path class="st2" d="M156,43.3v-5.9h3.6v1.3h-2v1h1.9V41h-1.9v1h2v1.3H156z"/>
</g>
<g>
	<path class="st0" d="M162.6,40l-0.4-0.8l2.3-1.2l-2.3-1.2l0.4-0.8l2.2,1.4l-0.1-2.7h0.9l-0.1,2.7l2.2-1.4l0.4,0.7l-2.2,1.2l2.2,1.2
		l-0.5,0.8l-2.2-1.3l0.1,2.6h-0.8l0.1-2.6L162.6,40z"/>
</g>
</svg>
