<?xml version="1.0" encoding="utf-8"?>
<!-- Generator: Adobe Illustrator 23.0.1, SVG Export Plug-In . SVG Version: 6.00 Build 0)  -->
<svg version="1.1" id="Calque_1" xmlns="http://www.w3.org/2000/svg" xmlns:xlink="http://www.w3.org/1999/xlink" x="0px" y="0px"
	 viewBox="0 0 211.3 50.9" style="enable-background:new 0 0 211.3 50.9;" xml:space="preserve">
<style type="text/css">
	.st0{fill:#999999;}
	.st1{fill:#BD3C30;}
	.st2{fill:#818182;}
</style>
<rect x="1.3" y="24.5" class="st0" width="145.5" height="0.3"/>
<g>
	<path class="st1" d="M156.4,14.4c0,0,1.8,3.3,5.5,4.9c0,0,0.5,0.3,1.3,0.5s1.2,0.8,1.2,0.8s0.6,0.6,0.7,2.5c0.1,2-1.1,6.2-1.1,6.2
		s-1.3,3.7-1.9,4.5c-0.6,0.8-1.3,2.3-3.1,3.7c-1.9,1.3-2.7,1.1-2.7,1.1L156.4,14.4z"/>
	<path class="st2" d="M153,7.7l0.8-1.3c0,0-0.3-4.1,2.9-5.3v-1h18.2v1.4h-3v2.3c0,0-5.4-2.8-12.1-0.1l-0.1-2.2h-2.9
		c0,0-2.7,0.8-2.5,5l0.8,1.3L153,7.7"/>
	<g>
		<path class="st1" d="M165.8,3.5c-4.1,0-9.7,1.7-9.7,7.7c0,5.9,9.2,8.2,9.7,8.2c0.5,0,9.6-2.2,9.6-8.2
			C175.4,5.1,169.8,3.5,165.8,3.5z M173.3,13.3c-2.3,3.1-6.3,3.4-6.3,3.4l-1.3,2.3l-1.3-2.3c0,0-4.3-0.6-6.3-3.3c-2-2.8,0-5.7,0-5.7
			c3.1-4.1,7.6-0.7,7.6-0.7c1.6-1.5,5.7-2.2,7.6,0.8S173.3,13.3,173.3,13.3z"/>
		<path class="st1" d="M168.2,12.4c3-0.3,3.1-2,3.1-2C168.5,8.5,168.2,12.4,168.2,12.4z"/>
		<path class="st1" d="M160.4,10.4c0,0,0.1,1.7,3.1,2C163.5,12.4,163.1,8.5,160.4,10.4z"/>
	</g>
	<path class="st2" d="M165.4,20.4c0,0,2,1-0.8,9.4c-2.8,8.4-6.5,9.4-8.4,9.5v1.9c0,0,17.7-4.3,19.1-16.7v-9.3
		C175.4,15,171.7,19.6,165.4,20.4z"/>
</g>
<g>
	<path class="st1" d="M137,32.3l-0.3-0.6l1.8-0.9l-1.8-1l0.3-0.6l1.7,1.1l0-2.1h0.7l-0.1,2.1l1.7-1.1l0.3,0.6l-1.8,1l1.8,0.9
		l-0.4,0.6l-1.7-1.1l0.1,2h-0.7l0.1-2L137,32.3z"/>
</g>
<g>
	<g>
		<g>
			<path class="st1" d="M15,9.3c0,1.1-0.2,2.2-0.6,3.1c-0.4,0.9-0.9,1.8-1.6,2.4c-0.7,0.7-1.5,1.2-2.5,1.6c-1,0.4-2,0.6-3.2,0.6H1.3
				V1.7h5.8c1.2,0,2.2,0.2,3.2,0.6c1,0.4,1.8,0.9,2.5,1.6c0.7,0.7,1.2,1.5,1.6,2.4C14.8,7.2,15,8.2,15,9.3z M12,9.3
				c0-0.8-0.1-1.6-0.3-2.3c-0.2-0.7-0.5-1.2-1-1.7c-0.4-0.5-0.9-0.8-1.5-1.1c-0.6-0.2-1.3-0.4-2-0.4h-3v10.8h3c0.7,0,1.4-0.1,2-0.4
				c0.6-0.2,1.1-0.6,1.5-1.1c0.4-0.5,0.7-1,1-1.7C11.9,10.9,12,10.2,12,9.3z"/>
			<path class="st1" d="M20.1,2.9c0,0.2,0,0.4-0.1,0.6c-0.1,0.2-0.2,0.4-0.4,0.5c-0.2,0.1-0.3,0.3-0.5,0.4c-0.2,0.1-0.4,0.1-0.7,0.1
				c-0.2,0-0.4,0-0.6-0.1c-0.2-0.1-0.4-0.2-0.5-0.4c-0.1-0.1-0.3-0.3-0.4-0.5c-0.1-0.2-0.1-0.4-0.1-0.6c0-0.2,0-0.5,0.1-0.7
				c0.1-0.2,0.2-0.4,0.4-0.5c0.1-0.1,0.3-0.3,0.5-0.4c0.2-0.1,0.4-0.1,0.6-0.1c0.2,0,0.5,0,0.7,0.1c0.2,0.1,0.4,0.2,0.5,0.4
				c0.2,0.1,0.3,0.3,0.4,0.5C20,2.5,20.1,2.7,20.1,2.9z M19.7,6.1V17h-2.6V6.1H19.7z"/>
			<path class="st1" d="M32,6.5v1C32,7.8,31.9,8,31.5,8l-1,0.2c0.1,0.4,0.2,0.8,0.2,1.2c0,0.5-0.1,1-0.3,1.5
				c-0.2,0.4-0.5,0.8-0.9,1.1c-0.4,0.3-0.8,0.5-1.4,0.7c-0.5,0.2-1.1,0.2-1.7,0.2c-0.2,0-0.4,0-0.6,0c-0.2,0-0.4,0-0.6-0.1
				c-0.3,0.2-0.5,0.4-0.5,0.7c0,0.2,0.1,0.4,0.3,0.5c0.2,0.1,0.5,0.2,0.8,0.2c0.3,0,0.7,0.1,1.1,0.1c0.4,0,0.9,0,1.3,0.1
				c0.4,0,0.9,0.1,1.3,0.2c0.4,0.1,0.8,0.2,1.1,0.4c0.3,0.2,0.6,0.5,0.8,0.8c0.2,0.3,0.3,0.8,0.3,1.3c0,0.5-0.1,0.9-0.4,1.4
				c-0.2,0.5-0.6,0.9-1,1.2c-0.4,0.4-1,0.6-1.7,0.9c-0.7,0.2-1.4,0.3-2.2,0.3c-0.8,0-1.5-0.1-2.1-0.2c-0.6-0.2-1.1-0.4-1.5-0.6
				c-0.4-0.3-0.7-0.6-0.9-0.9c-0.2-0.3-0.3-0.7-0.3-1.1c0-0.5,0.2-0.9,0.5-1.3c0.3-0.3,0.7-0.6,1.3-0.8c-0.3-0.1-0.5-0.3-0.7-0.6
				c-0.2-0.2-0.3-0.6-0.3-1c0-0.2,0-0.3,0.1-0.5c0.1-0.2,0.1-0.3,0.3-0.5c0.1-0.2,0.3-0.3,0.4-0.5c0.2-0.2,0.4-0.3,0.6-0.4
				c-0.6-0.3-1-0.7-1.3-1.2c-0.3-0.5-0.5-1.1-0.5-1.7c0-0.5,0.1-1,0.3-1.5c0.2-0.4,0.5-0.8,0.9-1.1c0.4-0.3,0.8-0.5,1.4-0.7
				c0.5-0.2,1.1-0.2,1.7-0.2c0.5,0,0.9,0,1.3,0.1c0.4,0.1,0.8,0.2,1.1,0.4H32z M29.4,17.5c0-0.2-0.1-0.4-0.2-0.5
				c-0.1-0.1-0.3-0.2-0.5-0.3c-0.2-0.1-0.5-0.1-0.8-0.2c-0.3,0-0.6-0.1-0.9-0.1c-0.3,0-0.7,0-1,0c-0.4,0-0.7,0-1-0.1
				c-0.3,0.2-0.5,0.4-0.7,0.6c-0.2,0.2-0.3,0.5-0.3,0.8c0,0.2,0,0.4,0.1,0.5c0.1,0.2,0.2,0.3,0.5,0.4c0.2,0.1,0.5,0.2,0.8,0.3
				c0.3,0.1,0.7,0.1,1.2,0.1c0.5,0,0.9,0,1.3-0.1c0.4-0.1,0.6-0.2,0.9-0.3c0.2-0.1,0.4-0.3,0.5-0.5C29.4,17.9,29.4,17.7,29.4,17.5z
				 M26.5,11.3c0.3,0,0.6,0,0.8-0.1c0.2-0.1,0.4-0.2,0.6-0.4c0.2-0.2,0.3-0.3,0.4-0.6c0.1-0.2,0.1-0.5,0.1-0.7c0-0.5-0.2-1-0.5-1.3
				c-0.3-0.3-0.8-0.5-1.4-0.5c-0.6,0-1.1,0.2-1.4,0.5c-0.3,0.3-0.5,0.7-0.5,1.3c0,0.3,0,0.5,0.1,0.7c0.1,0.2,0.2,0.4,0.4,0.6
				c0.2,0.2,0.4,0.3,0.6,0.4C25.9,11.3,26.1,11.3,26.5,11.3z"/>
			<path class="st1" d="M36.9,2.9c0,0.2,0,0.4-0.1,0.6c-0.1,0.2-0.2,0.4-0.4,0.5c-0.2,0.1-0.3,0.3-0.5,0.4c-0.2,0.1-0.4,0.1-0.7,0.1
				c-0.2,0-0.4,0-0.6-0.1c-0.2-0.1-0.4-0.2-0.5-0.4c-0.1-0.1-0.3-0.3-0.4-0.5c-0.1-0.2-0.1-0.4-0.1-0.6c0-0.2,0-0.5,0.1-0.7
				c0.1-0.2,0.2-0.4,0.4-0.5c0.1-0.1,0.3-0.3,0.5-0.4c0.2-0.1,0.4-0.1,0.6-0.1c0.2,0,0.5,0,0.7,0.1c0.2,0.1,0.4,0.2,0.5,0.4
				c0.2,0.1,0.3,0.3,0.4,0.5C36.8,2.5,36.9,2.7,36.9,2.9z M36.5,6.1V17h-2.6V6.1H36.5z"/>
			<path class="st1" d="M42.9,17.2c-0.9,0-1.7-0.3-2.2-0.8c-0.5-0.5-0.8-1.3-0.8-2.2V8.1h-1.1c-0.1,0-0.3,0-0.4-0.1
				c-0.1-0.1-0.1-0.2-0.1-0.4v-1l1.8-0.3l0.6-3c0-0.1,0.1-0.3,0.2-0.3c0.1-0.1,0.2-0.1,0.4-0.1h1.4v3.4h2.9v1.9h-2.9V14
				c0,0.3,0.1,0.6,0.2,0.8c0.2,0.2,0.4,0.3,0.7,0.3c0.2,0,0.3,0,0.4-0.1c0.1,0,0.2-0.1,0.3-0.1c0.1,0,0.2-0.1,0.2-0.1
				c0.1,0,0.1-0.1,0.2-0.1c0.1,0,0.1,0,0.2,0.1c0,0,0.1,0.1,0.2,0.2l0.8,1.3c-0.4,0.3-0.8,0.6-1.3,0.7C44,17.1,43.5,17.2,42.9,17.2z
				"/>
			<path class="st1" d="M47,7.6c1.3-1.1,2.8-1.7,4.5-1.7c0.6,0,1.2,0.1,1.7,0.3c0.5,0.2,0.9,0.5,1.3,0.9c0.3,0.4,0.6,0.8,0.8,1.3
				c0.2,0.5,0.3,1.1,0.3,1.7V17h-1.2c-0.2,0-0.4,0-0.6-0.1c-0.1-0.1-0.2-0.2-0.3-0.5l-0.2-0.8c-0.3,0.2-0.5,0.5-0.8,0.7
				c-0.3,0.2-0.5,0.3-0.8,0.5c-0.3,0.1-0.6,0.2-0.9,0.3c-0.3,0.1-0.7,0.1-1.1,0.1c-0.5,0-0.9-0.1-1.3-0.2c-0.4-0.1-0.7-0.3-1-0.6
				c-0.3-0.2-0.5-0.6-0.7-0.9c-0.2-0.4-0.2-0.8-0.2-1.3c0-0.3,0-0.6,0.1-0.8c0.1-0.3,0.2-0.5,0.5-0.8c0.2-0.2,0.5-0.5,0.8-0.7
				c0.3-0.2,0.7-0.4,1.2-0.6c0.5-0.2,1-0.3,1.7-0.4c0.6-0.1,1.4-0.2,2.2-0.2v-0.6c0-0.7-0.2-1.3-0.5-1.6C52.3,8.2,51.8,8,51.2,8
				c-0.4,0-0.8,0-1.1,0.1c-0.3,0.1-0.5,0.2-0.7,0.3c-0.2,0.1-0.4,0.2-0.6,0.3C48.7,8.9,48.5,9,48.3,9c-0.2,0-0.3,0-0.5-0.1
				c-0.1-0.1-0.2-0.2-0.3-0.3L47,7.6z M53.1,12.4c-0.8,0-1.4,0.1-1.9,0.2c-0.5,0.1-0.9,0.2-1.2,0.4c-0.3,0.1-0.5,0.3-0.7,0.5
				c-0.1,0.2-0.2,0.4-0.2,0.6c0,0.5,0.1,0.8,0.4,1c0.3,0.2,0.6,0.3,1.1,0.3c0.5,0,1-0.1,1.4-0.3c0.4-0.2,0.8-0.5,1.2-0.9V12.4z"/>
			<path class="st1" d="M60.8,1.2V17h-2.6V1.2H60.8z"/>
		</g>
	</g>
	<g>
		<g>
			<path class="st2" d="M77.4,17h-1.6c-0.2,0-0.3,0-0.4-0.1c-0.1-0.1-0.2-0.2-0.3-0.3l-1.4-3.7h-6.8l-1.4,3.7c0,0.1-0.1,0.2-0.2,0.3
				C65.1,17,65,17,64.8,17h-1.6l6.1-15.2h2.1L77.4,17z M73.1,11.4l-2.4-6.2c-0.1-0.2-0.1-0.4-0.2-0.6c-0.1-0.2-0.2-0.5-0.2-0.8
				c-0.1,0.6-0.3,1-0.5,1.4l-2.4,6.2H73.1z"/>
			<path class="st2" d="M85.8,8.2c-0.1,0.1-0.1,0.1-0.2,0.2c-0.1,0-0.1,0.1-0.2,0.1c-0.1,0-0.2,0-0.3-0.1C85,8.2,84.8,8.1,84.6,8
				c-0.2-0.1-0.4-0.2-0.7-0.3c-0.3-0.1-0.6-0.1-1-0.1c-0.5,0-1,0.1-1.4,0.3c-0.4,0.2-0.7,0.5-1,0.8C80.2,9.1,80,9.5,79.9,10
				c-0.1,0.5-0.2,1.1-0.2,1.7c0,0.7,0.1,1.2,0.2,1.7c0.1,0.5,0.4,0.9,0.6,1.3c0.3,0.3,0.6,0.6,1,0.8c0.4,0.2,0.8,0.3,1.3,0.3
				c0.5,0,0.8-0.1,1.1-0.2c0.3-0.1,0.5-0.2,0.7-0.4c0.2-0.1,0.4-0.3,0.5-0.4c0.1-0.1,0.3-0.2,0.4-0.2c0.2,0,0.3,0.1,0.4,0.2l0.5,0.7
				c-0.2,0.3-0.5,0.5-0.8,0.7c-0.3,0.2-0.6,0.4-1,0.5c-0.3,0.1-0.7,0.2-1.1,0.3c-0.4,0.1-0.8,0.1-1.1,0.1c-0.7,0-1.3-0.1-1.9-0.4
				c-0.6-0.2-1.1-0.6-1.5-1.1c-0.4-0.5-0.8-1-1-1.7c-0.2-0.7-0.4-1.5-0.4-2.3c0-0.8,0.1-1.5,0.3-2.2c0.2-0.7,0.5-1.3,1-1.8
				c0.4-0.5,1-0.9,1.6-1.1c0.6-0.3,1.3-0.4,2.2-0.4c0.8,0,1.4,0.1,2,0.4c0.6,0.2,1.1,0.6,1.5,1L85.8,8.2z"/>
			<path class="st2" d="M87.9,7.8c0.6-0.6,1.2-1,1.9-1.3c0.7-0.3,1.4-0.4,2.3-0.4c0.6,0,1.1,0.1,1.6,0.3c0.5,0.2,0.9,0.5,1.2,0.8
				c0.3,0.4,0.6,0.8,0.7,1.3c0.2,0.5,0.2,1.1,0.2,1.7V17H95c-0.2,0-0.3,0-0.4-0.1c-0.1-0.1-0.2-0.2-0.2-0.4l-0.2-1
				c-0.3,0.3-0.6,0.5-0.8,0.7c-0.3,0.2-0.6,0.4-0.8,0.5c-0.3,0.1-0.6,0.2-0.9,0.3c-0.3,0.1-0.7,0.1-1.1,0.1c-0.4,0-0.8-0.1-1.2-0.2
				c-0.4-0.1-0.7-0.3-1-0.5c-0.3-0.2-0.5-0.5-0.6-0.9c-0.2-0.4-0.2-0.8-0.2-1.3c0-0.4,0.1-0.8,0.3-1.2c0.2-0.4,0.6-0.7,1.1-1
				c0.5-0.3,1.2-0.6,2-0.7c0.8-0.2,1.9-0.3,3.1-0.3v-0.8c0-0.8-0.2-1.5-0.5-1.9c-0.4-0.4-0.9-0.6-1.6-0.6c-0.5,0-0.9,0.1-1.2,0.2
				c-0.3,0.1-0.6,0.2-0.8,0.4c-0.2,0.1-0.4,0.3-0.6,0.4c-0.2,0.1-0.3,0.2-0.5,0.2c-0.1,0-0.2,0-0.3-0.1c-0.1-0.1-0.2-0.2-0.2-0.2
				L87.9,7.8z M94,12.2c-0.9,0-1.6,0.1-2.2,0.2c-0.6,0.1-1.1,0.3-1.5,0.4c-0.4,0.2-0.7,0.4-0.8,0.6c-0.2,0.2-0.3,0.5-0.3,0.8
				c0,0.3,0,0.5,0.1,0.7c0.1,0.2,0.2,0.4,0.4,0.5c0.2,0.1,0.3,0.2,0.6,0.3c0.2,0.1,0.4,0.1,0.7,0.1c0.3,0,0.6,0,0.9-0.1
				c0.3-0.1,0.5-0.2,0.8-0.3c0.2-0.1,0.5-0.3,0.7-0.5c0.2-0.2,0.4-0.4,0.7-0.6V12.2z"/>
			<path class="st2" d="M107.2,1.4V17h-1.1c-0.3,0-0.4-0.1-0.5-0.4l-0.2-1.3c-0.5,0.6-1,1-1.6,1.3c-0.6,0.3-1.3,0.5-2,0.5
				c-0.6,0-1.2-0.1-1.7-0.4c-0.5-0.2-0.9-0.6-1.3-1c-0.4-0.5-0.6-1-0.8-1.7c-0.2-0.7-0.3-1.5-0.3-2.4c0-0.8,0.1-1.5,0.3-2.2
				c0.2-0.7,0.5-1.3,0.9-1.8c0.4-0.5,0.9-0.9,1.5-1.2c0.6-0.3,1.2-0.4,1.9-0.4c0.7,0,1.2,0.1,1.7,0.3c0.5,0.2,0.9,0.5,1.3,0.9V1.4
				C105.3,1.4,107.2,1.4,107.2,1.4z M105.3,8.9c-0.4-0.5-0.7-0.8-1.1-1c-0.4-0.2-0.9-0.3-1.4-0.3c-1,0-1.8,0.4-2.3,1.1
				c-0.5,0.7-0.8,1.7-0.8,3.1c0,0.7,0.1,1.3,0.2,1.8c0.1,0.5,0.3,0.9,0.5,1.2c0.2,0.3,0.5,0.6,0.9,0.7c0.3,0.1,0.7,0.2,1.2,0.2
				c0.6,0,1.2-0.1,1.6-0.4c0.5-0.3,0.9-0.7,1.3-1.2V8.9z"/>
			<path class="st2" d="M118.6,15.5c-0.2,0.3-0.5,0.5-0.8,0.7c-0.3,0.2-0.7,0.4-1,0.5c-0.4,0.1-0.8,0.2-1.2,0.3
				c-0.4,0.1-0.8,0.1-1.2,0.1c-0.7,0-1.4-0.1-2.1-0.4c-0.6-0.3-1.2-0.6-1.6-1.1c-0.5-0.5-0.8-1.1-1.1-1.8c-0.3-0.7-0.4-1.5-0.4-2.5
				c0-0.7,0.1-1.4,0.3-2.1c0.2-0.7,0.6-1.2,1-1.7c0.4-0.5,1-0.9,1.6-1.1c0.6-0.3,1.3-0.4,2.1-0.4c0.6,0,1.2,0.1,1.8,0.3
				c0.5,0.2,1,0.5,1.4,0.9c0.4,0.4,0.7,0.9,0.9,1.5c0.2,0.6,0.3,1.3,0.3,2c0,0.3,0,0.5-0.1,0.6c-0.1,0.1-0.2,0.1-0.4,0.1h-7.2
				c0,0.7,0.1,1.3,0.3,1.8c0.2,0.5,0.4,0.9,0.7,1.3c0.3,0.3,0.7,0.6,1.1,0.8c0.4,0.2,0.9,0.2,1.4,0.2c0.5,0,0.9-0.1,1.2-0.2
				c0.3-0.1,0.6-0.2,0.9-0.4c0.2-0.1,0.5-0.2,0.6-0.4c0.2-0.1,0.3-0.2,0.4-0.2c0.2,0,0.3,0.1,0.4,0.2L118.6,15.5z M117.1,10.5
				c0-0.4-0.1-0.8-0.2-1.2c-0.1-0.4-0.3-0.7-0.5-0.9c-0.2-0.3-0.5-0.5-0.9-0.6c-0.3-0.1-0.7-0.2-1.2-0.2c-0.9,0-1.6,0.3-2.1,0.8
				c-0.5,0.5-0.9,1.3-1,2.2H117.1z"/>
			<path class="st2" d="M120.7,17V6.3h1.1c0.3,0,0.4,0.1,0.5,0.4l0.1,1.1c0.4-0.5,0.8-0.9,1.3-1.2c0.5-0.3,1.1-0.5,1.7-0.5
				c0.7,0,1.3,0.2,1.8,0.6c0.4,0.4,0.8,0.9,1,1.6c0.2-0.4,0.4-0.7,0.6-1c0.2-0.3,0.5-0.5,0.8-0.7c0.3-0.2,0.6-0.3,1-0.4
				c0.3-0.1,0.7-0.1,1-0.1c0.6,0,1.1,0.1,1.5,0.3c0.4,0.2,0.8,0.4,1.1,0.8c0.3,0.3,0.5,0.8,0.7,1.3c0.2,0.5,0.2,1.1,0.2,1.7V17h-1.9
				v-6.8c0-0.8-0.2-1.5-0.6-1.9c-0.4-0.4-0.9-0.7-1.6-0.7c-0.3,0-0.6,0.1-0.9,0.2c-0.3,0.1-0.5,0.3-0.7,0.5s-0.4,0.5-0.5,0.8
				c-0.1,0.3-0.2,0.7-0.2,1.1V17h-1.9v-6.8c0-0.9-0.2-1.5-0.5-1.9c-0.3-0.4-0.9-0.6-1.5-0.6c-0.5,0-0.9,0.1-1.3,0.4
				c-0.4,0.3-0.8,0.6-1.1,1v8H120.7z"/>
			<path class="st2" d="M146.8,6.3l-6,13.9c-0.1,0.1-0.1,0.3-0.2,0.3c-0.1,0.1-0.2,0.1-0.4,0.1h-1.4l2-4.3l-4.4-10.1h1.6
				c0.2,0,0.3,0,0.4,0.1c0.1,0.1,0.2,0.2,0.2,0.3l2.9,6.8c0.1,0.3,0.2,0.6,0.3,0.9c0.1-0.3,0.2-0.6,0.3-0.9l2.8-6.8
				c0-0.1,0.1-0.2,0.2-0.3c0.1-0.1,0.2-0.1,0.3-0.1H146.8z"/>
		</g>
	</g>
</g>
<g>
	<path class="st2" d="M6.8,37.1v-7.4h2.4c0.5,0,0.8,0,1.2,0.1c0.3,0.1,0.6,0.2,0.8,0.4c0.2,0.2,0.4,0.4,0.5,0.6
		c0.1,0.2,0.2,0.5,0.2,0.8c0,0.2,0,0.4-0.1,0.5c-0.1,0.2-0.1,0.3-0.3,0.5c-0.1,0.1-0.3,0.3-0.4,0.4c-0.2,0.1-0.4,0.2-0.6,0.3
		c0.5,0.1,0.9,0.3,1.2,0.6c0.3,0.3,0.4,0.7,0.4,1.1c0,0.3-0.1,0.6-0.2,0.9c-0.1,0.3-0.3,0.5-0.5,0.7c-0.2,0.2-0.5,0.3-0.8,0.4
		c-0.3,0.1-0.7,0.2-1.1,0.2H6.8z M7.8,33h1.3c0.3,0,0.5,0,0.7-0.1c0.2-0.1,0.4-0.1,0.5-0.3c0.1-0.1,0.2-0.2,0.3-0.4
		c0.1-0.2,0.1-0.3,0.1-0.5c0-0.4-0.1-0.8-0.4-1c-0.3-0.2-0.7-0.3-1.2-0.3H7.8V33z M7.8,33.7v2.6h1.6c0.3,0,0.5,0,0.7-0.1
		c0.2-0.1,0.4-0.2,0.5-0.3c0.1-0.1,0.2-0.3,0.3-0.4C11,35.3,11,35.2,11,35c0-0.4-0.1-0.7-0.4-0.9c-0.3-0.2-0.7-0.3-1.2-0.3H7.8z"/>
	<path class="st2" d="M13.4,37.1v-5.2h0.5c0.1,0,0.2,0,0.2,0.1c0,0,0.1,0.1,0.1,0.2l0.1,0.8c0.2-0.4,0.4-0.7,0.7-0.9
		c0.3-0.2,0.6-0.3,0.9-0.3c0.1,0,0.3,0,0.4,0c0.1,0,0.2,0.1,0.3,0.1l-0.1,0.7c0,0.1-0.1,0.1-0.2,0.1c0,0-0.1,0-0.2,0
		c-0.1,0-0.2,0-0.4,0c-0.3,0-0.6,0.1-0.8,0.3c-0.2,0.2-0.4,0.5-0.5,0.8v3.3H13.4z"/>
	<path class="st2" d="M18.8,30.2c0,0.1,0,0.2-0.1,0.3c0,0.1-0.1,0.1-0.1,0.2c-0.1,0.1-0.1,0.1-0.2,0.1c-0.1,0-0.2,0.1-0.3,0.1
		c-0.1,0-0.2,0-0.3-0.1c-0.1,0-0.1-0.1-0.2-0.1c-0.1-0.1-0.1-0.1-0.1-0.2c0-0.1-0.1-0.2-0.1-0.3c0-0.1,0-0.2,0.1-0.3
		c0-0.1,0.1-0.2,0.1-0.2c0.1-0.1,0.1-0.1,0.2-0.1c0.1,0,0.2-0.1,0.3-0.1c0.1,0,0.2,0,0.3,0.1c0.1,0,0.1,0.1,0.2,0.1
		c0.1,0.1,0.1,0.1,0.1,0.2C18.7,30,18.8,30.1,18.8,30.2z M18.5,31.9v5.2h-0.9v-5.2H18.5z"/>
	<path class="st2" d="M20.2,37.1v-5.2h0.5c0.1,0,0.2,0.1,0.2,0.2l0.1,0.6c0.2-0.3,0.5-0.5,0.8-0.6c0.3-0.2,0.6-0.2,1-0.2
		c0.3,0,0.5,0,0.8,0.1c0.2,0.1,0.4,0.2,0.5,0.4c0.1,0.2,0.3,0.4,0.3,0.6c0.1,0.2,0.1,0.5,0.1,0.8v3.3h-0.9v-3.3
		c0-0.4-0.1-0.7-0.3-0.9c-0.2-0.2-0.5-0.3-0.8-0.3c-0.3,0-0.5,0.1-0.8,0.2c-0.2,0.1-0.5,0.3-0.7,0.5v3.9H20.2z"/>
	<path class="st2" d="M27.7,31.8c0.2,0,0.4,0,0.6,0.1c0.2,0.1,0.4,0.1,0.5,0.2h1.4v0.3c0,0.1-0.1,0.2-0.2,0.2l-0.6,0.1
		c0.1,0.2,0.2,0.5,0.2,0.7c0,0.3,0,0.5-0.1,0.7c-0.1,0.2-0.2,0.4-0.4,0.5c-0.2,0.1-0.4,0.3-0.6,0.3c-0.2,0.1-0.5,0.1-0.8,0.1
		c-0.2,0-0.5,0-0.7-0.1c-0.1,0.1-0.2,0.1-0.3,0.2s-0.1,0.2-0.1,0.2c0,0.1,0.1,0.2,0.2,0.3c0.1,0.1,0.2,0.1,0.4,0.1
		c0.2,0,0.4,0,0.6,0c0.2,0,0.4,0,0.6,0c0.2,0,0.4,0,0.6,0.1c0.2,0,0.4,0.1,0.6,0.2c0.2,0.1,0.3,0.2,0.4,0.4c0.1,0.2,0.1,0.4,0.1,0.6
		c0,0.2-0.1,0.4-0.2,0.7c-0.1,0.2-0.3,0.4-0.5,0.6c-0.2,0.2-0.5,0.3-0.8,0.4c-0.3,0.1-0.6,0.1-1,0.1c-0.4,0-0.7,0-1-0.1
		c-0.3-0.1-0.5-0.2-0.7-0.3s-0.3-0.3-0.4-0.4c-0.1-0.2-0.1-0.3-0.1-0.5c0-0.3,0.1-0.5,0.2-0.7c0.2-0.2,0.4-0.3,0.7-0.4
		c-0.1-0.1-0.3-0.2-0.4-0.3c-0.1-0.1-0.1-0.3-0.1-0.5c0-0.1,0-0.2,0-0.2c0-0.1,0.1-0.2,0.1-0.2c0.1-0.1,0.1-0.2,0.2-0.2
		s0.2-0.1,0.3-0.2c-0.3-0.1-0.5-0.3-0.6-0.6s-0.2-0.5-0.2-0.8c0-0.3,0-0.5,0.1-0.7c0.1-0.2,0.2-0.4,0.4-0.5c0.2-0.1,0.4-0.3,0.6-0.3
		C27.1,31.8,27.4,31.8,27.7,31.8z M29.3,37.4c0-0.1,0-0.2-0.1-0.3c-0.1-0.1-0.2-0.1-0.3-0.2c-0.1,0-0.3-0.1-0.4-0.1
		c-0.2,0-0.3,0-0.5,0c-0.2,0-0.4,0-0.5,0c-0.2,0-0.4,0-0.5-0.1c-0.2,0.1-0.4,0.2-0.5,0.3c-0.1,0.1-0.2,0.3-0.2,0.5
		c0,0.1,0,0.2,0.1,0.3c0.1,0.1,0.2,0.2,0.3,0.3c0.1,0.1,0.3,0.1,0.5,0.2c0.2,0,0.4,0.1,0.7,0.1c0.2,0,0.5,0,0.7-0.1
		c0.2,0,0.4-0.1,0.5-0.2c0.1-0.1,0.2-0.2,0.3-0.3C29.3,37.6,29.3,37.5,29.3,37.4z M27.7,34.5c0.2,0,0.4,0,0.5-0.1
		c0.1-0.1,0.3-0.1,0.4-0.2c0.1-0.1,0.2-0.2,0.2-0.3c0-0.1,0.1-0.3,0.1-0.4c0-0.3-0.1-0.6-0.3-0.8c-0.2-0.2-0.5-0.3-0.9-0.3
		c-0.4,0-0.7,0.1-0.8,0.3c-0.2,0.2-0.3,0.4-0.3,0.8c0,0.2,0,0.3,0.1,0.4c0.1,0.1,0.1,0.2,0.2,0.3c0.1,0.1,0.2,0.2,0.4,0.2
		C27.3,34.5,27.5,34.5,27.7,34.5z"/>
	<path class="st2" d="M39.8,33.4c0,0.6-0.1,1.1-0.3,1.5c-0.2,0.5-0.4,0.8-0.7,1.2c-0.3,0.3-0.7,0.6-1.2,0.8
		c-0.4,0.2-0.9,0.3-1.5,0.3h-2.8v-7.4h2.8c0.5,0,1,0.1,1.5,0.3c0.4,0.2,0.8,0.4,1.2,0.8c0.3,0.3,0.6,0.7,0.7,1.2
		C39.7,32.3,39.8,32.8,39.8,33.4z M38.7,33.4c0-0.5-0.1-0.9-0.2-1.2c-0.1-0.4-0.3-0.7-0.5-0.9c-0.2-0.2-0.5-0.4-0.8-0.6
		c-0.3-0.1-0.7-0.2-1.1-0.2h-1.8v5.8h1.8c0.4,0,0.8-0.1,1.1-0.2c0.3-0.1,0.6-0.3,0.8-0.6c0.2-0.2,0.4-0.5,0.5-0.9
		C38.7,34.3,38.7,33.9,38.7,33.4z"/>
	<path class="st2" d="M42.2,30.2c0,0.1,0,0.2-0.1,0.3c0,0.1-0.1,0.1-0.1,0.2c-0.1,0.1-0.1,0.1-0.2,0.1c-0.1,0-0.2,0.1-0.3,0.1
		c-0.1,0-0.2,0-0.3-0.1c-0.1,0-0.1-0.1-0.2-0.1C41,30.6,41,30.5,41,30.5c0-0.1-0.1-0.2-0.1-0.3c0-0.1,0-0.2,0.1-0.3
		c0-0.1,0.1-0.2,0.1-0.2c0.1-0.1,0.1-0.1,0.2-0.1c0.1,0,0.2-0.1,0.3-0.1c0.1,0,0.2,0,0.3,0.1c0.1,0,0.1,0.1,0.2,0.1
		c0.1,0.1,0.1,0.1,0.1,0.2C42.2,30,42.2,30.1,42.2,30.2z M42,31.9v5.2h-0.9v-5.2H42z"/>
	<path class="st2" d="M45.4,31.8c0.2,0,0.4,0,0.6,0.1c0.2,0.1,0.4,0.1,0.5,0.2H48v0.3c0,0.1-0.1,0.2-0.2,0.2l-0.6,0.1
		c0.1,0.2,0.2,0.5,0.2,0.7c0,0.3,0,0.5-0.1,0.7c-0.1,0.2-0.2,0.4-0.4,0.5c-0.2,0.1-0.4,0.3-0.6,0.3c-0.2,0.1-0.5,0.1-0.8,0.1
		c-0.2,0-0.5,0-0.7-0.1c-0.1,0.1-0.2,0.1-0.3,0.2c-0.1,0.1-0.1,0.2-0.1,0.2c0,0.1,0.1,0.2,0.2,0.3c0.1,0.1,0.2,0.1,0.4,0.1
		c0.2,0,0.4,0,0.6,0c0.2,0,0.4,0,0.6,0c0.2,0,0.4,0,0.6,0.1c0.2,0,0.4,0.1,0.6,0.2c0.2,0.1,0.3,0.2,0.4,0.4c0.1,0.2,0.1,0.4,0.1,0.6
		c0,0.2-0.1,0.4-0.2,0.7c-0.1,0.2-0.3,0.4-0.5,0.6c-0.2,0.2-0.5,0.3-0.8,0.4c-0.3,0.1-0.6,0.1-1,0.1c-0.4,0-0.7,0-1-0.1
		c-0.3-0.1-0.5-0.2-0.7-0.3c-0.2-0.1-0.3-0.3-0.4-0.4c-0.1-0.2-0.1-0.3-0.1-0.5c0-0.3,0.1-0.5,0.2-0.7c0.2-0.2,0.4-0.3,0.7-0.4
		c-0.1-0.1-0.3-0.2-0.4-0.3c-0.1-0.1-0.1-0.3-0.1-0.5c0-0.1,0-0.2,0-0.2c0-0.1,0.1-0.2,0.1-0.2c0.1-0.1,0.1-0.2,0.2-0.2
		c0.1-0.1,0.2-0.1,0.3-0.2c-0.3-0.1-0.5-0.3-0.6-0.6c-0.1-0.2-0.2-0.5-0.2-0.8c0-0.3,0-0.5,0.1-0.7c0.1-0.2,0.2-0.4,0.4-0.5
		c0.2-0.1,0.4-0.3,0.6-0.3C44.8,31.8,45.1,31.8,45.4,31.8z M47,37.4c0-0.1,0-0.2-0.1-0.3c-0.1-0.1-0.2-0.1-0.3-0.2
		c-0.1,0-0.3-0.1-0.4-0.1c-0.2,0-0.3,0-0.5,0c-0.2,0-0.4,0-0.5,0c-0.2,0-0.4,0-0.5-0.1c-0.2,0.1-0.4,0.2-0.5,0.3
		c-0.1,0.1-0.2,0.3-0.2,0.5c0,0.1,0,0.2,0.1,0.3c0.1,0.1,0.2,0.2,0.3,0.3c0.1,0.1,0.3,0.1,0.5,0.2c0.2,0,0.4,0.1,0.7,0.1
		c0.2,0,0.5,0,0.7-0.1c0.2,0,0.4-0.1,0.5-0.2c0.1-0.1,0.2-0.2,0.3-0.3C47,37.6,47,37.5,47,37.4z M45.4,34.5c0.2,0,0.4,0,0.5-0.1
		c0.1-0.1,0.3-0.1,0.4-0.2c0.1-0.1,0.2-0.2,0.2-0.3c0-0.1,0.1-0.3,0.1-0.4c0-0.3-0.1-0.6-0.3-0.8c-0.2-0.2-0.5-0.3-0.9-0.3
		c-0.4,0-0.7,0.1-0.8,0.3c-0.2,0.2-0.3,0.4-0.3,0.8c0,0.2,0,0.3,0.1,0.4c0.1,0.1,0.1,0.2,0.2,0.3c0.1,0.1,0.2,0.2,0.4,0.2
		C45.1,34.5,45.2,34.5,45.4,34.5z"/>
	<path class="st2" d="M50.1,30.2c0,0.1,0,0.2-0.1,0.3c0,0.1-0.1,0.1-0.1,0.2c-0.1,0.1-0.1,0.1-0.2,0.1c-0.1,0-0.2,0.1-0.3,0.1
		c-0.1,0-0.2,0-0.3-0.1c-0.1,0-0.1-0.1-0.2-0.1c-0.1-0.1-0.1-0.1-0.1-0.2c0-0.1-0.1-0.2-0.1-0.3c0-0.1,0-0.2,0.1-0.3
		c0-0.1,0.1-0.2,0.1-0.2c0.1-0.1,0.1-0.1,0.2-0.1c0.1,0,0.2-0.1,0.3-0.1c0.1,0,0.2,0,0.3,0.1c0.1,0,0.1,0.1,0.2,0.1
		c0.1,0.1,0.1,0.1,0.1,0.2C50.1,30,50.1,30.1,50.1,30.2z M49.9,31.9v5.2H49v-5.2H49.9z"/>
	<path class="st2" d="M53.2,37.2c-0.4,0-0.7-0.1-1-0.3c-0.2-0.2-0.3-0.6-0.3-1v-3.2h-0.6c-0.1,0-0.1,0-0.1,0c0,0-0.1-0.1-0.1-0.2
		v-0.4l0.9-0.1l0.2-1.6c0-0.1,0-0.1,0.1-0.1c0,0,0.1,0,0.1,0h0.5V32h1.5v0.7h-1.5v3.1c0,0.2,0.1,0.4,0.2,0.5
		c0.1,0.1,0.2,0.2,0.4,0.2c0.1,0,0.2,0,0.3,0c0.1,0,0.1-0.1,0.2-0.1c0.1,0,0.1-0.1,0.1-0.1c0,0,0.1,0,0.1,0c0,0,0.1,0,0.1,0.1
		l0.3,0.4c-0.2,0.1-0.3,0.3-0.6,0.3C53.6,37.1,53.4,37.2,53.2,37.2z"/>
	<path class="st2" d="M59.3,37.1h-0.4c-0.1,0-0.2,0-0.2,0c-0.1,0-0.1-0.1-0.1-0.2l-0.1-0.5c-0.1,0.1-0.3,0.2-0.4,0.3
		c-0.1,0.1-0.3,0.2-0.4,0.2c-0.1,0.1-0.3,0.1-0.5,0.2c-0.2,0-0.3,0.1-0.5,0.1c-0.2,0-0.4,0-0.6-0.1c-0.2-0.1-0.3-0.1-0.5-0.3
		c-0.1-0.1-0.2-0.3-0.3-0.4c-0.1-0.2-0.1-0.4-0.1-0.6c0-0.2,0.1-0.4,0.2-0.6c0.1-0.2,0.3-0.4,0.6-0.5c0.3-0.1,0.6-0.3,1-0.4
		c0.4-0.1,0.9-0.1,1.5-0.1v-0.4c0-0.4-0.1-0.7-0.3-0.9c-0.2-0.2-0.4-0.3-0.8-0.3c-0.2,0-0.4,0-0.6,0.1s-0.3,0.1-0.4,0.2
		c-0.1,0.1-0.2,0.1-0.3,0.2c-0.1,0.1-0.2,0.1-0.2,0.1c-0.1,0-0.1,0-0.2,0c0,0-0.1-0.1-0.1-0.1l-0.2-0.3c0.3-0.3,0.6-0.5,0.9-0.6
		c0.3-0.1,0.7-0.2,1.1-0.2c0.3,0,0.6,0,0.8,0.1c0.2,0.1,0.4,0.2,0.6,0.4c0.2,0.2,0.3,0.4,0.4,0.6c0.1,0.2,0.1,0.5,0.1,0.8V37.1z
		 M56.9,36.5c0.2,0,0.3,0,0.4,0c0.1,0,0.3-0.1,0.4-0.1c0.1-0.1,0.2-0.1,0.3-0.2c0.1-0.1,0.2-0.2,0.3-0.3v-1.1c-0.4,0-0.8,0-1.1,0.1
		C57,34.9,56.7,35,56.6,35c-0.2,0.1-0.3,0.2-0.4,0.3c-0.1,0.1-0.1,0.2-0.1,0.4c0,0.1,0,0.3,0.1,0.4c0,0.1,0.1,0.2,0.2,0.2
		s0.2,0.1,0.3,0.1C56.6,36.5,56.8,36.5,56.9,36.5z"/>
	<path class="st2" d="M61.7,29.5v7.6h-0.9v-7.6H61.7z"/>
	<path class="st2" d="M66.5,36.3h3.2v0.8h-4.2v-7.4h1V36.3z"/>
	<path class="st2" d="M72.5,31.8c0.3,0,0.6,0.1,0.9,0.2s0.5,0.3,0.7,0.5c0.2,0.2,0.3,0.4,0.5,0.7c0.1,0.3,0.2,0.6,0.2,1
		c0,0.1,0,0.2,0,0.3c0,0-0.1,0.1-0.2,0.1H71c0,0.3,0.1,0.6,0.1,0.9c0.1,0.2,0.2,0.4,0.3,0.6c0.1,0.2,0.3,0.3,0.5,0.4
		c0.2,0.1,0.4,0.1,0.7,0.1c0.2,0,0.4,0,0.6-0.1c0.2-0.1,0.3-0.1,0.4-0.2c0.1-0.1,0.2-0.1,0.3-0.2c0.1-0.1,0.2-0.1,0.2-0.1
		c0.1,0,0.1,0,0.2,0.1l0.3,0.3c-0.1,0.1-0.2,0.3-0.4,0.4c-0.2,0.1-0.3,0.2-0.5,0.3c-0.2,0.1-0.4,0.1-0.6,0.1c-0.2,0-0.4,0-0.6,0
		c-0.4,0-0.7-0.1-1-0.2s-0.6-0.3-0.8-0.5c-0.2-0.2-0.4-0.5-0.5-0.9c-0.1-0.3-0.2-0.7-0.2-1.2c0-0.4,0.1-0.7,0.2-1
		c0.1-0.3,0.3-0.6,0.5-0.8c0.2-0.2,0.5-0.4,0.8-0.5C71.8,31.8,72.1,31.8,72.5,31.8z M72.5,32.5c-0.4,0-0.8,0.1-1,0.4
		c-0.3,0.3-0.4,0.6-0.5,1.1h2.8c0-0.2,0-0.4-0.1-0.6c-0.1-0.2-0.1-0.3-0.3-0.5c-0.1-0.1-0.3-0.2-0.4-0.3
		C72.9,32.5,72.7,32.5,72.5,32.5z"/>
	<path class="st2" d="M79.7,37.1h-0.4c-0.1,0-0.2,0-0.2,0S79,37,79,36.9l-0.1-0.5c-0.1,0.1-0.3,0.2-0.4,0.3
		c-0.1,0.1-0.3,0.2-0.4,0.2c-0.1,0.1-0.3,0.1-0.5,0.2c-0.2,0-0.3,0.1-0.5,0.1c-0.2,0-0.4,0-0.6-0.1C76.3,37,76.1,37,76,36.8
		c-0.1-0.1-0.2-0.3-0.3-0.4c-0.1-0.2-0.1-0.4-0.1-0.6c0-0.2,0.1-0.4,0.2-0.6c0.1-0.2,0.3-0.4,0.6-0.5c0.3-0.1,0.6-0.3,1-0.4
		c0.4-0.1,0.9-0.1,1.5-0.1v-0.4c0-0.4-0.1-0.7-0.3-0.9s-0.4-0.3-0.8-0.3c-0.2,0-0.4,0-0.6,0.1c-0.2,0.1-0.3,0.1-0.4,0.2
		c-0.1,0.1-0.2,0.1-0.3,0.2c-0.1,0.1-0.2,0.1-0.2,0.1c-0.1,0-0.1,0-0.2,0c0,0-0.1-0.1-0.1-0.1l-0.2-0.3c0.3-0.3,0.6-0.5,0.9-0.6
		c0.3-0.1,0.7-0.2,1.1-0.2c0.3,0,0.6,0,0.8,0.1c0.2,0.1,0.4,0.2,0.6,0.4c0.2,0.2,0.3,0.4,0.4,0.6c0.1,0.2,0.1,0.5,0.1,0.8V37.1z
		 M77.3,36.5c0.2,0,0.3,0,0.4,0c0.1,0,0.3-0.1,0.4-0.1c0.1-0.1,0.2-0.1,0.3-0.2c0.1-0.1,0.2-0.2,0.3-0.3v-1.1c-0.4,0-0.8,0-1.1,0.1
		C77.4,34.9,77.2,35,77,35c-0.2,0.1-0.3,0.2-0.4,0.3c-0.1,0.1-0.1,0.2-0.1,0.4c0,0.1,0,0.3,0.1,0.4c0,0.1,0.1,0.2,0.2,0.2
		s0.2,0.1,0.3,0.1C77.1,36.5,77.2,36.5,77.3,36.5z"/>
	<path class="st2" d="M81.1,37.1v-5.2h0.5c0.1,0,0.2,0,0.2,0.1c0,0,0.1,0.1,0.1,0.2l0.1,0.8c0.2-0.4,0.4-0.7,0.7-0.9
		c0.3-0.2,0.6-0.3,0.9-0.3c0.1,0,0.3,0,0.4,0c0.1,0,0.2,0.1,0.3,0.1l-0.1,0.7c0,0.1-0.1,0.1-0.2,0.1c0,0-0.1,0-0.2,0
		c-0.1,0-0.2,0-0.4,0c-0.3,0-0.6,0.1-0.8,0.3c-0.2,0.2-0.4,0.5-0.5,0.8v3.3H81.1z"/>
	<path class="st2" d="M85.3,37.1v-5.2h0.5c0.1,0,0.2,0.1,0.2,0.2l0.1,0.6c0.2-0.3,0.5-0.5,0.8-0.6c0.3-0.2,0.6-0.2,1-0.2
		c0.3,0,0.5,0,0.8,0.1c0.2,0.1,0.4,0.2,0.5,0.4c0.1,0.2,0.3,0.4,0.3,0.6c0.1,0.2,0.1,0.5,0.1,0.8v3.3h-0.9v-3.3
		c0-0.4-0.1-0.7-0.3-0.9c-0.2-0.2-0.5-0.3-0.8-0.3c-0.3,0-0.5,0.1-0.8,0.2c-0.2,0.1-0.5,0.3-0.7,0.5v3.9H85.3z"/>
	<path class="st2" d="M92.2,30.2c0,0.1,0,0.2-0.1,0.3c0,0.1-0.1,0.1-0.1,0.2c-0.1,0.1-0.1,0.1-0.2,0.1c-0.1,0-0.2,0.1-0.3,0.1
		c-0.1,0-0.2,0-0.3-0.1c-0.1,0-0.1-0.1-0.2-0.1c-0.1-0.1-0.1-0.1-0.1-0.2c0-0.1-0.1-0.2-0.1-0.3c0-0.1,0-0.2,0.1-0.3
		c0-0.1,0.1-0.2,0.1-0.2c0.1-0.1,0.1-0.1,0.2-0.1c0.1,0,0.2-0.1,0.3-0.1c0.1,0,0.2,0,0.3,0.1c0.1,0,0.1,0.1,0.2,0.1
		c0.1,0.1,0.1,0.1,0.1,0.2C92.2,30,92.2,30.1,92.2,30.2z M92,31.9v5.2h-0.9v-5.2H92z"/>
	<path class="st2" d="M93.7,37.1v-5.2h0.5c0.1,0,0.2,0.1,0.2,0.2l0.1,0.6c0.2-0.3,0.5-0.5,0.8-0.6c0.3-0.2,0.6-0.2,1-0.2
		c0.3,0,0.5,0,0.8,0.1c0.2,0.1,0.4,0.2,0.5,0.4c0.1,0.2,0.3,0.4,0.3,0.6c0.1,0.2,0.1,0.5,0.1,0.8v3.3h-0.9v-3.3
		c0-0.4-0.1-0.7-0.3-0.9c-0.2-0.2-0.5-0.3-0.8-0.3c-0.3,0-0.5,0.1-0.8,0.2c-0.2,0.1-0.5,0.3-0.7,0.5v3.9H93.7z"/>
	<path class="st2" d="M101.2,31.8c0.2,0,0.4,0,0.6,0.1c0.2,0.1,0.4,0.1,0.5,0.2h1.4v0.3c0,0.1-0.1,0.2-0.2,0.2l-0.6,0.1
		c0.1,0.2,0.2,0.5,0.2,0.7c0,0.3,0,0.5-0.1,0.7c-0.1,0.2-0.2,0.4-0.4,0.5S102.2,35,102,35c-0.2,0.1-0.5,0.1-0.8,0.1
		c-0.2,0-0.5,0-0.7-0.1c-0.1,0.1-0.2,0.1-0.3,0.2s-0.1,0.2-0.1,0.2c0,0.1,0.1,0.2,0.2,0.3c0.1,0.1,0.2,0.1,0.4,0.1
		c0.2,0,0.4,0,0.6,0c0.2,0,0.4,0,0.6,0c0.2,0,0.4,0,0.6,0.1c0.2,0,0.4,0.1,0.6,0.2s0.3,0.2,0.4,0.4c0.1,0.2,0.1,0.4,0.1,0.6
		c0,0.2-0.1,0.4-0.2,0.7c-0.1,0.2-0.3,0.4-0.5,0.6c-0.2,0.2-0.5,0.3-0.8,0.4c-0.3,0.1-0.6,0.1-1,0.1s-0.7,0-1-0.1
		c-0.3-0.1-0.5-0.2-0.7-0.3c-0.2-0.1-0.3-0.3-0.4-0.4c-0.1-0.2-0.1-0.3-0.1-0.5c0-0.3,0.1-0.5,0.2-0.7c0.2-0.2,0.4-0.3,0.7-0.4
		c-0.1-0.1-0.3-0.2-0.4-0.3c-0.1-0.1-0.1-0.3-0.1-0.5c0-0.1,0-0.2,0-0.2c0-0.1,0.1-0.2,0.1-0.2c0.1-0.1,0.1-0.2,0.2-0.2
		c0.1-0.1,0.2-0.1,0.3-0.2c-0.3-0.1-0.5-0.3-0.6-0.6c-0.1-0.2-0.2-0.5-0.2-0.8c0-0.3,0-0.5,0.1-0.7c0.1-0.2,0.2-0.4,0.4-0.5
		c0.2-0.1,0.4-0.3,0.6-0.3C100.6,31.8,100.9,31.8,101.2,31.8z M102.8,37.4c0-0.1,0-0.2-0.1-0.3c-0.1-0.1-0.2-0.1-0.3-0.2
		c-0.1,0-0.3-0.1-0.4-0.1c-0.2,0-0.3,0-0.5,0c-0.2,0-0.4,0-0.5,0c-0.2,0-0.4,0-0.5-0.1c-0.2,0.1-0.4,0.2-0.5,0.3
		c-0.1,0.1-0.2,0.3-0.2,0.5c0,0.1,0,0.2,0.1,0.3c0.1,0.1,0.2,0.2,0.3,0.3c0.1,0.1,0.3,0.1,0.5,0.2c0.2,0,0.4,0.1,0.7,0.1
		c0.2,0,0.5,0,0.7-0.1c0.2,0,0.4-0.1,0.5-0.2c0.1-0.1,0.2-0.2,0.3-0.3C102.8,37.6,102.8,37.5,102.8,37.4z M101.2,34.5
		c0.2,0,0.4,0,0.5-0.1c0.1-0.1,0.3-0.1,0.4-0.2c0.1-0.1,0.2-0.2,0.2-0.3c0-0.1,0.1-0.3,0.1-0.4c0-0.3-0.1-0.6-0.3-0.8
		c-0.2-0.2-0.5-0.3-0.9-0.3c-0.4,0-0.7,0.1-0.8,0.3c-0.2,0.2-0.3,0.4-0.3,0.8c0,0.2,0,0.3,0.1,0.4c0.1,0.1,0.1,0.2,0.2,0.3
		c0.1,0.1,0.2,0.2,0.4,0.2C100.8,34.5,101,34.5,101.2,34.5z"/>
	<path class="st2" d="M108.3,37.2c-0.4,0-0.7-0.1-1-0.3c-0.2-0.2-0.3-0.6-0.3-1v-3.2h-0.6c-0.1,0-0.1,0-0.1,0c0,0-0.1-0.1-0.1-0.2
		v-0.4L107,32l0.2-1.6c0-0.1,0-0.1,0.1-0.1c0,0,0.1,0,0.1,0h0.5V32h1.5v0.7h-1.5v3.1c0,0.2,0.1,0.4,0.2,0.5c0.1,0.1,0.2,0.2,0.4,0.2
		c0.1,0,0.2,0,0.3,0c0.1,0,0.1-0.1,0.2-0.1c0.1,0,0.1-0.1,0.1-0.1c0,0,0.1,0,0.1,0c0,0,0.1,0,0.1,0.1l0.3,0.4
		c-0.2,0.1-0.3,0.3-0.6,0.3C108.7,37.1,108.5,37.2,108.3,37.2z"/>
	<path class="st2" d="M112.7,31.8c0.4,0,0.7,0.1,1,0.2c0.3,0.1,0.6,0.3,0.8,0.5c0.2,0.2,0.4,0.5,0.5,0.9c0.1,0.3,0.2,0.7,0.2,1.1
		c0,0.4-0.1,0.8-0.2,1.1c-0.1,0.3-0.3,0.6-0.5,0.8c-0.2,0.2-0.5,0.4-0.8,0.5c-0.3,0.1-0.7,0.2-1,0.2c-0.4,0-0.7-0.1-1-0.2
		c-0.3-0.1-0.6-0.3-0.8-0.5c-0.2-0.2-0.4-0.5-0.5-0.8c-0.1-0.3-0.2-0.7-0.2-1.1c0-0.4,0.1-0.8,0.2-1.1c0.1-0.3,0.3-0.6,0.5-0.9
		c0.2-0.2,0.5-0.4,0.8-0.5C111.9,31.8,112.3,31.8,112.7,31.8z M112.7,36.5c0.5,0,0.9-0.2,1.2-0.5c0.3-0.3,0.4-0.8,0.4-1.4
		c0-0.6-0.1-1.1-0.4-1.5s-0.6-0.5-1.2-0.5c-0.3,0-0.5,0-0.7,0.1c-0.2,0.1-0.4,0.2-0.5,0.4c-0.1,0.2-0.2,0.4-0.3,0.6
		c-0.1,0.2-0.1,0.5-0.1,0.8c0,0.3,0,0.6,0.1,0.8c0.1,0.2,0.2,0.5,0.3,0.6c0.1,0.2,0.3,0.3,0.5,0.4C112.2,36.4,112.4,36.5,112.7,36.5
		z"/>
	<path class="st2" d="M119.4,36.3h3.2v0.8h-4.2v-7.4h1V36.3z"/>
	<path class="st2" d="M124.8,30.2c0,0.1,0,0.2-0.1,0.3c0,0.1-0.1,0.1-0.1,0.2c-0.1,0.1-0.1,0.1-0.2,0.1c-0.1,0-0.2,0.1-0.3,0.1
		c-0.1,0-0.2,0-0.3-0.1c-0.1,0-0.1-0.1-0.2-0.1c-0.1-0.1-0.1-0.1-0.1-0.2c0-0.1-0.1-0.2-0.1-0.3c0-0.1,0-0.2,0.1-0.3
		c0-0.1,0.1-0.2,0.1-0.2c0.1-0.1,0.1-0.1,0.2-0.1c0.1,0,0.2-0.1,0.3-0.1c0.1,0,0.2,0,0.3,0.1c0.1,0,0.1,0.1,0.2,0.1
		c0.1,0.1,0.1,0.1,0.1,0.2C124.8,30,124.8,30.1,124.8,30.2z M124.6,31.9v5.2h-0.9v-5.2H124.6z"/>
	<path class="st2" d="M126.5,37.1v-4.5l-0.6-0.1c-0.1,0-0.1,0-0.2-0.1c0,0-0.1-0.1-0.1-0.2V32h0.8v-0.5c0-0.3,0-0.6,0.1-0.8
		c0.1-0.2,0.2-0.4,0.4-0.6c0.2-0.2,0.3-0.3,0.6-0.4c0.2-0.1,0.5-0.1,0.7-0.1c0.2,0,0.5,0,0.7,0.1l0,0.5c0,0.1,0,0.1-0.1,0.1
		c-0.1,0-0.1,0-0.2,0h-0.2c-0.2,0-0.3,0-0.4,0.1c-0.1,0-0.2,0.1-0.3,0.2c-0.1,0.1-0.2,0.2-0.2,0.4c-0.1,0.2-0.1,0.3-0.1,0.6V32h1.5
		v0.7h-1.5v4.5H126.5z"/>
	<path class="st2" d="M131.8,31.8c0.3,0,0.6,0.1,0.9,0.2c0.3,0.1,0.5,0.3,0.7,0.5c0.2,0.2,0.3,0.4,0.5,0.7c0.1,0.3,0.2,0.6,0.2,1
		c0,0.1,0,0.2,0,0.3c0,0-0.1,0.1-0.2,0.1h-3.5c0,0.3,0.1,0.6,0.1,0.9c0.1,0.2,0.2,0.4,0.3,0.6c0.1,0.2,0.3,0.3,0.5,0.4
		c0.2,0.1,0.4,0.1,0.7,0.1c0.2,0,0.4,0,0.6-0.1c0.2-0.1,0.3-0.1,0.4-0.2c0.1-0.1,0.2-0.1,0.3-0.2c0.1-0.1,0.2-0.1,0.2-0.1
		c0.1,0,0.1,0,0.2,0.1l0.3,0.3c-0.1,0.1-0.2,0.3-0.4,0.4c-0.2,0.1-0.3,0.2-0.5,0.3c-0.2,0.1-0.4,0.1-0.6,0.1c-0.2,0-0.4,0-0.6,0
		c-0.4,0-0.7-0.1-1-0.2c-0.3-0.1-0.6-0.3-0.8-0.5c-0.2-0.2-0.4-0.5-0.5-0.9c-0.1-0.3-0.2-0.7-0.2-1.2c0-0.4,0.1-0.7,0.2-1
		c0.1-0.3,0.3-0.6,0.5-0.8c0.2-0.2,0.5-0.4,0.8-0.5C131.1,31.8,131.4,31.8,131.8,31.8z M131.8,32.5c-0.4,0-0.8,0.1-1,0.4
		c-0.3,0.3-0.4,0.6-0.5,1.1h2.8c0-0.2,0-0.4-0.1-0.6c-0.1-0.2-0.1-0.3-0.3-0.5c-0.1-0.1-0.3-0.2-0.4-0.3
		C132.2,32.5,132,32.5,131.8,32.5z"/>
</g>
</svg>
