<?xml version="1.0" encoding="utf-8"?>
<!-- Generator: Adobe Illustrator 23.0.1, SVG Export Plug-In . SVG Version: 6.00 Build 0)  -->
<svg version="1.1" id="Calque_1" xmlns="http://www.w3.org/2000/svg" xmlns:xlink="http://www.w3.org/1999/xlink" x="0px" y="0px"
	 viewBox="0 0 100 100" style="enable-background:new 0 0 100 100;" xml:space="preserve">
<style type="text/css">
	.st0{fill:#FFFFFF;}
	.st1{fill:#FFBFBD;}
	.st2{fill:none;stroke:#BD3C30;stroke-width:0.8836;stroke-linecap:round;stroke-linejoin:round;stroke-miterlimit:10;}
	.st3{fill:#D6625C;}
	.st4{fill:#BD3C30;}
	.st5{fill:#FFBFBD;stroke:#BD3C30;stroke-width:1.5602;stroke-linecap:round;stroke-linejoin:round;stroke-miterlimit:10;}
</style>
<g>
	<g>
		<g>
			<g>
				<polygon class="st0" points="45.4,16.3 35.5,17.9 50,21.2 				"/>
				<polygon class="st0" points="57.5,25.1 64.5,17.9 50,21.2 				"/>
				<polygon class="st0" points="54.6,16.3 50,7.4 50,21.2 				"/>
				<polygon class="st0" points="42.5,25.1 41,35 50,21.2 				"/>
				<polygon class="st0" points="50,30.5 59,35 50,21.2 				"/>
				<polygon class="st1" points="41,35 50,30.5 50,21.2 				"/>
				<polygon class="st1" points="35.5,17.9 42.5,25.1 50,21.2 				"/>
				<polygon class="st1" points="50,7.4 45.4,16.3 50,21.2 				"/>
				<polygon class="st1" points="64.5,17.9 54.6,16.3 50,21.2 				"/>
				<polygon class="st1" points="50,21.2 59,35 57.5,25.1 				"/>
			</g>
		</g>
		<polygon class="st2" points="64.5,17.9 54.6,16.3 50,7.4 45.4,16.3 35.5,17.9 42.5,25.1 41,35 50,30.5 59,35 57.5,25.1 		"/>
	</g>
	<g>
		<g>
			<g>
				<polygon class="st0" points="18.5,32.5 12.3,34.6 22,35.2 				"/>
				<polygon class="st0" points="27.3,36.9 31,31.6 22,35.2 				"/>
				<polygon class="st0" points="24.5,31.5 20.5,26.3 22,35.2 				"/>
				<polygon class="st0" points="17.6,38.5 17.7,45 22,35.2 				"/>
				<polygon class="st0" points="23,41.2 29.2,43.1 22,35.2 				"/>
				<polygon class="st1" points="17.7,45 23,41.2 22,35.2 				"/>
				<polygon class="st1" points="12.3,34.6 17.6,38.5 22,35.2 				"/>
				<polygon class="st1" points="20.5,26.3 18.5,32.5 22,35.2 				"/>
				<polygon class="st1" points="31,31.6 24.5,31.5 22,35.2 				"/>
				<polygon class="st1" points="22,35.2 29.2,43.1 27.3,36.9 				"/>
			</g>
		</g>
		<polygon class="st2" points="31,31.6 24.5,31.5 20.5,26.3 18.5,32.5 12.3,34.6 17.6,38.5 17.7,45 23,41.2 29.2,43.1 27.3,36.9 		
			"/>
	</g>
	<g>
		<g>
			<g>
				<polygon class="st0" points="81.5,32.5 87.7,34.6 78,35.2 				"/>
				<polygon class="st0" points="72.7,36.9 69,31.6 78,35.2 				"/>
				<polygon class="st0" points="75.5,31.5 79.5,26.3 78,35.2 				"/>
				<polygon class="st0" points="82.4,38.5 82.3,45 78,35.2 				"/>
				<polygon class="st0" points="77,41.2 70.8,43.1 78,35.2 				"/>
				<polygon class="st1" points="82.3,45 77,41.2 78,35.2 				"/>
				<polygon class="st1" points="87.7,34.6 82.4,38.5 78,35.2 				"/>
				<polygon class="st1" points="79.5,26.3 81.5,32.5 78,35.2 				"/>
				<polygon class="st1" points="69,31.6 75.5,31.5 78,35.2 				"/>
				<polygon class="st1" points="78,35.2 70.8,43.1 72.7,36.9 				"/>
			</g>
		</g>
		<polygon class="st2" points="69,31.6 75.5,31.5 79.5,26.3 81.5,32.5 87.7,34.6 82.4,38.5 82.3,45 77,41.2 70.8,43.1 72.7,36.9 		
			"/>
	</g>
	<g>
		<g>
			<g>
				<path class="st1" d="M31.7,84.7L31.7,84.7c0-0.1,0-0.3,0-0.4C31.7,84.4,31.7,84.5,31.7,84.7z"/>
				<path class="st3" d="M61.9,84.7h6.4c-0.2-6.8-4.2-12.6-9.8-15.6c-1.2,1-2.7,1.8-4.4,2.3C58.7,74,61.9,79,61.9,84.7z"/>
				<path class="st3" d="M32.9,78.8c1.8-4.3,5.5-7.5,10-8.7c-0.5-0.3-0.9-0.6-1.4-1C37.6,71.2,34.5,74.6,32.9,78.8z"/>
				<path class="st4" d="M59.5,68.1c-0.2,0.2-0.3,0.3-0.5,0.5c6,3.2,10,9.5,10,16.8H31c0-7.2,4-13.5,10-16.8
					c-0.2-0.2-0.3-0.3-0.5-0.5c-6.1,3.4-10.2,9.8-10.2,17.3c0,0.4,0.3,0.7,0.7,0.7h38c0.4,0,0.7-0.3,0.7-0.7
					C69.7,77.9,65.6,71.5,59.5,68.1z"/>
				<path class="st4" d="M68.3,84.7h-6.4l0,0H31.7l0,0l0,0c0-0.1,0-0.3,0-0.4c0.1-1.9,0.5-3.8,1.2-5.4c1.6-4.2,4.7-7.6,8.6-9.7
					c-0.2-0.2-0.4-0.3-0.5-0.5c-6,3.2-10,9.5-10,16.8h38c0-7.2-4-13.5-10-16.8c-0.2,0.2-0.4,0.3-0.5,0.5
					C64.2,72.1,68.1,77.9,68.3,84.7z"/>
				<path class="st1" d="M54.1,71.4C52.8,71.8,51.4,72,50,72c-2.7,0-5.1-0.7-7.1-2c-4.5,1.2-8.2,4.5-10,8.7
					c-0.7,1.7-1.1,3.5-1.2,5.4c0,0.1,0,0.3,0,0.4h30.2C61.9,79,58.7,74,54.1,71.4z"/>
				<path class="st1" d="M31.7,84.2c0.1-1.9,0.5-3.7,1.2-5.4C32.2,80.5,31.7,82.3,31.7,84.2z"/>
				<polygon class="st1" points="31.7,84.7 61.9,84.7 61.9,84.7 				"/>
				<path class="st3" d="M46.8,69.6c2.6,0,5.1,0.7,7.3,1.9c1.7-0.5,3.2-1.3,4.4-2.3C56,67.8,53.1,67,50,67s-6,0.8-8.5,2.1
					c0.4,0.4,0.9,0.7,1.4,1C44.1,69.7,45.4,69.6,46.8,69.6z"/>
				<path class="st4" d="M41,68.6c2.7-1.5,5.8-2.3,9-2.3c3.3,0,6.3,0.8,9,2.3c0.2-0.2,0.3-0.3,0.5-0.5c-2.8-1.6-6.1-2.5-9.5-2.5
					s-6.7,0.9-9.5,2.5C40.6,68.3,40.8,68.4,41,68.6z"/>
				<path class="st4" d="M41,68.6c0.2,0.2,0.4,0.3,0.5,0.5C44,67.8,46.9,67,50,67s6,0.8,8.5,2.1c0.2-0.2,0.4-0.3,0.5-0.5
					c-2.7-1.5-5.8-2.3-9-2.3C46.7,66.3,43.7,67.1,41,68.6z"/>
				<path class="st3" d="M54.1,71.4c-2.2-1.2-4.6-1.9-7.3-1.9c-1.4,0-2.7,0.2-3.9,0.5c2,1.2,4.5,2,7.1,2
					C51.4,72,52.8,71.8,54.1,71.4z"/>
			</g>
			<g>
				<circle class="st5" cx="50" cy="54.8" r="14.1"/>
				<circle class="st0" cx="48.8" cy="53.8" r="11.6"/>
			</g>
		</g>
	</g>
</g>
</svg>
