<?xml version="1.0" encoding="utf-8"?>
<!-- Generator: Adobe Illustrator 16.0.0, SVG Export Plug-In . SVG Version: 6.00 Build 0)  -->
<!DOCTYPE svg PUBLIC "-//W3C//DTD SVG 1.1//EN" "http://www.w3.org/Graphics/SVG/1.1/DTD/svg11.dtd">
<svg version="1.1" id="Calque_1" xmlns="http://www.w3.org/2000/svg" xmlns:xlink="http://www.w3.org/1999/xlink" x="0px" y="0px"
	 width="428px" height="429px" viewBox="39.5 39.5 428 429" enable-background="new 39.5 39.5 428 429" xml:space="preserve">
<g transform="translate(0.000000,500.000000) scale(0.100000,-0.100000)">
	<path fill="#BF3B2B" d="M0,2500V0h2500h2500v2500v2500H2500H0V2500z M4979.003,4976c7.998-10,10-667.002,8.994-2486.997L4985,15l-2474.004-2.998
		C691.001,10.996,33.999,12.998,23.999,20.996C12.002,30.996,10,437.002,10,2505c0,1358.999,2.998,2475,7.002,2477.998
		C20,4987.001,1136.001,4990,2495,4990C4562.998,4990,4969.003,4987.998,4979.003,4976z"/>
	<path fill="#BF3B2B" d="M1815,4491c-55-10-135-28.003-177.998-40c-554.004-157.002-992.002-623.003-1118.003-1190
		c-96.001-437.002-2.998-918.003,248.003-1271.001c77.998-109.004,255.996-292.002,355.996-367.002
		c205-150.996,419.004-242.998,672.002-290.996c125-22.998,445-22.998,570,0c247.002,45.996,490.996,150,667.998,283.994
		c31.006,24.004,62.998,44.004,70,44.004c6.006,0,277.998-265,602.002-590c324.004-324.004,597.002-590,605-590
		c20,0,210,190.996,210,210c0,7.998-267.998,282.998-595.996,610.996l-596.006,596.006l25,28.994
		c80,96.006,184.004,282.002,235,424.004c74.004,202.998,97.002,340,96.006,575c-1.006,277.002-44.004,467.002-159.004,700
		c-80.996,163.999-187.998,307.002-335,447.998C2967.002,4287.001,2725.996,4415,2422.998,4481
		C2280,4511,1956.001,4517.001,1815,4491z M2286.001,4185C2552.998,4137.998,2807.998,4006,2995,3816.001
		c185-187.002,300.996-403.999,360.996-676.001c25-110,24.004-347.998,0-465C3225,2045,2665.996,1595.996,2045,1622.998
		c-601.001,25-1088.999,441.006-1226.001,1042.002c-28.999,130-31.997,347.002-6.001,477.998
		C890,3530,1141.001,3867.998,1490,4053.999c100,53.003,263.999,110,376.001,130C1972.998,4202.998,2177.002,4203.999,2286.001,4185
		z"/>
</g>
</svg>
