<?xml version="1.0" encoding="utf-8"?>
<!-- Generator: Adobe Illustrator 23.0.1, SVG Export Plug-In . SVG Version: 6.00 Build 0)  -->
<svg version="1.1" id="objects" xmlns="http://www.w3.org/2000/svg" xmlns:xlink="http://www.w3.org/1999/xlink" x="0px" y="0px"
	 viewBox="0 0 75 75.6" style="enable-background:new 0 0 75 75.6;" xml:space="preserve">
<style type="text/css">
	.st0{fill:#FFFFFF;}
	.st1{opacity:0.2;}
	.st2{fill:#0DCE64;}
</style>
<g>
	<g>
		<g>
			<path class="st0" d="M25.3,30.4c4.6-5.7,14-2.7,19.1-10.5c5.2-7.8,1.1-19.7,8.5-19c7.5,0.7,11.8,18.2,3.7,26.4
				c11.2-0.2,17,2.2,17.1,7.8c0.1,5.6-4.6,5.8-4.6,5.8c7.3,1.6,6.2,10.5-1.2,11.4c4.7,0.9,7.7,8.2-1,10.8c3.9,2.2,3.6,9-6.9,9.7
				c-7.8,0.5-31.3,2.5-35.7-2.9C23.1,68,24,37.6,25.3,30.4z"/>
			<path d="M42.8,74.3c-10.5,0-16.7-1.3-18.8-4c-0.8-1-1.1-7.1-0.8-18.2c0.2-7.8,0.7-17.9,1.4-21.9c0-0.1,0.1-0.3,0.2-0.4
				c2.2-2.8,5.6-3.6,8.8-4.5c3.8-1,7.6-2,10.3-6c2.1-3.2,2.6-7.1,3-10.6C47.4,4.3,47.9,0,52.4,0c0.2,0,0.4,0,0.7,0
				c3.1,0.3,5.9,3.1,7.5,7.5c2,5.5,2.1,13.4-2,18.9c10.7,0.1,16,2.9,16.1,8.6c0.1,3.4-1.5,5.1-2.9,5.9c2.1,1.2,3.4,3.2,3.3,5.6
				c-0.1,2.2-1.5,4.7-4.4,6c1.7,1.1,2.8,2.9,2.9,4.9c0.1,1.3-0.3,4.2-4.7,6c1.2,1.2,1.7,2.9,1.3,4.6c-0.7,3.2-4.4,5.3-9.8,5.7
				c-0.6,0-1.2,0.1-2,0.1C54.4,73.9,48.6,74.3,42.8,74.3z M25.2,69.3c1.3,1.5,5.4,3.3,17.5,3.3c5.8,0,11.6-0.4,15.5-0.7
				c0.7,0,1.4-0.1,2-0.1c4.6-0.3,7.7-1.9,8.3-4.4c0.3-1.5-0.4-3-1.8-3.8c-0.3-0.2-0.5-0.5-0.4-0.8c0-0.3,0.3-0.6,0.6-0.7
				c3.2-1,5-2.7,5-4.9c-0.1-2-1.8-3.9-3.9-4.3c-0.4-0.1-0.7-0.4-0.7-0.8c0-0.4,0.3-0.7,0.7-0.8c3.6-0.5,5.3-2.9,5.4-5
				c0.1-1.8-1-4-4.3-4.7c-0.4-0.1-0.7-0.5-0.6-0.9c0-0.4,0.4-0.7,0.8-0.8c0.4,0,3.9-0.3,3.8-5c-0.1-3-1.7-7-15.1-7
				c-0.4,0-0.8,0-1.2,0c0,0,0,0,0,0c-0.3,0-0.6-0.2-0.8-0.5c-0.1-0.3-0.1-0.7,0.2-0.9c4.8-4.9,4.9-13,2.9-18.6
				c-1.4-3.8-3.7-6.2-6.1-6.4c-0.2,0-0.3,0-0.5,0c-2.9,0-3.3,2.5-4,7.4c-0.5,3.6-1,7.8-3.3,11.3c-3,4.5-7.4,5.7-11.2,6.7
				c-3,0.8-5.9,1.5-7.8,3.7C24.7,38.7,24.1,67.1,25.2,69.3z"/>
		</g>
	</g>
	<path class="st1" d="M49.2,27.5c-1.9,1.5,10.5-0.3,15.4,0.1c0,0,0,0,0,0c-2.2-0.3-4.9-0.5-7.9-0.4c8.1-8.2,3.8-25.7-3.7-26.4
		c-0.8-0.1-1.4,0-1.9,0.2C57.5,3.8,58.5,23,49.2,27.5z"/>
	<path class="st1" d="M69.2,40.8c0,0,4.7-0.2,4.6-5.8c-0.1-4-3-6.3-8.7-7.3c4.4,1,6,9.3-1.3,12c4.3,0.4,7.2,8.9-1.2,9.9
		c4.7,1.2,5.9,8.3-1.8,9.6c3.6,0.7,4,6.3-1.3,7.4c-5.3,1.1-28.1,0.7-34.4-1.2l-0.9,2.3c0.1,1.1,0.3,1.8,0.4,2
		c4.4,5.4,25.4,3.6,35.6,2.8c10.4-0.8,10.8-7.4,6.9-9.6c8.7-2.6,5.7-9.8,1-10.8C75.4,51.3,76.5,42.4,69.2,40.8z"/>
	<g>
		<g>
			<path class="st2" d="M25.7,70.1c1.1,6.2-16.4,5.4-21.1,1.9c-4.8-3.5-3.8-30.5-3.1-40c0.5-7.1,24.3-7.5,23.9-1.6
				C24.7,40.1,23.7,58.9,25.7,70.1z"/>
			<path d="M16.4,75.6c-5,0-10.1-1.2-12.4-2.8c-0.9-0.6-3.4-2.5-3.9-18.4c-0.3-7.9,0.1-17,0.5-22.4c0.3-4.4,7.7-6.5,14.5-6.5
				c4.8,0,8.7,1,10.2,2.7c0.6,0.7,0.9,1.4,0.9,2.3c-1.2,18.1-1.1,31.4,0.3,39.5c0.2,1.1-0.1,2.1-0.8,2.9
				C23.8,75.2,19.1,75.6,16.4,75.6z M15.1,27.2c-6.1,0-12.6,1.8-12.8,4.9C1.2,45.8,1.1,68.6,5,71.4c2,1.5,6.8,2.5,11.4,2.5
				c3.9,0,6.9-0.8,8-2.1c0.4-0.5,0.5-1,0.4-1.6c-1.4-8.3-1.6-21.7-0.3-39.9c0-0.4-0.1-0.7-0.4-1C22.8,28,19.3,27.2,15.1,27.2z"/>
		</g>
		<g>
			<path class="st0" d="M4.8,32.1c-0.3,0-0.5-0.1-0.7-0.3c-0.3-0.4-0.2-0.9,0.2-1.2c1.6-1.2,5.3-2.4,10.7-2.4c0.5,0,0.8,0.4,0.8,0.8
				c0,0.5-0.4,0.8-0.8,0.8c-5,0-8.4,1.1-9.8,2.1C5.2,32,5,32.1,4.8,32.1z"/>
		</g>
		<g>
			<path class="st0" d="M3.5,41.5C3.5,41.5,3.5,41.5,3.5,41.5c-0.5,0-0.8-0.4-0.8-0.8c0-1.7,0.1-3.3,0.2-5c0-0.5,0.4-0.8,0.9-0.8
				c0.5,0,0.8,0.4,0.8,0.9c-0.1,1.6-0.1,3.3-0.2,5C4.3,41.2,3.9,41.5,3.5,41.5z"/>
		</g>
		<g>
			<path class="st0" d="M3.5,47.6C3.5,47.6,3.5,47.6,3.5,47.6c-0.5,0-0.8-0.4-0.8-0.8c0-0.9,0-1.7,0-2.6c0-0.5,0.4-0.8,0.8-0.8
				c0.5,0,0.8,0.4,0.8,0.8c0,0.8,0,1.7,0,2.6C4.3,47.3,3.9,47.6,3.5,47.6z"/>
		</g>
	</g>
	<path class="st1" d="M25.7,70.1c-0.2-1.2-0.4-2.4-0.5-3.7c-0.1-0.3-0.2-0.7-0.4-1c-1.4,1.3-4.4,2.1-7.7,2.5c0.9-0.8,1.5-2,1.6-3.3
		c0.1-2.6-1.9-4.9-4.5-5c-2.6-0.1-4.9,1.9-5,4.5c-0.1,1.6,0.7,3.1,1.8,4c-4-0.2-7.5-0.9-8.8-2.3l-0.3-0.1c0.6,3.1,1.4,5.5,2.6,6.3
		C9.3,75.5,26.7,76.3,25.7,70.1z"/>
	<g>
		<g>
			<path class="st0" d="M17.5,61.7c-0.1,2.6-2.3,4.7-5,4.5c-2.6-0.1-4.7-2.3-4.5-5c0.1-2.6,2.4-4.7,5-4.5
				C15.6,56.8,17.7,59.1,17.5,61.7z"/>
		</g>
		<g>
			<path class="st0" d="M17.5,61.7c-0.1,2.6-2.3,4.7-5,4.5c-2.6-0.1-4.7-2.3-4.5-5c0.1-2.6,2.4-4.7,5-4.5
				C15.6,56.8,17.7,59.1,17.5,61.7z"/>
		</g>
		<g>
			<g>
				<path d="M12.8,67.1c-0.1,0-0.2,0-0.3,0c-3.1-0.1-5.5-2.8-5.3-5.8c0.1-3.1,2.7-5.5,5.8-5.3c3.1,0.1,5.5,2.8,5.3,5.8
					C18.2,64.7,15.8,67.1,12.8,67.1z M12.8,57.5c-2.1,0-3.8,1.7-3.9,3.8c-0.1,2.2,1.6,4,3.8,4.1c2.2,0.1,4-1.6,4.1-3.8
					c0.1-2.2-1.6-4-3.8-4.1C12.9,57.5,12.8,57.5,12.8,57.5z"/>
			</g>
		</g>
	</g>
</g>
</svg>
