<?xml version="1.0" encoding="utf-8"?>
<!-- Generator: Adobe Illustrator 23.0.1, SVG Export Plug-In . SVG Version: 6.00 Build 0)  -->
<svg version="1.1" id="Calque_1" xmlns="http://www.w3.org/2000/svg" xmlns:xlink="http://www.w3.org/1999/xlink" x="0px" y="0px"
	 viewBox="0 0 400 300" style="enable-background:new 0 0 400 300;" xml:space="preserve">
<style type="text/css">
	.st0{clip-path:url(#SVGID_2_);fill:#A8A8A8;}
	.st1{clip-path:url(#SVGID_4_);fill:#FFFFFF;stroke:#FFFFFF;stroke-miterlimit:10;}
	.st2{fill:none;stroke:#FFFFFF;stroke-miterlimit:10;}
	.st3{clip-path:url(#SVGID_6_);fill:#C2EDB2;}
	.st4{clip-path:url(#SVGID_8_);fill:#C2EDB2;}
	.st5{clip-path:url(#SVGID_11_);fill:#C2EDB2;}
	.st6{clip-path:url(#SVGID_13_);fill:#C2EDB2;}
	.st7{clip-path:url(#SVGID_15_);fill:#C2EDB2;}
	.st8{clip-path:url(#SVGID_17_);fill:#C2EDB2;}
	.st9{clip-path:url(#SVGID_19_);fill:#C2EDB2;}
	.st10{clip-path:url(#SVGID_21_);fill:#C2EDB2;}
	.st11{clip-path:url(#SVGID_23_);fill:#C2EDB2;}
	.st12{clip-path:url(#SVGID_25_);fill:#C2EDB2;}
	.st13{clip-path:url(#SVGID_27_);fill:#C2EDB2;}
	.st14{clip-path:url(#SVGID_29_);fill:#C2EDB2;}
	
		.st15{clip-path:url(#SVGID_31_);fill:none;stroke:#FFFFFF;stroke-width:3.0684;stroke-linecap:round;stroke-linejoin:round;stroke-miterlimit:10;}
	
		.st16{clip-path:url(#SVGID_33_);fill:none;stroke:#69D6FA;stroke-width:5.2595;stroke-linecap:round;stroke-linejoin:round;stroke-miterlimit:10;}
	.st17{clip-path:url(#SVGID_35_);fill:#BF3D30;}
	.st18{clip-path:url(#SVGID_37_);fill:#BF3D30;}
	.st19{clip-path:url(#SVGID_39_);fill:#DE5C57;}
	.st20{clip-path:url(#SVGID_41_);fill:#D8D8D8;}
	.st21{fill:#A8A8A8;}
</style>
<g>
	<g>
		<defs>
			<rect id="SVGID_1_" x="44.1" y="25.8" width="311.8" height="193.5"/>
		</defs>
		<clipPath id="SVGID_2_">
			<use xlink:href="#SVGID_1_"  style="overflow:visible;"/>
		</clipPath>
		<path class="st0" d="M99.4,131.2c0,0,15.1-29.2,20.6-36.3c5.5-7,17-15.8,24.6-20c7.6-4.2,18.1-17.3,32.7-17.8
			c14.6-0.4,54.8-2.8,65.7-2.4c10.9,0.4,21-2.8,22.5,9.1s0.6,23.9,15.4,28.9c14.8,5.1,8.7,41.3,9.4,49.1c0.7,7.8,7.3,39.1-23.9,52.5
			s-45.4,19.5-69.1,15.1c-23.7-4.5-85.1-28.4-92.1-36.3c-7-7.9-15.7-8.2-15.5-15.4C89.9,150.8,95.1,138.1,99.4,131.2"/>
	</g>
</g>
<g>
	<g>
		<defs>
			<path id="SVGID_3_" d="M249.3,54.8c-2,0.1-4.1,0.1-6.3,0c-10.9-0.4-51,1.9-65.7,2.4c-14.6,0.4-25.1,13.6-32.7,17.8
				c-7.6,4.2-19.1,13-24.6,20c0,0-42.6,57.5-25.6,70.5s75.6,38.9,102.9,44.1c21.6,4,29.8,3.6,68.8-13.3
				c31.2-13.4,24.9-46.6,24.2-54.3c-0.7-7.8,5.4-44-9.4-49.1S267,75.9,265.5,64c-1-8.1-6-9.2-12.6-9.2
				C251.8,54.7,250.5,54.8,249.3,54.8"/>
		</defs>
		<clipPath id="SVGID_4_">
			<use xlink:href="#SVGID_3_"  style="overflow:visible;"/>
		</clipPath>
		<path class="st1" d="M184.7,111.3c1.2,1,1.8,2.4,3.1,2.9c7.7,2.8,15.5,5.6,23.2,8.4c0.7,0.3,1,0.1,1.2-0.6c1-2.9,2.1-5.8,3.2-8.7
			c0.3-0.7,0.2-1-0.6-1.3c-4.4-1.5-8.9-2.7-13.4-3.8c-1.5-0.4-3-0.7-4.5-0.2s-3.1,0.8-4.7,1.2C189.8,110.1,187.4,110.7,184.7,111.3
			 M216.8,112.9c-0.5-0.2-0.7,0-0.9,0.4c-1.4,3.8-2.8,7.6-4.3,11.4c-0.2,0.6,0,0.8,0.4,1c1.5,0.7,2.9,1.5,4.4,2.2
			c2.1,0.9,3.8,2.3,5.4,4c2.8,3.1,6.5,4.3,10.4,5c0.4,0.1,0.7,0,0.6-0.5c0-0.2-0.1-0.4-0.1-0.6c-0.3-1.8-0.7-3.7-0.9-5.5
			c-0.5-4.6-1.7-8.9-3.7-13.1c-0.5-1.2-1.3-2-2.8-2.2 M233.7,141.7c-0.1-0.8-0.3-1.6-0.4-2.3c-0.4-1.9-0.3-2-2.3-2.4
			c-3.5-0.7-6.7-2-9.1-4.6c-1.8-1.9-3.7-3.5-6.1-4.5c-1.2-0.5-2.4-1.1-3.5-1.8c-0.8-0.5-1.1-0.2-1.3,0.6c-0.8,2.5-1.8,5-2.6,7.6
			c-0.1,0.3-0.2,0.8-0.4,0.8c-0.9,0.1-0.8,0.9-1.1,1.4c-0.3,0.7-0.5,1.5-1,2.2c-1,1.5-1.1,1.6,0.6,2.4c1.8,0.9,3.4,2.4,5.3,3.1
			c3.5,1.2,3.2,3.6,6.3,5.5c0.6,0.4,1.3,0.8,1.8,1.3c1.4,1.4,2.8,2.8,4.1,4.2c0.4,0.4,0.6,0.4,1.1,0.1c1.3-0.9,5.7-3.2,6.1-4.6
			c0.8-2.7,1.6-5.5,2.3-8.2C233.6,142.3,233.7,142,233.7,141.7 M211.7,123.5c-0.1-0.4-0.6-0.4-0.9-0.5c-7-2.6-14-5.2-21.1-7.6
			c-1.9-0.7-3.5-1.6-4.8-3.2c-0.8-1-2.9-0.7-3.5,0.5c-1.7,3.4-3.4,6.9-5.2,10.4c-0.3,0.6-0.2,0.8,0.4,1.1c3.7,1.8,7.3,3.6,10.9,5.4
			c0.7,0.4,1.5,0.6,2.3,0.9c1.8,0.5,3.6,1,5.3,1.5c0.4,0.1,0.8,0.3,1.1,0.5c2,1.6,3.9,3.3,5.4,5.4c0.6,0.8,1.3,1.3,2.1,1.8
			c0.5,0.3,0.7,0.2,1.1-0.2c0.9-1.2,1.4-2.6,1.9-4c0.1-0.3,0.1-0.7,0.4-0.8c0.7-0.1,0.7-0.6,0.8-1c1.2-3.2,2.3-6.4,3.4-9.7
			C211.5,123.9,211.6,123.8,211.7,123.5 M171.1,153.6c1.4,0.9,2.6,2,4,2.8c4.3,2.2,8.7,4.3,13,6.5c1.9,0.9,3.8,1.9,5.7,2.9
			c0.2,0.1,0.6,0.5,0.7,0.1c0.2-1.1,1.1-1.8,1.5-2.8c2.4-7.4,5.5-14.5,7.8-22c0.1-0.5,0-0.7-0.3-0.9c-1.2-0.5-2-1.6-2.8-2.6
			c-2.5-3.3-5.6-5.6-9.7-6.3c-0.3-0.1-0.7-0.2-0.8,0.2c-0.1,0.3-0.4,0.7,0.2,1c0.6,0.3,0.5,0.6,0.2,1.1c-1.7,2.8-3,5.8-4.2,8.9
			c-0.4,1.1-1,2.1-2.3,2.2c-0.2,0-0.3,0.1-0.5,0.2c-2.9,2.3-6,4.4-8.9,6.5C173.5,152.1,172.4,152.8,171.1,153.6 M182.3,111.5
			c0.4-0.1,0.6-0.1,0.8-0.2c5-1.2,10-2.5,15.1-3.7c0.6-0.1,1.1-0.1,1.7,0c2.5,0.6,5,1.2,7.5,1.9c0.7,0.2,0.9,0.1,0.9-0.7
			c-0.1-1.5,0-3,0-4.6c-0.1-3.4,1.5-6.5,1.9-9.8c0.3-2.5,0.5-5,0.3-7.5c-0.1-0.7-0.3-0.8-0.9-0.6c-2.7,0.8-5.5,1.4-8.1,2.4
			c-2.5,0.9-4.8,0.4-7-0.6c-2-0.8-3.9-1.6-5.8-2.6c-1.4-0.7-2.5-0.9-3.6,0.5c-0.1,0.2-0.3,0.3-0.5,0.3c-0.5,0.2-0.6,0.6-0.7,1.1
			c-0.1,3.2-0.3,6.5-0.3,9.7c0,1.9-0.3,3.9-0.1,5.8c0.1,0.4,0.3,0.9,0.1,1.3C182.5,106.6,182.7,109,182.3,111.5 M213,171.8
			c0.3,0.1,0.6-0.1,0.8-0.3c3.5-1.7,6.9-3.4,10.4-5c0.5-0.2,0.7-0.5,0.9-1c0.9-2-1.9-2.9-0.9-4.9c0.3-0.6,0.6-1.2,1.2-1.6
			c0.5-0.3,0.6-0.6,0.1-1.2c-2.1-2.4-4.4-4.5-6.5-6.8c-0.2-0.2-0.6-0.4-0.8-0.6c-3-1.7-2.3-4.3-5.7-5.3c-2.7-0.8-4.7-2.7-7.2-4
			c-0.9-0.5-1.2-0.3-1.4,0.6c-1.3,5-3.4,9.8-5.2,14.7c-1.1,3-1.8,6.2-3.6,9c-0.3,0.5-0.6,1.2,0.4,1.6c3.8,1.5,7.6,2.8,11.5,3.9
			C209,171.3,211,171.7,213,171.8 M226,85.1c-4.8-0.2-9.3,0.5-13.9,0.9c-1.4,0.1-1.4,0.2-1.2,1.6c0.5,3.5-0.2,7-1,10.3
			c-0.7,3-1.3,5.9-1.2,8.9c0,0.9-0.3,2.1,0.2,2.8c0.5,0.7,1.7,0.7,2.6,1c3.4,1,6.6,2.6,10.1,3.2c1.7,0.3,3.5,0.4,4.9,1
			c1.6,0.8,2.3-0.2,3.4-0.7c0.4-0.2,0.9-0.4,1.3-0.6c3.7-2,7.6-3.6,11.2-5.7c0.7-0.4,0.6-0.7,0.2-1.2c-2.2-2.9-4.4-5.9-6.6-8.8
			c-0.4-0.6-0.7-1.1-0.7-1.9c0-1.8-0.1-3.6-0.2-5.4c0-1.4,0.3-2.9-1.2-3.8c-0.1,0-0.1-0.1-0.1-0.2c-0.2-0.9-0.9-1.1-1.7-1.1
			C230.1,85.3,227.9,85.2,226,85.1 M269,151.2c1,0.2,1.1-0.4,1.1-1.1c0-0.3-0.1-0.5-0.1-0.8c-0.5-2.4-1.2-4.6-2.5-6.7
			c-0.9-1.5-1.7-3-2.4-4.6c-1-2.2-2.7-3.7-4.9-4.5c-1.4-0.5-2.2-1.4-2.6-2.9c-0.9-4.4-2.9-8.2-5.9-11.6c-1-1.2-1.4-2.7-2.4-3.8
			c-2-2.1-3.9-4.3-5.5-6.7c-0.4-0.5-0.7-0.6-1.2-0.3c-1.4,0.8-2.7,1.7-4.2,2.3c-3,1.2-5.7,3-8.6,4.3c-0.5,0.2-0.8,0.6-1.3,0.8
			c-0.5,0.3-0.4,0.5-0.2,1c1.1,2.6,2.5,5.2,3,8.1c1,5.2,1.7,10.4,2.6,15.6c0.1,0.9,0.1,1.9,1.5,1.7c0.2,0,0.4,0.2,0.6,0.4
			c0.4,0.4,0.8,0.7,1.3,0.9c4,1.9,8,3.7,12.6,4c3.8,0.2,7.4,1.4,11.1,2.2C263.7,150,266.3,150.6,269,151.2 M183.2,93.8c0-2,0-4,0-6
			c0-1.2,0-1.2-1.1-0.8c-4,1.2-8.1,2.5-12.1,3.6c-3.1,0.8-6.4,1-9.5,1.9c-3.8,1.1-7.5,2.4-11.3,3.7c-0.5,0.1-0.7,0.4-0.9,0.8
			c-1,2.1-2,4.2-3,6.3c-0.3,0.6-0.3,1.1,0.1,1.7c1.5,2.4,2.7,5,3.8,7.6c0.8,2,0.9,4.1,1.4,6.1c0.2,1,0.8,1.6,1.7,1.9
			c0.6,0.2,0.7,0.5,0.7,1c-0.1,1,0.4,1.2,1.3,1.2c5.8-0.2,11.6-0.3,17.5-0.5c1.1,0,2.2,0.1,3.1,0.7c0.6,0.5,0.9,0.3,1.3-0.4
			c1.7-3.4,3.4-6.8,5.1-10.2c0.3-0.5,0.9-0.8,0.9-1.5c0.1-3.3,1.4-6.4,0.8-9.7c0-0.1,0-0.1,0-0.2C183.1,98.7,182.7,96.2,183.2,93.8
			 M162.7,122.9c0,0.1,0,0.3,0,0.4c-1.8,0-3.5,0-5.3,0c-2.9,0-5.8,0.2-8.7,0.9c-1.6,0.4-3.1,1.1-4.3,2.2c-1.8,1.7-5.6,2.3-7.3,4.1
			c-0.6,0.7-0.7,1,0,1.7c6.2,6,14.6,13.3,20.7,19.3c1.2,1.1,2.1,1.6,3.5,0.7c0.4-0.2,0.8-0.3,1.2-0.5c0.5-0.2,0.8-0.2,1.2,0.2
			c0.9,0.9,1.8,1.7,2.7,2.6c0.3,0.3,0.5,0.5,1,0.3c0.9-0.5,1.9-0.8,2.7-1.3c4.3-2.5,8.1-5.6,12.2-8.4c0.4-0.3,0.7-0.9,1.3-0.9
			c1.2-0.2,1.7-1,2.1-2c1.2-2.9,2.3-5.8,4-8.4c0.3-0.4,0.6-0.9-0.2-1.2c-0.3-0.1-0.3-0.5-0.1-0.7c0.4-0.8-0.1-1.1-0.7-1.2
			c-0.4-0.1-0.7-0.2-1-0.4c-4.7-2.3-9.4-4.7-14-7.1c-0.4-0.2-0.9-0.3-1.3-0.3C169.2,122.9,166,122.9,162.7,122.9 M186.6,56.4
			c-1.3-0.3-2.5,0.3-3.8,0.3c-2.1,0-4.3,0.1-6.4,0.1c-0.8,0-1.4-1.4-1.9-0.8c-0.7,0.9-1.7,1.4-2.7,1.9c-2.4,1.1-4.8,2.2-7.2,3.4
			c-4.4,2.2-8.2,5.3-12.2,8.1c-1.8,1.3-3.8,2.5-5.3,4.2c-1.4,1.5-3,2.3-5.1,1.9c-0.4-0.1-0.7,0-1,0.2c-4,3-8,5.9-11.1,9.9
			c-0.8,1-6.4,4.1-6.8,5.3c-0.7,1.9-2.8,2.4-3.2,4.4c-0.1,0.6,0,0.8,0.5,1c5.5,2.6,18.1,4.7,23.5,7.4c0.6,0.3,0.8,0.1,1-0.4
			c0.4-1,0.9-1.9,1.3-2.8c0.7-1.4,1.1-3.1,2.1-4.1c1.1-1.1,2.9-1.1,4.4-1.6c3.2-1,6.4-2.3,9.8-3c2.4-0.5,5-0.7,7.4-1.4
			c4.4-1.2,8.7-2.6,13.1-3.9c0.7-0.2,0.5-0.6,0.3-1c-0.5-1.8-1.1-3.6-1.6-5.3c-0.2-0.7-0.2-1.3-0.1-2c1-4.3,1.9-8.6,2.9-12.9
			C185.2,61.6,185.8,59.9,186.6,56.4 M152.4,193.3c0.5,0.2,0.8,0.3,1.2,0.5c11.7,3.9,23.4,7.9,35.1,11.8c0.9,0.3,1.4,0.6,1.1,1.6
			c-0.2,0.7,0,1,0.7,1c2,0.2,4,0.5,6,0.8c2.2,0.3,4.4,0.1,6.5,1c0.5,0.2,0.5-0.3,0.4-0.5c-0.1-1.3,0.1-2.5,0.4-3.7
			c0.4-1.6,0-2.8-1.1-4.1c-1.8-2.1-2.5-4.5-2.2-7.3c0.3-3,0.2-6-0.2-9c-0.3-2.3-0.4-4.6-0.1-6.9c0.4-2.7,0.6-5.4,0.8-8.1
			c0-0.7-0.2-1-0.8-1.3c-2.1-0.9-4.2-1.6-6.2-2.7c-4.2-2.4-8.6-4.4-12.8-6.5c-0.5-0.3-0.8-0.2-1.2,0.3c-0.6,0.9-1.2,1.8-1.9,2.7
			c-0.9,1.1-1.5,2.2-0.9,3.7c0,0.1,0,0.2-0.1,0.3c-0.6-0.4-1.1-0.7-1.6-1.1c-1.5-1-1.1-1.1-2.1,0.4c-3.7,5.6-7.4,11.3-12.1,16.2
			C158,185.7,155.3,189.6,152.4,193.3 M290.7,124.2c0.2-2-0.5-4.1-0.6-5.8c-0.4-5.1,0.7-8.6-0.4-14.1c-0.6-2.8-3.7-5-5.5-7.4
			c-0.3-0.5-0.5-0.7-1.1-0.4c-1.9,1.1-3.9,1.9-5.9,2.8c-4.7,2.2-9.6,2.8-14.7,2.3c-1.6-0.1-3.2-0.4-4.5,0.8
			c-0.3,0.3-0.8,0.4-1.3,0.4c-0.7,0-1.3,0.3-1.9,0.7c-0.9,0.7-1.8,1.3-2.9,1.5c-2.4,0.5-4.8,1.3-7.1,2.2c-0.9,0.4-0.8,0.6-0.3,1.3
			c2.5,3.6,5.6,6.6,8,10.3c2.1,3.4,4.6,6.5,5.4,10.5c0.1,0.3,0.2,0.5,0.2,0.8c0.2,1.7,1.2,2.6,2.8,3.2c2,0.8,3.6,2.2,4.6,4.2
			c1.2,2.5,2.6,4.8,3.8,7.3c0.9,1.8,1.4,3.8,1.4,5.8c0,0.5,0.1,0.6,0.6,0.7c1.2,0.1,2.4,0.3,3.6,0.5c4.9,0.6,9.8,1.3,14.7,1.9
			c0.5,0.1,0.6-0.1,0.7-0.5c0.2-1.3,0.5-2.5,0.3-3.8c-0.4-3.7-0.9-7.3-1.3-11C288.5,133.6,290.5,128.8,290.7,124.2 M224.9,84.8
			c1.1,0,2.2,0,3.3,0c0.3,0,0.7,0.1,0.9-0.4c0.6-1.7,1.7-3.1,2.2-4.8c1.2-3.9,2.3-7.8,3.4-11.7c0.4-1.2,0.8-2.3,1.9-3
			c0.5-0.3,0.3-0.7,0-1c-0.9-1.2-1.3-2.5-1.3-4c0-2-0.2-2.3-0.2-4.4c0-0.8-0.2-1.1-1.1-1c-15.3,0.8-30.6,1.3-45.9,1.7
			c-1,0-1.2,0.4-1.4,1.2c-1.3,6-2.6,10.4-3.9,16.4c-1.2,5.3-1.2,5.3,0.4,10.5c0.6,1.8,0.6,1.9,2,0.6c0.6-0.6,1.2-0.7,2-0.3
			c2.4,1.1,4.8,2.1,7.2,3.2c2.1,0.9,4.2,1.2,6.6,0.4c4.2-1.4,8.5-2.8,13-2.9C217.8,85.2,221.3,84.5,224.9,84.8 M234.7,142.3
			c-0.6-0.2-0.7,0.2-0.9,0.7c-0.7,2.5-1.4,4.9-2.1,7.4c-0.5,1.6-4.8,4.3-6.3,5.2c-0.6,0.4-0.5,0.7-0.1,1.1c1,1.1,1.9,2.3,2.9,3.4
			c2.5,2.9,5.3,5.6,7.6,8.7c5.9,8.2,13.9,20.3,20.2,28.2c0.5,0.6,0.9,0.7,1.6,0.2c2.8-2,9.6-4.7,12.9-5.6c0.8-0.2,1.5-0.5,2.3-0.9
			c5-2.6,9.7-7.9,13.8-11.8c0.6-0.5,0.9-1.2,1.1-1.9c1.3-4.6,0.3-12.3,1.4-16.9c0.4-1.7,0.6-3.5,0.9-5.2c0.1-0.7-0.2-0.9-0.8-1
			c-3.5-0.4-6.9-0.9-10.4-1.3c-5.8-0.8-11.7-1.3-17.4-2.8c-3.3-0.9-6.6-1.7-10-2.2c-1.5-0.2-3-0.1-4.4-0.5
			c-3.9-1.1-7.9-2.3-11.2-4.7C235.4,142.3,235.1,142.3,234.7,142.3 M244.2,54.1L244.2,54.1c-2.6,0.1-5.1,0.2-7.7,0.3
			c-0.7,0-0.9,0.2-0.9,0.9c0.1,1.5,0.1,1.3,0.1,2.7c0.1,2.1,0,4.2,1.5,5.9c0.4,0.4,0.3,0.8-0.2,1.1c-1.1,0.7-1.6,1.7-1.9,2.9
			c-0.2,0.8-0.4,1.6-0.7,2.3c-1.5,4.2-2.1,8.6-4.2,12.5c-1.1,2-1,2.1,1.3,2.2c0.1,0,0.2,0,0.3,0c1.1,0,2.1,0.2,2.5,1.4
			c0.1,0.3,0.4,0.6,0.6,0.8c0.5,0.3,0.6,0.7,0.6,1.2c0,2.4,0.1,4.9,0.2,7.3c0,0.6,0.1,1.2,0.5,1.7c2.3,3,4.5,6.1,6.8,9.1
			c0.3,0.5,0.6,0.5,1.2,0.3c2.5-1.1,5.1-1.9,7.8-2.5c0.7-0.1,1.3-0.4,1.8-0.8c1.5-1.5,3.9-1.1,5.4-2.5c0,0,0.1,0,0.2,0
			c1-0.1,2-0.2,3,0c3.8,0.6,7.4-0.1,11-1c2.9-0.7,5.6-2.2,8.3-3.5c1.7-0.9,1.7-0.9,0.7-2.6c-0.5-0.9-1.2-1.6-2.3-1.8
			c-1.3-0.3-2.6-0.9-3.8-1.5c-2.5-1.2-4.4-3.2-6-5.5c-0.1-0.2-0.2-0.4-0.2-0.7c-0.1-1.7-4.7-5-4.1-6.6c0.1-0.3,0.1-0.7,0-1
			c-0.9-6.3-2.4-12.5-4.3-18.6c-0.1-0.4-0.3-0.8-0.7-1.1c-1.7-1.6,0.8,0.2-0.9-1.4c-0.2-0.2-0.4-0.4-0.8-0.5
			c-3.6-0.6-7.1-1.9-10.8-1.5C247.3,54,245.7,54,244.2,54.1 M225.5,210.1c0.8,0,1.6,0,2.4,0c1.1-0.1,2.3-0.7,2.6-1.5
			c0.4-0.9,1-1.1,1.6-1.4c1.7-0.9,3.4-1.7,5.1-2.5c2-1,5.7,1.4,7.5,0.3c4.9-2.9,5.8-3,10.7-6.1c0.8-0.5,0.8-0.9,0.2-1.6
			c-5.9-7.3-13.5-18.9-18.9-26.6c-0.8-1.1-1.6-2.1-2.5-3.1c-2.3-2.6-4.6-5.2-6.9-7.8c-1-1.1-1.2-1.1-2.1,0c-0.2,0.3-0.3,0.6-0.5,0.9
			c-1,2,1.8,3,0.9,5c-0.2,0.5-0.6,0.9-1.1,1.1c-3.5,1.7-7,3.4-10.4,5.1c-0.5,0.3-1.1,0.3-1.7,0.3c-3.4-0.3-6.6-1.2-9.8-2.3
			c-1.1-0.4-1.2-0.3-1.3,0.9c-0.1,1.6-0.1,3.2-0.4,4.8c-0.5,3.4-0.7,6.7-0.3,10.1c0.3,2.4,0.4,4.8,0.2,7.3c-0.1,1.2-0.3,2.4-0.1,3.5
			c0.3,1.9,1,3.8,2.4,5.3c1,1,1.3,2.2,1,3.6c-0.3,1.3-0.5,2.6-0.4,3.9c0,0.9,0.5,1,1.2,0.9c1.3-0.3,2.6,1.9,3.7,1
			c0.8-0.7,1.7,0.8,2.7,0.4c2.1-0.9,4-2.3,5.3-0.5c0.4,0.6,0.9,1.1,1.7,1.1C220.8,212.4,223.1,210.3,225.5,210.1 M90.4,160.5
			C91.9,162.4,89.2,158.5,90.4,160.5c0.3,0.4,10,9,10.5,9c2.5,0.4,1.8,3.5,4.3,3.9c0.7,0.1,1,3.2,1.4,2.6c2.8-4.3,3.6-9.9,6.3-14.3
			c4.4-7.1,8.9-14.1,14.9-20c2.9-2.9,5.9-5.7,7.6-9.5c0.1-0.2,0.2-0.3,0.4-0.5c2-2.4,6.4-3.4,8.6-5.7c0.3-0.3,0.7-0.5,1-0.8
			c1.8-1.2,3.9-1.7,6.1-2c0.5-0.1,1.3-0.1,1-1c0.2-0.6-0.1-0.9-0.7-1.2c-1-0.4-1.5-1.1-1.7-2.2c-0.4-1.9-0.5-3.7-1.2-5.5
			c-1-2.9-2.5-5.7-4.1-8.4c-0.3-0.4-0.6-0.7-1.1-0.9c-5.5-2.7-18.1-4.8-23.6-7.5c-0.6-0.3-0.8-0.2-1.1,0.4c-0.6,1.5-1.3,3.1-2,4.5
			c-1.7,3.3-3,6.9-5.3,9.9c-3,4.1-13.1,19.5-15.3,24.1l-1,18L90.4,160.5z M106.5,176.8c1.3-0.2,0.2-1.6,1.2-1.9
			c1.4-0.5,2.7-0.4,3.5,1.2c0.3,0.6,3,2.5,3.5,3c0.4,0.4,0.3,0.7-0.1,1c-0.7,0.6,0.9-1.6,0.1-1c-0.4,0.3-0.6,0.7-0.6,1.2
			c0.1,1.3,3.5-0.8,3.6,0.5c0,0.6,0.3,0.8,0.9,0.8c1.5-0.1,2.3,1.3,3.8,1.3c0.6,0-0.4,1,0,0.6c2.3-1.7-1.7,1.7,0-0.6
			c0.5-0.8,0.8-0.5,1.6,0c5.1,2.8,12,3.4,16.8,6.5c0.6,0.4,1.2,0.7,1.9,0.9c2.7,0.9,5.5,1.8,8.2,2.8c0.7,0.3,1.1,0.1,1.6-0.5
			c3.3-4.2,6.5-8.4,10-12.4c1.5-1.7,3.1-3.2,4.3-5.1c2.2-3.3,4.4-6.7,6.6-10c0.4-0.6,0.7-0.7,1.2-0.2c0.5,0.4,1.1,0.7,1.6,1.1
			c-0.4-1.2,0.3-1.9,0.9-2.6c0.8-1,1.4-2.1,2.2-3.1c0.5-0.6,0.4-0.8-0.3-1.2c-2.3-1.2-4.9-2.1-6.9-3.9c-1.1-1-2-1-3.3-0.3
			c-1.9,1-2.1,1.1-3.5-0.6c-1.6-1.9-3.2-2.3-5.2-0.9c-0.7,0.4-1.1,0.2-1.7-0.3c-6.5-6.3-15.2-13.9-21.6-20.2
			c-0.9-0.9-1.1-0.9-1.6,0.2c-1.2,2.5-2.9,4.5-4.8,6.5c-1.4,1.4-2.7,2.9-4.1,4.4c-3.7,3.8-6.9,8-9.7,12.6c-3,4.8-6.1,9.6-9.2,14.3
			C104.4,171.3,104.9,173.8,106.5,176.8 M102.6,125.1c2.4-5.1,5.2-10,8.5-14.5c2-2.8,3.2-6,4.8-9.1c1-2,1.9-4,2.8-6.1
			c0.5-1.3,2.7-1.1,2.8-2.4c0.2-1.8,6-5.4,6.6-7c0.2-0.6,0.9-0.7,1.2-1.1c2.6-3.6,6.1-6.4,9.7-8.9c0.2-0.1,0.4-0.2,0.5-0.4
			c0.9-1,2.1-1.4,3.4-1.1c1,0.2,1.9-0.2,2.6-0.9c3.4-3.5,7.6-5.8,11.4-8.7c4.2-3.2,8.9-5.5,13.6-7.6c1.3-0.6,2.5,0.5,3.5-0.7
			c0.5-0.5,1.1-0.7,1.8-0.8c2.4-0.2,4.8,0,7.2-0.2c6.1-0.6,12.2-0.6,18.4-0.7c11.3-0.4,22.6-0.9,33.9-1.4c4.8-0.2,9.6-0.4,14.4-0.7
			c3-0.2,5.8,0.9,8.7,1.3c1.3,0.2,2.4,0.7,3.3,1.7c0.9,0.9,1.9,0.1,2.9,0.8c1.8,1.3-1.7,1.5-1.1,3.6c1.6,5.3,2.8,10.7,3.6,16.2
			c0.1,0.7,0.1,1.4-0.1,2.1c-0.5,1.5,3.8,4.8,4.4,6.1c0.6,1.3,1.6,2.6,2.9,3.5c2.2,1.6,4.6,2.7,7.2,3.4c0.5,0.1,0.8,0.4,1.1,0.8
			c1.4,2.2,2.8,4.5,3.9,6.9c0.8,1.9,1.7,4,2.1,6c0.9,4.6,2.4,9.3,2.9,14c0.4,3.8-2.7,7.6-2.3,11.3c0.5,4.8,0.9,9.6,1.6,14.3
			c0.9,5.4,0.1,10.7-1.1,15.9c-1,4.5,0,11.9-1.2,16.3c-0.3,1.1-0.7,2-1.6,2.8c-3.8,3.5-8,8.6-12.5,11.1c-1.1,0.6-2.2,1.3-3.5,1.6
			c-4,1-11.2,4.3-14.5,6.6c-4.9,3.3-6,3.3-11,6.5c-0.7,0.4-1.4,0.6-2.1,0.9c-3.1,1.1-7.5-0.2-10.4,1.2c-0.4,0.2-0.8,0.3-0.8,0.9
			c0,0.3-0.3,0.4-0.6,0.5c-2.4,1.6-2.4,1.6-5.7,1.7c-2.6,0.2-5,2.2-7.5,2.1c-0.9-0.1-1.6-0.7-2.1-1.4c-1.1-1.5-2.4-1.9-4.1-1.2
			c-0.9,0.4-1.8,0.8-2.6,1.4c-1.8,1.4-3.8-0.4-5.9-0.9c-4.7-1.1-9.5-1.1-14.1-2c-0.8-0.2-0.9-0.6-0.7-1.2c0.3-1-0.1-1.3-1-1.6
			c-15.2-5.1-30.4-10.2-45.5-15.3c-0.9-0.3-1.7-0.9-2.5-1.4c-4.4-2.7-10.7-3-15.2-5.5c-0.8-0.5-1.3-0.4-1.8,0.4
			c-1.5,2.2,2.6-1.8,0.4-0.2c-0.5,0.4,1-1.9,0.4-1.9c-1.7,0-3.3,0-5,0.1c-1,0.1-1.5-0.3-1.5-1.4c0-1.5-3.5,0.4-3.6-1.1
			c-0.1-0.6,0.1-1.1,0.6-1.5c0.2-0.1,0.2,1.2,0.3,1.1c2-1.6-2.5-0.7-4.4-2.5c-0.4-0.3-0.8-0.9-1.2-0.9c-0.9,0.2-1.6-0.2-2.5,0
			c-3.3,0.7-0.8-5.2-4-5.5c-1.9-0.1-3.1-1-3.9-2.7c-0.8-1.6-1.8-0.1-3.1-1.4c-0.2-0.2-0.2-0.5-0.2-0.8"/>
	</g>
	<g>
		<path id="SVGID_9_" class="st2" d="M249.3,54.8c-2,0.1-4.1,0.1-6.3,0c-10.9-0.4-51,1.9-65.7,2.4c-14.6,0.4-25.1,13.6-32.7,17.8
			c-7.6,4.2-19.1,13-24.6,20c0,0-42.6,57.5-25.6,70.5s75.6,38.9,102.9,44.1c21.6,4,29.8,3.6,68.8-13.3
			c31.2-13.4,24.9-46.6,24.2-54.3c-0.7-7.8,5.4-44-9.4-49.1S267,75.9,265.5,64c-1-8.1-6-9.2-12.6-9.2
			C251.8,54.7,250.5,54.8,249.3,54.8"/>
	</g>
</g>
<g>
	<g>
		<defs>
			<rect id="SVGID_5_" x="44.1" y="25.8" width="311.8" height="193.5"/>
		</defs>
		<clipPath id="SVGID_6_">
			<use xlink:href="#SVGID_5_"  style="overflow:visible;"/>
		</clipPath>
		<path class="st3" d="M182.7,76.4l-2.2,2.1c-0.3,0.3-0.3,0.8-0.1,1.1l1.4,1.6c0.2,0.2,0.2,0.4,0.2,0.7l-0.4,1.9
			c-0.1,0.5,0.2,0.9,0.7,1l2.8,0.3c0.3,0,0.7-0.1,0.8-0.5l1.3-2.7c0.1-0.3,0.1-0.6-0.1-0.8l-3.2-4.4c-0.2-0.2-0.4-0.3-0.7-0.3
			C183,76.2,182.8,76.2,182.7,76.4"/>
	</g>
	<g>
		<defs>
			<rect id="SVGID_7_" x="44.1" y="25.8" width="311.8" height="193.5"/>
		</defs>
		<clipPath id="SVGID_8_">
			<use xlink:href="#SVGID_7_"  style="overflow:visible;"/>
		</clipPath>
		<path class="st4" d="M167.1,80.8l-1.4-3c-0.1-0.3-0.1-0.6,0.1-0.8l1.6-2.5c0.3-0.5,0.1-1.1-0.4-1.2l-2.8-0.8
			c-0.3-0.1-0.5,0-0.7,0.1l-0.7,0.6c-0.3,0.2-0.4,0.6-0.2,1l1.2,2.4c0.1,0.1,0.1,0.3,0.1,0.4l-0.2,3.3c0,0.2,0.1,0.4,0.2,0.6
			l1.6,1.8c0.4,0.4,1,0.3,1.3-0.2l0.5-0.9C167.2,81.3,167.2,81.1,167.1,80.8"/>
	</g>
	<g>
		<defs>
			<rect id="SVGID_10_" x="44.1" y="25.8" width="311.8" height="193.5"/>
		</defs>
		<clipPath id="SVGID_11_">
			<use xlink:href="#SVGID_10_"  style="overflow:visible;"/>
		</clipPath>
		<path class="st5" d="M160,94.5l-4.8,0.9c-0.1,0-0.3,0.1-0.4,0.2l-2,1.7c-0.4,0.3-0.4,0.9-0.1,1.2c0.9,0.9,2.5,2.3,2.7,2.2
			c0.3-0.2,2.6-1.9,3.2-2.3c0.4-0.3,1.6-1.5,2.4-2.3c0.4-0.4,0.2-1.2-0.3-1.3l-0.4-0.1C160.3,94.4,160.1,94.4,160,94.5"/>
	</g>
	<g>
		<defs>
			<rect id="SVGID_12_" x="44.1" y="25.8" width="311.8" height="193.5"/>
		</defs>
		<clipPath id="SVGID_13_">
			<use xlink:href="#SVGID_12_"  style="overflow:visible;"/>
		</clipPath>
		<path class="st6" d="M108.7,113.1l26.8-4.4c0.6-0.1,0.9-0.9,0.4-1.3l-0.1-0.1c-0.2-0.2-0.5-0.3-0.7-0.2l-26.7,4.2
			c-0.4,0.1,6.4-0.2,6.4,0.2v0.3C114.9,112.3,108.2,113.2,108.7,113.1"/>
	</g>
	<g>
		<defs>
			<rect id="SVGID_14_" x="44.1" y="25.8" width="311.8" height="193.5"/>
		</defs>
		<clipPath id="SVGID_15_">
			<use xlink:href="#SVGID_14_"  style="overflow:visible;"/>
		</clipPath>
		<path class="st7" d="M146.8,149.1c-3.2-2.4-17.3-13.7-21-16.6c-0.4-0.3-0.4-1,0.1-1.3l6.8-4.4c0.3-0.2,0.8-0.2,1,0.1l16.3,18.2
			c0.3,0.3,0.3,0.7,0,1l-2.1,2.9C147.6,149.3,147.1,149.4,146.8,149.1"/>
	</g>
	<g>
		<defs>
			<rect id="SVGID_16_" x="44.1" y="25.8" width="311.8" height="193.5"/>
		</defs>
		<clipPath id="SVGID_17_">
			<use xlink:href="#SVGID_16_"  style="overflow:visible;"/>
		</clipPath>
		<path class="st8" d="M182.9,181.5l-8.5-3.6c-0.4-0.2-0.6-0.6-0.4-1.1l2.6-6c0.2-0.5,0.8-0.6,1.2-0.4l5.5,3.4
			c0.2,0.1,0.4,0.4,0.4,0.6l0.4,6.2C184.1,181.3,183.5,181.8,182.9,181.5"/>
	</g>
	<g>
		<defs>
			<rect id="SVGID_18_" x="44.1" y="25.8" width="311.8" height="193.5"/>
		</defs>
		<clipPath id="SVGID_19_">
			<use xlink:href="#SVGID_18_"  style="overflow:visible;"/>
		</clipPath>
		<path class="st9" d="M192.2,171.8c0-0.3-4.6-7.5-5.5-8.8c-0.1-0.1-0.1-0.3-0.1-0.5l0.5-5.8c0-0.4,0.4-0.7,0.8-0.7h5.8
			c0.4,0,0.7,0.3,0.8,0.7l0.6,4.3c0,0.1,0,0.2,0,0.3l-2.5,11.2L192.2,171.8z"/>
	</g>
	<g>
		<defs>
			<rect id="SVGID_20_" x="44.1" y="25.8" width="311.8" height="193.5"/>
		</defs>
		<clipPath id="SVGID_21_">
			<use xlink:href="#SVGID_20_"  style="overflow:visible;"/>
		</clipPath>
		<path class="st10" d="M215.8,164.8l8-5.9c0.4-0.3,0.9-0.2,1.2,0.2l4,6.1c0.3,0.4,0.1,1.1-0.4,1.2l-12.5,3.9
			c-0.6,0.2-1.1-0.3-1-0.9l0.6-4.1C215.5,165.2,215.6,165,215.8,164.8"/>
	</g>
	<g>
		<defs>
			<rect id="SVGID_22_" x="44.1" y="25.8" width="311.8" height="193.5"/>
		</defs>
		<clipPath id="SVGID_23_">
			<use xlink:href="#SVGID_22_"  style="overflow:visible;"/>
		</clipPath>
		<path class="st11" d="M252.8,186.5l-8.5-8.9c-0.3-0.3-0.3-0.8,0-1.1l1.9-2.1c0.3-0.3,0.8-0.3,1.2,0l7.8,8c0.2,0.2,0.3,0.6,0.2,0.9
			l-1.2,3C253.9,186.8,253.2,186.9,252.8,186.5"/>
	</g>
	<g>
		<defs>
			<rect id="SVGID_24_" x="44.1" y="25.8" width="311.8" height="193.5"/>
		</defs>
		<clipPath id="SVGID_25_">
			<use xlink:href="#SVGID_24_"  style="overflow:visible;"/>
		</clipPath>
		<path class="st12" d="M259.4,135l-2.6-5.5c-0.2-0.4,0-0.9,0.4-1.1l8.5-3.6c0.3-0.1,0.7,0,0.9,0.2l6.3,7.8c0.2,0.3,0.2,0.7,0,1
			l-4.5,5.1c-0.2,0.2-0.6,0.3-0.9,0.2l-4-1.3c-0.1,0-0.1-0.1-0.2-0.1l-3.8-2.6C259.5,135.2,259.4,135.1,259.4,135"/>
	</g>
	<g>
		<defs>
			<rect id="SVGID_26_" x="44.1" y="25.8" width="311.8" height="193.5"/>
		</defs>
		<clipPath id="SVGID_27_">
			<use xlink:href="#SVGID_26_"  style="overflow:visible;"/>
		</clipPath>
		<path class="st13" d="M247.8,102.2c-1-1.2-2.2-2.7-2.8-3.5c-0.2-0.3-0.2-0.7,0-0.9l4.9-7.2c0.2-0.3,0.7-0.5,1-0.3l5.5,2.8
			c0.1,0.1,0.2,0.1,0.3,0.3l1.2,1.8c0.3,0.5,0,1.2-0.6,1.3l-7.6,1c-0.4,0.1-0.7,0.4-0.7,0.8l0.2,3.4
			C249.2,102.4,248.3,102.8,247.8,102.2"/>
	</g>
	<g>
		<defs>
			<rect id="SVGID_28_" x="44.1" y="25.8" width="311.8" height="193.5"/>
		</defs>
		<clipPath id="SVGID_29_">
			<use xlink:href="#SVGID_28_"  style="overflow:visible;"/>
		</clipPath>
		<path class="st14" d="M259.4,79.8c-0.4,0.2-0.9-0.1-1.1-0.5c-1.1-3.3-6-15.4-6.3-15.2c-0.3,0.2,1.3-2.4,2-3.6
			c0.2-0.3,0.6-0.5,1-0.3l8.5,2.9c0.2,0.1,0.3,0.2,0.4,0.4l2,9.4c0.2,0.4,0.1,1-0.4,1.2L259.4,79.8z"/>
	</g>
	<g>
		<defs>
			<rect id="SVGID_30_" x="44.1" y="25.8" width="311.8" height="193.5"/>
		</defs>
		<clipPath id="SVGID_31_">
			<use xlink:href="#SVGID_30_"  style="overflow:visible;"/>
		</clipPath>
		<path class="st15" d="M99.4,131.2c0,0,15.1-29.2,20.6-36.3c5.5-7,17-15.8,24.6-20c7.6-4.2,18.1-17.3,32.7-17.8
			c14.6-0.4,54.8-2.8,65.7-2.4c10.9,0.4,21-2.8,22.5,9.1s0.6,23.9,15.4,28.9c14.8,5.1,8.7,41.3,9.4,49.1c0.7,7.8,7.3,39.1-23.9,52.5
			s-46.2,19-69.9,14.5s-84.2-27.8-91.2-35.7s-15.7-8.2-15.5-15.4C89.9,150.8,95.1,138.1,99.4,131.2z"/>
	</g>
	<g>
		<defs>
			<rect id="SVGID_32_" x="44.1" y="25.8" width="311.8" height="193.5"/>
		</defs>
		<clipPath id="SVGID_33_">
			<use xlink:href="#SVGID_32_"  style="overflow:visible;"/>
		</clipPath>
		<path class="st16" d="M47.1,150.2c1.7,32.9-5.4,48,8.4,51.4c13.8,3.4,42.6-13.8,70.5-58.4c27.9-44.7,78.6-6.7,94.4,9.1
			s31.6,61.8,77.6,64.1c46,2.4,43.3-6,55.4-8.7"/>
	</g>
	<g>
		<defs>
			<rect id="SVGID_34_" x="44.1" y="25.8" width="311.8" height="193.5"/>
		</defs>
		<clipPath id="SVGID_35_">
			<use xlink:href="#SVGID_34_"  style="overflow:visible;"/>
		</clipPath>
		<path class="st17" d="M201,39.8c5.1,0,9.3,4.2,9.3,9.3s-4.2,9.3-9.3,9.3s-9.3-4.2-9.3-9.3S195.9,39.8,201,39.8 M201,25.8
			c-12.9,0-23.3,10.4-23.3,23.3c0,0-0.3,1.5,0.4,4.5c0.6,2.9,1.7,5.6,3.2,8c3.2,6,19.6,29.2,19.6,42.3"/>
	</g>
	<g>
		<defs>
			<rect id="SVGID_36_" x="44.1" y="25.8" width="311.8" height="193.5"/>
		</defs>
		<clipPath id="SVGID_37_">
			<use xlink:href="#SVGID_36_"  style="overflow:visible;"/>
		</clipPath>
		<path class="st18" d="M210.3,49.1c0,5.1-4.2,9.3-9.3,9.3s-9.3-4.2-9.3-9.3s4.2-9.3,9.3-9.3S210.3,44,210.3,49.1 M201,103.8
			c0-13.1,16.5-36.3,19.6-42.3c1.5-2.4,2.6-5.1,3.2-8c0.7-3,0.4-4.5,0.4-4.5c0-12.8-10.4-23.3-23.3-23.3"/>
	</g>
	<g>
		<defs>
			<rect id="SVGID_38_" x="44.1" y="25.8" width="311.8" height="193.5"/>
		</defs>
		<clipPath id="SVGID_39_">
			<use xlink:href="#SVGID_38_"  style="overflow:visible;"/>
		</clipPath>
		<path class="st19" d="M215.4,49.1c0,8-6.5,14.4-14.4,14.4c-8,0-14.4-6.5-14.4-14.4c0-8,6.5-14.4,14.4-14.4
			C209,34.7,215.4,41.1,215.4,49.1"/>
	</g>
	<g>
		<defs>
			<rect id="SVGID_40_" x="44.1" y="25.8" width="311.8" height="193.5"/>
		</defs>
		<clipPath id="SVGID_41_">
			<use xlink:href="#SVGID_40_"  style="overflow:visible;"/>
		</clipPath>
		<path class="st20" d="M212.8,49.1c0,6.5-5.3,11.8-11.8,11.8s-11.8-5.3-11.8-11.8s5.3-11.8,11.8-11.8
			C207.6,37.3,212.8,42.6,212.8,49.1"/>
	</g>
</g>
<path class="st21" d="M103,127.7c0,0-15.1,28.3-11.1,32.3s2,4,7,6S103,127.7,103,127.7z"/>
</svg>
