<?xml version="1.0" encoding="utf-8"?>
<!-- Generator: Adobe Illustrator 24.1.1, SVG Export Plug-In . SVG Version: 6.00 Build 0)  -->
<svg version="1.1" id="Calque_1" xmlns="http://www.w3.org/2000/svg" xmlns:xlink="http://www.w3.org/1999/xlink" x="0px" y="0px"
	 viewBox="0 0 350 350" style="enable-background:new 0 0 350 350;" xml:space="preserve">
<style type="text/css">
	.st0{fill:none;stroke:#BF3B2B;stroke-width:3;stroke-linecap:round;stroke-linejoin:round;stroke-dasharray:8.0548,8.0548;}
	.st1{fill:#F2A6A0;stroke:#BF3B2B;stroke-width:2.1703;stroke-linecap:round;stroke-linejoin:round;stroke-miterlimit:10;}
	.st2{fill:#FFFFFF;}
	.st3{fill:#E5625C;}
	.st4{fill:#F2A6A0;}
	.st5{fill:none;stroke:#BF3B2B;stroke-width:1.2202;stroke-linecap:round;stroke-linejoin:round;stroke-miterlimit:10;}
	.st6{opacity:0.53;fill:#E5E5E5;}
</style>
<g>
	<circle class="st0" cx="175" cy="168.61" r="156.39"/>
</g>
<g>
	<g>
		<g>
			<g>
				<circle class="st1" cx="120.64" cy="115.07" r="49.21"/>
				<circle class="st2" cx="116.52" cy="111.61" r="40.48"/>
			</g>
		</g>
	</g>
	<g>
		<g>
			<g>
				<path class="st3" d="M99.15,129.83h0.01c0-0.12,0.01-0.25,0.01-0.38C99.17,129.57,99.15,129.7,99.15,129.83z"/>
				<path class="st3" d="M125.01,129.83h5.51c-0.22-5.79-3.58-10.79-8.42-13.33c-1.05,0.88-2.34,1.58-3.78,2.01
					C122.31,120.71,125.01,124.95,125.01,129.83z"/>
				<path class="st3" d="M100.18,124.8c1.54-3.64,4.7-6.42,8.57-7.45c-0.42-0.26-0.81-0.54-1.17-0.85
					C104.2,118.27,101.55,121.22,100.18,124.8z"/>
				<path class="st4" d="M118.32,118.51c-1.09,0.33-2.26,0.51-3.49,0.51c-2.29,0-4.39-0.62-6.09-1.67
					c-3.87,1.03-7.02,3.82-8.57,7.45c-0.56,1.46-0.91,3.02-1.01,4.65c-0.01,0.12-0.01,0.25-0.01,0.38h25.85
					C125.01,124.95,122.31,120.71,118.32,118.51z"/>
				<path class="st4" d="M99.17,129.45c0.1-1.63,0.45-3.19,1.01-4.65C99.57,126.24,99.22,127.81,99.17,129.45z"/>
				<polygon class="st4" points="99.16,129.83 125.01,129.83 125.01,129.83 99.16,129.83 				"/>
				<path class="st3" d="M112.09,116.91c2.26,0,4.38,0.58,6.24,1.6c1.44-0.43,2.73-1.13,3.78-2.01c-2.17-1.14-4.64-1.79-7.26-1.79
					s-5.09,0.64-7.26,1.79c0.36,0.3,0.75,0.59,1.17,0.85C109.81,117.06,110.93,116.91,112.09,116.91z"/>
				<path class="st3" d="M118.32,118.51c-1.85-1.02-3.97-1.6-6.24-1.6c-1.16,0-2.28,0.15-3.34,0.44c1.7,1.05,3.81,1.67,6.09,1.67
					C116.06,119.02,117.23,118.84,118.32,118.51z"/>
			</g>
			<g>
				<circle class="st4" cx="114.84" cy="104.3" r="12.09"/>
				<circle class="st2" cx="113.82" cy="103.46" r="9.94"/>
			</g>
		</g>
		<g>
			<g>
				<g>
					<path class="st5" d="M110.16,115.06c-6.58,2-11.36,8.12-11.36,15.35l32.08,0c0-7.23-4.78-13.34-11.36-15.34"/>
				</g>
			</g>
			<path class="st5" d="M102.94,104.13c0,4.91,2.97,9.13,7.22,10.94c1.43,0.61,3.02,0.96,4.68,0.96c1.64,0,3.21-0.33,4.64-0.94
				c4.27-1.81,7.27-6.04,7.27-10.97c0-6.58-5.33-11.91-11.91-11.91S102.94,97.55,102.94,104.13z"/>
		</g>
	</g>
	<g>
		<g>
			<g>
				<circle class="st1" cx="166.23" cy="223.11" r="49.21"/>
				
					<ellipse transform="matrix(0.0709 -0.9975 0.9975 0.0709 -68.4742 365.7831)" class="st2" cx="162.11" cy="219.65" rx="40.48" ry="40.48"/>
			</g>
		</g>
	</g>
	<g>
		<g>
			<g>
				<circle class="st1" cx="243.96" cy="128.42" r="49.21"/>
				<circle class="st2" cx="239.84" cy="124.96" r="40.48"/>
			</g>
		</g>
	</g>
	<g>
		<g>
			<g>
				<path class="st3" d="M213.56,138.98L213.56,138.98c0.01-0.09,0.01-0.19,0.01-0.28C213.57,138.79,213.56,138.88,213.56,138.98z"
					/>
				<path class="st3" d="M233.13,138.98h4.17c-0.16-4.38-2.71-8.16-6.37-10.08c-0.8,0.67-1.77,1.19-2.86,1.52
					C231.09,132.08,233.13,135.29,233.13,138.98z"/>
				<path class="st3" d="M214.34,135.17c1.16-2.75,3.55-4.86,6.48-5.64c-0.32-0.2-0.61-0.41-0.88-0.64
					C217.38,130.22,215.38,132.46,214.34,135.17z"/>
				<path class="st4" d="M228.07,130.41c-0.82,0.25-1.71,0.38-2.64,0.38c-1.73,0-3.33-0.47-4.61-1.27
					c-2.93,0.78-5.32,2.89-6.48,5.64c-0.43,1.11-0.69,2.29-0.76,3.52c0,0.09-0.01,0.19-0.01,0.28h19.56
					C233.13,135.29,231.09,132.08,228.07,130.41z"/>
				<path class="st4" d="M213.58,138.7c0.07-1.23,0.34-2.42,0.76-3.52C213.88,136.26,213.62,137.44,213.58,138.7z"/>
				<polygon class="st4" points="213.57,138.98 233.13,138.98 233.13,138.98 213.57,138.98 				"/>
				<path class="st3" d="M223.35,129.2c1.71,0,3.32,0.44,4.72,1.22c1.09-0.33,2.06-0.85,2.86-1.52c-1.64-0.86-3.52-1.35-5.5-1.35
					c-1.98,0-3.85,0.49-5.5,1.35c0.27,0.23,0.57,0.45,0.88,0.64C221.63,129.31,222.48,129.2,223.35,129.2z"/>
				<path class="st3" d="M228.07,130.41c-1.4-0.77-3.01-1.22-4.72-1.22c-0.88,0-1.72,0.12-2.53,0.33c1.29,0.8,2.88,1.27,4.61,1.27
					C226.36,130.8,227.25,130.66,228.07,130.41z"/>
			</g>
			<g>
				<circle class="st4" cx="225.44" cy="119.65" r="9.14"/>
				<circle class="st2" cx="224.67" cy="119.02" r="7.52"/>
			</g>
		</g>
		<g>
			<g>
				<g>
					<path class="st5" d="M221.89,127.81c-4.98,1.51-8.6,6.14-8.6,11.62h24.28c0-5.47-3.62-10.1-8.59-11.61"/>
				</g>
			</g>
			<path class="st5" d="M216.42,119.52c5.25,8.07,7.5,11.26,5.46,8.28c1.09,0.46,2.29,0.72,3.54,0.72c1.24,0,2.43-0.25,3.51-0.71
				c3.23-1.37,5.51-4.57,5.51-8.31c0-4.98-4.04-9.01-9.01-9.01C220.45,110.5,213.71,115.35,216.42,119.52z"/>
		</g>
	</g>
	<g>
		<g>
			<g>
				<path class="st3" d="M243.93,138.98L243.93,138.98c0.01-0.09,0.01-0.19,0.01-0.28C243.95,138.79,243.94,138.88,243.93,138.98z"
					/>
				<path class="st3" d="M263.51,138.98h4.17c-0.16-4.38-2.71-8.16-6.37-10.08c-0.8,0.67-1.77,1.19-2.86,1.52
					C261.46,132.08,263.51,135.29,263.51,138.98z"/>
				<path class="st3" d="M244.72,135.17c1.16-2.75,3.55-4.86,6.48-5.64c-0.32-0.2-0.61-0.41-0.88-0.64
					C247.76,130.22,245.76,132.46,244.72,135.17z"/>
				<path class="st4" d="M258.45,130.41c-0.82,0.25-1.71,0.38-2.64,0.38c-1.73,0-3.33-0.47-4.61-1.27
					c-2.93,0.78-5.32,2.89-6.48,5.64c-0.43,1.11-0.69,2.29-0.76,3.52c0,0.09-0.01,0.19-0.01,0.28h19.56
					C263.51,135.29,261.46,132.08,258.45,130.41z"/>
				<path class="st4" d="M243.96,138.7c0.07-1.23,0.34-2.42,0.76-3.52C244.25,136.26,243.99,137.44,243.96,138.7z"/>
				<polygon class="st4" points="243.95,138.98 263.51,138.98 263.51,138.98 243.95,138.98 				"/>
				<path class="st3" d="M253.73,129.2c1.71,0,3.32,0.44,4.72,1.22c1.09-0.33,2.06-0.85,2.86-1.52c-1.64-0.86-3.52-1.35-5.5-1.35
					c-1.98,0-3.85,0.49-5.5,1.35c0.27,0.23,0.57,0.45,0.88,0.64C252.01,129.31,252.85,129.2,253.73,129.2z"/>
				<path class="st3" d="M258.45,130.41c-1.4-0.77-3.01-1.22-4.72-1.22c-0.88,0-1.72,0.12-2.53,0.33c1.29,0.8,2.88,1.27,4.61,1.27
					C256.73,130.8,257.62,130.66,258.45,130.41z"/>
			</g>
			<g>
				<circle class="st4" cx="255.81" cy="119.65" r="9.14"/>
				<circle class="st2" cx="255.04" cy="119.02" r="7.52"/>
			</g>
		</g>
		<g>
			<g>
				<g>
					<path class="st5" d="M252.27,127.81c-4.98,1.51-8.6,6.14-8.6,11.62l24.28,0c0-5.47-3.62-10.1-8.59-11.61"/>
				</g>
			</g>
			<path class="st5" d="M246.8,119.52c0,3.72,2.25,6.91,5.46,8.28c1.09,0.46,2.29,0.72,3.54,0.72c1.24,0,2.43-0.25,3.51-0.71
				c3.23-1.37,5.51-4.57,5.51-8.31c0-4.98-4.04-9.01-9.01-9.01S246.8,114.55,246.8,119.52z"/>
		</g>
	</g>
	<g>
		<g>
			<g>
				<path class="st3" d="M229.15,138.98L229.15,138.98c0.01-0.09,0.01-0.19,0.01-0.28C229.17,138.79,229.16,138.88,229.15,138.98z"
					/>
				<path class="st3" d="M248.73,138.98h4.17c-0.16-4.38-2.71-8.16-6.37-10.08c-0.8,0.67-1.77,1.19-2.86,1.52
					C246.68,132.08,248.73,135.29,248.73,138.98z"/>
				<path class="st3" d="M229.94,135.17c1.16-2.75,3.55-4.86,6.48-5.64c-0.32-0.2-0.61-0.41-0.88-0.64
					C232.98,130.22,230.98,132.46,229.94,135.17z"/>
				<path class="st4" d="M243.67,130.41c-0.82,0.25-1.71,0.38-2.64,0.38c-1.73,0-3.33-0.47-4.61-1.27
					c-2.93,0.78-5.32,2.89-6.48,5.64c-0.43,1.11-0.69,2.29-0.76,3.52c0,0.09-0.01,0.19-0.01,0.28h19.56
					C248.73,135.29,246.68,132.08,243.67,130.41z"/>
				<path class="st4" d="M229.18,138.7c0.07-1.23,0.34-2.42,0.76-3.52C229.47,136.26,229.21,137.44,229.18,138.7z"/>
				<polygon class="st4" points="229.17,138.98 248.73,138.98 248.73,138.98 229.17,138.98 				"/>
				<path class="st3" d="M238.95,129.2c1.71,0,3.32,0.44,4.72,1.22c1.09-0.33,2.06-0.85,2.86-1.52c-1.64-0.86-3.52-1.35-5.5-1.35
					c-1.98,0-3.85,0.49-5.5,1.35c0.27,0.23,0.57,0.45,0.88,0.64C237.23,129.31,238.07,129.2,238.95,129.2z"/>
				<path class="st3" d="M243.67,130.41c-1.4-0.77-3.01-1.22-4.72-1.22c-0.88,0-1.72,0.12-2.53,0.33c1.29,0.8,2.88,1.27,4.61,1.27
					C241.96,130.8,242.84,130.66,243.67,130.41z"/>
			</g>
			<g>
				
					<ellipse transform="matrix(0.1602 -0.9871 0.9871 0.1602 84.309 338.4017)" class="st4" cx="241.03" cy="119.65" rx="9.14" ry="9.14"/>
				<circle class="st2" cx="240.27" cy="119.02" r="7.52"/>
			</g>
		</g>
		<g>
			<g>
				<g>
					<path class="st5" d="M237.49,127.81c-4.98,1.51-8.6,6.14-8.6,11.62h24.28c0-5.47-3.62-10.1-8.59-11.61"/>
				</g>
			</g>
			<path class="st5" d="M232.02,119.52c0,3.72,2.25,6.91,5.46,8.28c1.09,0.46,2.29,0.72,3.54,0.72c1.24,0,2.43-0.25,3.51-0.71
				c3.23-1.37,5.5-4.57,5.5-8.3c0-4.98-4.04-9.01-9.01-9.01S232.02,114.55,232.02,119.52z"/>
		</g>
	</g>
	<g>
		<g>
			<g>
				<path class="st3" d="M142.08,235.24L142.08,235.24c0.01-0.09,0.01-0.19,0.01-0.28C142.1,235.04,142.09,235.14,142.08,235.24z"/>
				<path class="st3" d="M161.66,235.24h4.17c-0.16-4.38-2.71-8.16-6.37-10.08c-0.8,0.67-1.77,1.19-2.86,1.52
					C159.61,228.34,161.66,231.55,161.66,235.24z"/>
				<path class="st3" d="M142.86,231.43c1.16-2.75,3.55-4.86,6.48-5.64c-0.32-0.2-0.61-0.41-0.88-0.64
					C145.91,226.48,143.9,228.72,142.86,231.43z"/>
				<path class="st4" d="M156.59,226.67c-0.82,0.25-1.71,0.38-2.64,0.38c-1.73,0-3.33-0.47-4.61-1.27
					c-2.93,0.78-5.32,2.89-6.48,5.64c-0.43,1.11-0.69,2.29-0.76,3.52c0,0.09-0.01,0.19-0.01,0.28h19.56
					C161.66,231.55,159.61,228.34,156.59,226.67z"/>
				<path class="st4" d="M142.1,234.95c0.07-1.23,0.34-2.42,0.76-3.52C142.4,232.52,142.13,233.7,142.1,234.95z"/>
				<polygon class="st4" points="142.09,235.24 161.66,235.24 161.66,235.24 				"/>
				<path class="st3" d="M151.88,225.46c1.71,0,3.32,0.44,4.72,1.22c1.09-0.33,2.06-0.85,2.86-1.52c-1.64-0.86-3.52-1.35-5.5-1.35
					c-1.98,0-3.85,0.49-5.5,1.35c0.27,0.23,0.57,0.45,0.88,0.64C150.15,225.57,151,225.46,151.88,225.46z"/>
				<path class="st3" d="M156.59,226.67c-1.4-0.77-3.01-1.22-4.72-1.22c-0.88,0-1.72,0.12-2.53,0.33c1.29,0.8,2.88,1.27,4.61,1.27
					C154.88,227.06,155.77,226.92,156.59,226.67z"/>
			</g>
			<g>
				<circle class="st4" cx="153.95" cy="215.92" r="9.14"/>
				<circle class="st2" cx="153.19" cy="215.27" r="7.52"/>
			</g>
		</g>
		<g>
			<g>
				<g>
					<path class="st5" d="M150.42,224.06c-4.98,1.51-8.6,6.14-8.6,11.62l24.28,0c0-5.47-3.62-10.1-8.59-11.61"/>
				</g>
			</g>
			<path class="st5" d="M144.95,215.78c0,3.72,2.25,6.91,5.46,8.28c1.09,0.46,2.29,0.72,3.54,0.72c1.24,0,2.43-0.25,3.51-0.71
				c3.23-1.37,5.51-4.57,5.51-8.31c0-4.98-4.04-9.01-9.01-9.01S144.95,210.8,144.95,215.78z"/>
		</g>
	</g>
	<g>
		<g>
			<g>
				<path class="st3" d="M157.68,235.24L157.68,235.24c0.01-0.09,0.01-0.19,0.01-0.28C157.69,235.04,157.68,235.14,157.68,235.24z"
					/>
				<path class="st3" d="M177.25,235.24h4.17c-0.16-4.38-2.71-8.16-6.37-10.08c-0.8,0.67-1.77,1.19-2.86,1.52
					C175.21,228.34,177.25,231.55,177.25,235.24z"/>
				<path class="st3" d="M158.46,231.43c1.16-2.75,3.55-4.86,6.48-5.64c-0.32-0.2-0.61-0.41-0.88-0.64
					C161.51,226.48,159.5,228.72,158.46,231.43z"/>
				<path class="st4" d="M172.19,226.67c-0.82,0.25-1.71,0.38-2.64,0.38c-1.73,0-3.33-0.47-4.61-1.27
					c-2.93,0.78-5.32,2.89-6.48,5.64c-0.43,1.11-0.69,2.29-0.76,3.52c0,0.09-0.01,0.19-0.01,0.28h19.56
					C177.25,231.55,175.21,228.34,172.19,226.67z"/>
				<path class="st4" d="M157.69,234.95c0.07-1.23,0.34-2.42,0.76-3.52C158,232.52,157.73,233.7,157.69,234.95z"/>
				<polygon class="st4" points="157.69,235.24 177.25,235.24 177.25,235.24 				"/>
				<path class="st3" d="M167.47,225.46c1.71,0,3.32,0.44,4.72,1.22c1.09-0.33,2.06-0.85,2.86-1.52c-1.64-0.86-3.52-1.35-5.5-1.35
					c-1.98,0-3.85,0.49-5.5,1.35c0.27,0.23,0.57,0.45,0.88,0.64C165.75,225.57,166.59,225.46,167.47,225.46z"/>
				<path class="st3" d="M172.19,226.67c-1.4-0.77-3.01-1.22-4.72-1.22c-0.88,0-1.72,0.12-2.53,0.33c1.29,0.8,2.88,1.27,4.61,1.27
					C170.48,227.06,171.37,226.92,172.19,226.67z"/>
			</g>
			<g>
				<circle class="st4" cx="169.55" cy="215.92" r="9.14"/>
				<circle class="st2" cx="168.78" cy="215.27" r="7.52"/>
			</g>
		</g>
		<g>
			<g>
				<g>
					<path class="st5" d="M166.01,224.06c-4.98,1.51-8.6,6.14-8.6,11.62l24.28,0c0-5.47-3.62-10.1-8.59-11.61"/>
				</g>
			</g>
			<path class="st5" d="M160.54,215.78c0,3.72,2.25,6.91,5.46,8.28c1.09,0.46,2.29,0.72,3.54,0.72c1.24,0,2.43-0.25,3.51-0.71
				c3.23-1.37,5.51-4.57,5.51-8.31c0-4.98-4.04-9.01-9.01-9.01S160.54,210.8,160.54,215.78z"/>
		</g>
	</g>
	<ellipse class="st6" cx="164.94" cy="295" rx="49.11" ry="3.57"/>
	<ellipse class="st6" cx="90.79" cy="177.62" rx="31.31" ry="3.5"/>
	<ellipse class="st6" cx="264.82" cy="198.05" rx="31.31" ry="3.5"/>
</g>
</svg>
