<?xml version="1.0" encoding="utf-8"?>
<!-- Generator: Adobe Illustrator 24.1.1, SVG Export Plug-In . SVG Version: 6.00 Build 0)  -->
<svg version="1.1" id="Calque_1" xmlns="http://www.w3.org/2000/svg" xmlns:xlink="http://www.w3.org/1999/xlink" x="0px" y="0px"
	 viewBox="0 0 350 350" style="enable-background:new 0 0 350 350;" xml:space="preserve">
<style type="text/css">
	.st0{fill:#B3E2FF;stroke:#507C9B;stroke-width:3;stroke-linecap:round;stroke-linejoin:round;stroke-miterlimit:10;}
	.st1{fill:#FFFFFF;}
	.st2{fill:#57B2EA;}
	.st3{fill:#B3E2FF;}
	.st4{fill:none;stroke:#507C9B;stroke-width:3;stroke-linecap:round;stroke-linejoin:round;stroke-miterlimit:10;}
	.st5{opacity:0.58;fill:#E5E5E5;}
</style>
<circle class="st0" cx="179.97" cy="150.7" r="134.72"/>
<circle class="st1" cx="168.69" cy="141.24" r="110.85"/>
<path class="st2" d="M136.86,193.77h0.03c0-0.28,0.01-0.56,0.02-0.85C136.89,193.21,136.87,193.49,136.86,193.77z"/>
<path class="st3" d="M136.91,192.93c0.22-3.66,1-7.18,2.26-10.46C137.81,185.7,137.02,189.23,136.91,192.93z"/>
<path class="st3" d="M136.89,193.79h58.12v-0.01L136.89,193.79C136.89,193.78,136.89,193.78,136.89,193.79z"/>
<path class="st2" d="M208.19,158.2h0.02c0-0.19,0.01-0.37,0.01-0.56C208.22,157.83,208.2,158.01,208.19,158.2z"/>
<path class="st2" d="M246.8,158.2h8.22c-0.32-8.64-5.34-16.1-12.57-19.89c-1.57,1.32-3.49,2.35-5.64,3
	C242.76,144.59,246.79,150.93,246.8,158.2z"/>
<path class="st2" d="M209.73,150.7c2.3-5.43,7.01-9.58,12.78-11.12c-0.62-0.38-1.2-0.81-1.75-1.26
	C215.74,140.95,211.78,145.35,209.73,150.7z"/>
<path class="st3" d="M236.81,141.31c-1.62,0.49-3.38,0.75-5.2,0.75c-3.41,0-6.56-0.93-9.09-2.49c-5.78,1.54-10.49,5.7-12.78,11.12
	c-0.84,2.18-1.36,4.51-1.5,6.94c-0.01,0.19-0.01,0.37-0.01,0.56h38.58C246.79,150.93,242.76,144.59,236.81,141.31z"/>
<path class="st3" d="M208.23,157.64c0.15-2.43,0.67-4.77,1.5-6.94C208.82,152.84,208.3,155.18,208.23,157.64z"/>
<polygon class="st3" points="208.21,158.21 246.8,158.21 246.8,158.2 208.21,158.2 "/>
<path class="st2" d="M227.5,138.92c3.37,0,6.55,0.87,9.31,2.39c2.15-0.65,4.07-1.68,5.64-3c-3.24-1.7-6.93-2.66-10.84-2.66
	s-7.6,0.96-10.84,2.66c0.54,0.46,1.13,0.88,1.75,1.26C224.11,139.15,225.78,138.92,227.5,138.92z"/>
<path class="st2" d="M236.81,141.31c-2.76-1.52-5.93-2.39-9.31-2.39c-1.73,0-3.4,0.23-4.99,0.66c2.53,1.56,5.68,2.49,9.09,2.49
	C233.43,142.07,235.19,141.8,236.81,141.31z"/>
<circle class="st3" cx="231.6" cy="120.1" r="18.04"/>
<circle class="st1" cx="230.1" cy="118.84" r="14.84"/>
<g>
	<path class="st2" d="M89.24,158.2h0.02c0-0.19,0.01-0.37,0.01-0.56C89.26,157.83,89.24,158.01,89.24,158.2z"/>
	<path class="st2" d="M127.84,158.2h8.22c-0.32-8.64-5.34-16.1-12.57-19.89c-1.57,1.32-3.49,2.35-5.64,3
		C123.8,144.59,127.84,150.93,127.84,158.2z"/>
	<path class="st2" d="M90.77,150.7c2.3-5.43,7.01-9.58,12.78-11.12c-0.62-0.38-1.2-0.81-1.75-1.26
		C96.78,140.95,92.83,145.35,90.77,150.7z"/>
	<path class="st3" d="M117.85,141.31c-1.62,0.49-3.38,0.75-5.2,0.75c-3.41,0-6.56-0.93-9.09-2.49c-5.78,1.54-10.49,5.7-12.78,11.12
		c-0.84,2.18-1.36,4.51-1.5,6.94c-0.01,0.19-0.01,0.37-0.01,0.56h38.58C127.84,150.93,123.8,144.59,117.85,141.31z"/>
	<path class="st3" d="M89.27,157.64c0.15-2.43,0.67-4.77,1.5-6.94C89.87,152.84,89.34,155.18,89.27,157.64z"/>
	<polygon class="st3" points="89.26,158.21 127.84,158.21 127.84,158.2 89.26,158.2 	"/>
	<path class="st2" d="M108.55,138.92c3.37,0,6.55,0.87,9.31,2.39c2.15-0.65,4.07-1.68,5.64-3c-3.24-1.7-6.93-2.66-10.84-2.66
		c-3.91,0-7.6,0.96-10.84,2.66c0.54,0.46,1.13,0.88,1.75,1.26C105.15,139.15,106.82,138.92,108.55,138.92z"/>
	<path class="st2" d="M117.85,141.31c-2.76-1.52-5.93-2.39-9.31-2.39c-1.73,0-3.4,0.23-4.99,0.66c2.53,1.56,5.68,2.49,9.09,2.49
		C114.48,142.07,116.23,141.8,117.85,141.31z"/>
	<circle class="st3" cx="112.65" cy="120.1" r="18.04"/>
	<circle class="st1" cx="111.14" cy="118.84" r="14.84"/>
	<path class="st4" d="M105.67,136.17c-9.82,2.99-16.96,12.11-16.96,22.91h47.88c0-10.79-7.14-19.91-16.95-22.9"/>
	<path class="st4" d="M94.88,119.84c0,7.33,4.44,13.62,10.78,16.34c2.15,0.92,4.51,1.43,6.99,1.43c2.45,0,4.79-0.5,6.92-1.4
		c6.38-2.7,10.85-9.01,10.85-16.37c0-9.81-7.96-17.77-17.77-17.77S94.88,110.02,94.88,119.84z"/>
</g>
<path class="st4" d="M224.63,136.17c-9.82,2.99-16.96,12.11-16.96,22.91h47.88c0-10.79-7.14-19.91-16.95-22.9"/>
<path class="st4" d="M213.84,119.84c0,7.33,4.44,13.62,10.78,16.34c2.15,0.92,4.51,1.43,6.99,1.43c2.45,0,4.79-0.5,6.92-1.4
	c6.38-2.7,10.85-9.01,10.85-16.37c0-9.81-7.96-17.77-17.77-17.77C221.79,102.07,213.84,110.02,213.84,119.84z"/>
<ellipse class="st5" cx="169.2" cy="324.2" rx="134.72" ry="10.67"/>
<path class="st2" d="M136.31,193.68h0.03c0-0.29,0.02-0.57,0.02-0.86C136.34,193.11,136.31,193.39,136.31,193.68z"/>
<path class="st2" d="M195.39,193.68h12.58c-0.49-13.23-8.17-24.65-19.24-30.45c-2.4,2.02-5.34,3.6-8.63,4.59
	C189.21,172.84,195.39,182.55,195.39,193.68z"/>
<path class="st2" d="M138.65,182.2c3.52-8.31,10.73-14.66,19.56-17.02c-0.95-0.58-1.84-1.24-2.68-1.93
	C147.85,167.27,141.8,174.01,138.65,182.2z"/>
<path class="st3" d="M180.1,167.82c-2.48,0.75-5.17,1.15-7.96,1.15c-5.22,0-10.04-1.42-13.91-3.81
	c-8.85,2.36-16.06,8.73-19.56,17.02c-1.29,3.34-2.08,6.9-2.3,10.62c-0.02,0.29-0.02,0.57-0.02,0.86h59.06
	C195.39,182.55,189.21,172.84,180.1,167.82z"/>
<path class="st3" d="M136.35,192.82c0.23-3.72,1.03-7.3,2.3-10.62C137.27,185.47,136.46,189.05,136.35,192.82z"/>
<polygon class="st3" points="136.34,193.69 195.39,193.69 195.39,193.68 136.34,193.68 "/>
<path class="st2" d="M165.86,164.16c5.16,0,10.03,1.33,14.25,3.66c3.29-0.99,6.23-2.57,8.63-4.59c-4.96-2.6-10.61-4.07-16.59-4.07
	c-5.99,0-11.63,1.47-16.59,4.07c0.83,0.7,1.73,1.35,2.68,1.93C160.66,164.52,163.22,164.16,165.86,164.16z"/>
<path class="st2" d="M180.1,167.82c-4.22-2.33-9.08-3.66-14.25-3.66c-2.65,0-5.2,0.35-7.64,1.01c3.87,2.39,8.69,3.81,13.91,3.81
	C174.94,168.99,177.62,168.57,180.1,167.82z"/>
<circle class="st3" cx="172.14" cy="135.36" r="27.61"/>
<circle class="st1" cx="169.83" cy="133.43" r="22.72"/>
<path class="st4" d="M161.46,159.96c-15.03,4.58-25.96,18.54-25.96,35.07h73.29c0-16.52-10.93-30.48-25.95-35.05"/>
<path class="st4" d="M144.94,134.96c0,11.22,6.8,20.85,16.5,25.01c3.29,1.41,6.9,2.19,10.7,2.19c3.75,0,7.33-0.77,10.59-2.14
	c9.77-4.13,16.61-13.79,16.61-25.06c0-15.02-12.18-27.2-27.2-27.2C157.12,107.76,144.94,119.93,144.94,134.96z"/>
<polygon class="st0" points="205.05,113.76 172.14,133.43 139.23,113.76 172.14,97.09 "/>
<polygon class="st4" points="205.05,113.76 172.14,133.43 139.23,113.76 172.14,97.09 "/>
<line class="st4" x1="139.23" y1="113.76" x2="139.23" y2="122.97"/>
</svg>
