<?xml version="1.0" encoding="utf-8"?>
<!-- Generator: Adobe Illustrator 24.1.1, SVG Export Plug-In . SVG Version: 6.00 Build 0)  -->
<svg version="1.1" id="Calque_1" xmlns="http://www.w3.org/2000/svg" xmlns:xlink="http://www.w3.org/1999/xlink" x="0px" y="0px"
	 viewBox="0 0 350 350" style="enable-background:new 0 0 350 350;" xml:space="preserve">
<style type="text/css">
	.st0{opacity:0.42;fill:#E5E5E5;enable-background:new    ;}
	.st1{fill:#FFBEB3;stroke:#E66343;stroke-width:4.2232;stroke-miterlimit:10;}
	.st2{fill:#FFFFFF;stroke:#E66343;stroke-width:2.8645;stroke-miterlimit:10;}
	.st3{fill:#E66343;stroke:#FFFFFF;stroke-width:1.5718;stroke-miterlimit:10;}
	.st4{fill:#FFBEB3;}
	.st5{fill:#FFFFFF;stroke:#E66343;stroke-width:2.9836;stroke-miterlimit:10;}
	.st6{fill:#E66343;stroke:#FFFFFF;stroke-width:2.9836;stroke-miterlimit:10;}
</style>
<ellipse class="st0" cx="184.47" cy="317.79" rx="95.01" ry="27.87"/>
<g>
	
		<ellipse transform="matrix(0.3698 -0.9291 0.9291 0.3698 -21.2773 264.6659)" class="st1" cx="184.47" cy="148.02" rx="139.91" ry="49.43"/>
	
		<ellipse transform="matrix(0.3698 -0.9291 0.9291 0.3698 -21.2773 264.6659)" class="st2" cx="184.47" cy="148.02" rx="94.9" ry="33.53"/>
	
		<ellipse transform="matrix(0.3698 -0.9291 0.9291 0.3698 -21.2773 264.6659)" class="st3" cx="184.47" cy="148.02" rx="52.07" ry="18.4"/>
	
		<ellipse transform="matrix(0.3698 -0.9291 0.9291 0.3698 -21.2773 264.6659)" class="st4" cx="184.47" cy="148.02" rx="39.02" ry="13.78"/>
</g>
<g>
	
		<ellipse transform="matrix(0.9291 -0.3698 0.3698 0.9291 -41.6636 78.7212)" class="st1" cx="184.47" cy="148.02" rx="49.43" ry="139.91"/>
	
		<ellipse transform="matrix(0.9291 -0.3698 0.3698 0.9291 -41.6636 78.7212)" class="st2" cx="184.47" cy="148.02" rx="33.53" ry="94.9"/>
	
		<ellipse transform="matrix(0.9291 -0.3698 0.3698 0.9291 -41.6636 78.7212)" class="st3" cx="184.47" cy="148.02" rx="18.4" ry="52.07"/>
	
		<ellipse transform="matrix(0.9291 -0.3698 0.3698 0.9291 -41.6636 78.7212)" class="st4" cx="184.47" cy="148.02" rx="13.78" ry="39.02"/>
</g>
<g>
	
		<ellipse transform="matrix(0.9957 -0.0924 0.0924 0.9957 -12.8839 17.6727)" class="st1" cx="184.47" cy="148.02" rx="139.91" ry="49.43"/>
	
		<ellipse transform="matrix(0.9957 -0.0924 0.0924 0.9957 -12.8839 17.6727)" class="st2" cx="184.47" cy="148.02" rx="94.9" ry="33.53"/>
	
		<ellipse transform="matrix(0.9957 -0.0924 0.0924 0.9957 -12.8839 17.6727)" class="st3" cx="184.47" cy="148.02" rx="52.07" ry="18.4"/>
	
		<ellipse transform="matrix(0.9957 -0.0924 0.0924 0.9957 -12.8839 17.6727)" class="st4" cx="184.47" cy="148.02" rx="39.02" ry="13.78"/>
</g>
<circle class="st5" cx="184.47" cy="148.02" r="27.87"/>
<circle class="st6" cx="173.08" cy="139.72" r="6.71"/>
</svg>
