<?xml version="1.0" encoding="utf-8"?>
<!-- Generator: Adobe Illustrator 23.0.1, SVG Export Plug-In . SVG Version: 6.00 Build 0)  -->
<svg version="1.1" id="Youtube" xmlns="http://www.w3.org/2000/svg" xmlns:xlink="http://www.w3.org/1999/xlink" x="0px" y="0px"
	 viewBox="0 0 120 120" style="enable-background:new 0 0 120 120;" xml:space="preserve">
<style type="text/css">
	.st0{opacity:0.42;fill:#FFFFFF;}
	.st1{fill:#ED2024;}
	.st2{fill:#FFFFFF;}
</style>
<path class="st0" d="M60,0C26.9,0,0,26.9,0,60c0,33.1,26.9,60,60,60s60-26.9,60-60C120,26.9,93.1,0,60,0z M40.5,85.7V34.3L90.5,60
	L40.5,85.7z"/>
<path class="st1" d="M60,8C31.3,8,8,31.3,8,60c0,28.7,23.3,52,52,52s52-23.3,52-52C112,31.3,88.7,8,60,8z M43.1,82.3V37.7L86.5,60
	L43.1,82.3z"/>
<polyline class="st2" points="43.1,37.7 43.1,82.3 86.5,60 43.8,37.7 "/>
</svg>
