<?xml version="1.0" encoding="utf-8"?>
<!-- Generator: Adobe Illustrator 23.0.1, SVG Export Plug-In . SVG Version: 6.00 Build 0)  -->
<svg version="1.1" id="Calque_1" xmlns="http://www.w3.org/2000/svg" xmlns:xlink="http://www.w3.org/1999/xlink" x="0px" y="0px"
	 viewBox="0 0 327.1 106.7" style="enable-background:new 0 0 327.1 106.7;" xml:space="preserve">
<style type="text/css">
	.st0{fill:#E0011B;}
	.st1{fill:#014492;}
	.st2{fill:#014493;}
	.st3{fill:#024593;}
	.st4{fill:#014593;}
	.st5{fill:#004493;}
	.st6{fill:#064895;}
	.st7{fill:#084996;}
	.st8{fill:#034694;}
	.st9{fill:#094A96;}
</style>
<g>
	<path class="st0" d="M278.5,52.9c-12.6,12.8-25.1,25.6-37.7,38.4c-0.3-0.1-0.2-0.4-0.2-0.5c0-12.4,0-24.9,0-37.3c0-0.2,0-0.5,0-0.7
		c11.9,0,23.8,0,35.6,0c0.7,0,1.4,0,2.2,0C278.5,52.8,278.5,52.9,278.5,52.9z"/>
	<path class="st1" d="M278.5,52.9c0-0.1,0-0.1,0-0.2l0,0c0.4,0,0.9,0,1.3,0c12.2,0,24.4,0,36.6,0c-1.2,1.6-2.6,2.9-4,4.2
		c-6.3,6.4-12.6,12.8-18.8,19.2c-4.7,4.8-9.4,9.6-14.1,14.4c-0.2,0.2-0.4,0.6-0.5,0.9c-0.1-0.1-0.2-0.2-0.3-0.2c0-0.4,0-0.7,0-1.1
		c0-12.1,0-24.1,0-36.2C278.7,53.6,278.8,53.2,278.5,52.9z"/>
	<path class="st2" d="M278.5,52.7c-0.7,0-1.4,0-2.2,0c-11.9,0-23.8,0-35.6,0c0-0.3,0-0.5,0-0.8c0-12.3,0-24.7,0-37
		c0-0.2,0-0.3,0-0.5c0.1-0.1,0.1-0.1,0.2-0.2c1,1,2,2.1,3,3.1c4.9,5,9.8,10,14.7,15c6.4,6.5,12.7,12.9,19.1,19.4
		c0.3,0.3,0.6,0.6,0.9,0.8C278.5,52.7,278.5,52.7,278.5,52.7C278.5,52.7,278.5,52.7,278.5,52.7z"/>
	<path class="st0" d="M278.5,52.7c0,0,0.1-0.1,0.1-0.1c0.3-0.4,0.1-0.8,0.1-1.2c0-11.9,0-23.9,0-35.8c0-0.4,0-0.7,0-1.4
		c0.8,0.8,1.3,1.4,1.9,2c7,7.1,14,14.3,21,21.4c4.8,4.9,9.6,9.8,14.4,14.6c0.2,0.2,0.4,0.2,0.4,0.6c-12.2,0-24.4,0-36.6,0
		C279.4,52.8,278.9,52.8,278.5,52.7z"/>
	<path class="st3" d="M47.3,53.2c-0.4,0-0.9,0-1.3,0c-1.3,0.2-2.4,0.1-2.8-1.5c-0.1-0.3-0.5-0.6-0.7-0.9c-0.5-0.6-1-0.6-1.8-0.2
		c-7.9,3.9-16.6,2.5-22.5-3.9c-9.6-10.6-4.7-27.3,9-30.9c10.8-2.8,21.4,4,23.3,15c0.9,5-0.2,9.7-3.2,13.9c-0.5,0.6-0.3,0.9,0.2,1.4
		c1.8,1.8,2.8,4,3.2,6.5c0.1,0.6-0.1,0.6-0.6,0.6C49.2,53.2,48.2,53.2,47.3,53.2z M20.2,33.8c-0.3,5.7,4.5,11.8,11.8,11.9
		c6.5,0,11.9-5.3,11.9-11.7c0-6.6-5.2-11.9-11.8-11.9C25.4,22.1,20.2,27.2,20.2,33.8z"/>
	<path class="st4" d="M189,43.7c0-5.8,0-11.6,0-17.4c0-0.8,0.2-1,1-1c1.5,0.1,3.1,0,4.6,0c0.6,0,1,0,0.9,0.8c-0.1,0.9,0.1,1,1,0.6
		c8.2-4.4,17.8-0.3,20.4,8.6c2.4,8.2-3.3,16.7-11.8,17.8c-3.1,0.4-5.9-0.2-8.6-1.6c-0.9-0.5-1-0.2-1,0.6c0,2.9,0,5.9,0,8.8
		c0,0.7-0.1,1-0.9,0.9c-1.6-0.1-3.2-0.1-4.7,0c-0.8,0-0.9-0.2-0.9-0.9C189,55.3,189,49.5,189,43.7z M195.5,39.2
		c0,4.2,3.5,7.8,7.7,7.8c4.2,0,7.8-3.5,7.8-7.8c0-4.2-3.5-7.7-7.8-7.8C199,31.4,195.5,34.9,195.5,39.2z"/>
	<path class="st4" d="M119.2,39.2c0,4.3,0,8.6,0,12.8c0,0.8-0.2,1-1,1c-1.5-0.1-3.1-0.1-4.6,0c-0.6,0-0.9-0.2-0.8-0.8
		c0.1-1-0.3-0.9-1-0.5c-6.7,3.6-14.7,1.5-18.7-4.8c-5.7-8.8,0-20.6,10.4-21.7c3-0.3,5.8,0.3,8.4,1.6c0.8,0.4,1,0.3,0.9-0.6
		c-0.1-0.6,0.1-0.8,0.8-0.8c1.6,0.1,3.2,0.1,4.8,0c0.7,0,0.8,0.3,0.8,0.8C119.2,30.5,119.2,34.8,119.2,39.2z M97.3,39.1
		c0,4.2,3.5,7.8,7.7,7.8c4.2,0,7.8-3.5,7.8-7.7c0-4.2-3.5-7.8-7.7-7.8C100.8,31.4,97.3,34.9,97.3,39.1z"/>
	<path class="st3" d="M167.6,24.3c8,0,14.5,6.5,14.5,14.6c0,8.2-6.5,14.6-14.7,14.5c-7.9,0-14.4-6.6-14.4-14.6
		C153,30.7,159.5,24.3,167.6,24.3z M175.7,38.8c0-4.5-3.6-8.1-8.1-8.2c-4.4,0-8.2,3.7-8.2,8.1c0,4.6,3.6,8.2,8.2,8.2
		C172.6,47,175.9,42.6,175.7,38.8z"/>
	<path class="st2" d="M79.6,51.1c-1.9,1-3.6,1.8-5.5,2c-6.8,1-12.6-2.6-14.6-9.2c-0.4-1.3-0.7-2.7-0.7-4.1c0-4.7,0-9.4,0-14.1
		c0-0.7,0.2-0.9,0.9-0.9c1.5,0.1,3.1,0.1,4.6,0c0.7,0,0.9,0.2,0.9,0.9c0,4.5,0,8.9,0,13.4c0,2.2,0.6,4.2,2.1,5.8
		c2.4,2.6,6.7,2.6,9.6,0.1c1.8-1.6,2.7-3.5,2.7-5.9c0-4.5,0-8.9,0-13.4c0-0.7,0.2-0.9,0.9-0.9c1.6,0.1,3.2,0,4.7,0
		c0.6,0,0.8,0.1,0.8,0.8c0,9,0,18,0,26.9c0,0.6-0.2,0.8-0.7,0.8c-1.6,0-3.2-0.1-4.7,0c-0.8,0-1.1-0.2-1-1
		C79.7,52,79.6,51.7,79.6,51.1z"/>
	<path class="st5" d="M131.5,34.5c0,5.8,0,11.5,0,17.3c0,0.8-0.2,1.1-1,1c-1.6-0.1-3.2,0-4.8,0c-0.6,0-0.7-0.2-0.7-0.7
		c0-11.7,0-23.4,0-35.1c0-0.6,0.1-0.8,0.8-0.8c1.6,0,3.2,0.1,4.8,0c0.8,0,1,0.2,1,1C131.5,22.9,131.5,28.7,131.5,34.5z"/>
	<path class="st5" d="M140.5,39.1c0-4.1,0-8.2,0-12.3c0-1,0.3-1.2,1.2-1.1c1.6,0.1,3.2,0,4.7,0c0.5,0,0.7,0.1,0.7,0.7
		c0,8.6,0,17.2,0,25.8c0,0.6-0.2,0.7-0.7,0.7c-1.7,0-3.4-0.1-5,0c-0.8,0-0.9-0.3-0.9-1C140.5,47.6,140.5,43.3,140.5,39.1z"/>
	<path class="st4" d="M225,39.1c0-4.1,0-8.3,0-12.4c0-0.8,0.1-1.1,1-1c1.6,0.1,3.3,0,4.9,0c0.5,0,0.7,0.1,0.7,0.7
		c0,8.6,0,17.2,0,25.8c0,0.4-0.1,0.7-0.6,0.7c-1.8,0-3.6,0-5.3,0c-0.7,0-0.7-0.4-0.7-0.8C225,47.6,225,43.4,225,39.1z"/>
	<path class="st6" d="M18.8,75.5c1.2-1.2,2.4-2.2,4-2.4c3.4-0.5,6.1,1.5,6.9,5c0.8,3.5-1.2,7.1-4.5,8c-2.5,0.6-4.6-0.2-6.2-2.2
		c-0.4,0.2-0.2,0.5-0.2,0.7c0,1.6,0,3.2,0,4.7c0,0.8-0.5,0.7-0.9,0.7c-0.4,0-1,0.2-0.9-0.6c0-5.1,0-10.3,0-15.4c0-0.8,0.5-0.6,1-0.6
		c0.5,0,1-0.1,0.9,0.7C18.8,74.5,18.8,75,18.8,75.5z M23.5,84.6c2.6,0,4.5-2.1,4.5-4.9c0-2.9-1.9-5-4.6-5c-2.6,0-4.7,2.2-4.6,5
		C18.8,82.5,20.9,84.6,23.5,84.6z"/>
	<path class="st6" d="M78.9,80.3c-1.4,0-2.9,0-4.3,0c-0.7,0-0.8,0.3-0.6,0.9c0.8,3.5,5,4.7,7.8,2.3c0.3-0.2,0.4-0.7,1-0.3
		c0.7,0.5,0.8,0.9,0.1,1.5c-2.1,1.7-5.1,2.2-7.5,0.9c-2.3-1.2-3.6-3.8-3.4-6.5c0.4-3.6,2.5-5.8,5.8-6.1c3.6-0.3,6.9,3.4,6.2,6.9
		c-0.1,0.5-0.5,0.4-0.8,0.4C81.7,80.3,80.3,80.3,78.9,80.3z M77.9,79c1.2,0,2.4,0,3.6,0c0.5,0,0.7-0.1,0.6-0.7c-0.4-2.2-2-3.7-4-3.8
		c-2,0-3.8,1.6-4.2,3.7c-0.1,0.5,0,0.8,0.6,0.8C75.6,79,76.7,79,77.9,79z"/>
	<path class="st7" d="M48.7,86.3c-3.8,0-6.6-2.8-6.6-6.6c0-3.7,2.8-6.6,6.6-6.7c3.7-0.1,6.7,2.9,6.7,6.7
		C55.4,84,51.8,86.5,48.7,86.3z M53.5,79.7c0-2.8-2.1-5-4.7-5c-2.7,0-4.8,2.2-4.7,5.1c0,2.8,2.1,4.9,4.8,4.9
		C51.5,84.6,53.5,82.5,53.5,79.7z"/>
	<path class="st6" d="M223.6,80.3c-1.4,0-2.8,0.1-4.2,0c-0.9,0-0.9,0.3-0.7,1c0.8,3.4,4.9,4.6,7.8,2.2c0.3-0.3,0.5-0.7,1.1-0.2
		c0.6,0.5,0.6,0.9,0,1.4c-2,1.8-5.3,2.2-7.7,0.9c-2.3-1.3-3.7-4.2-3.2-6.9c0.4-2.4,1.6-4.4,4-5.3c3.5-1.4,7.3,0.9,7.9,4.7
		c0.3,2.3,0.3,2.3-2,2.3C225.5,80.3,224.6,80.3,223.6,80.3z M222.6,79c1.1,0,2.2-0.1,3.3,0c0.9,0.1,1-0.3,0.8-1
		c-0.5-2.1-2.1-3.5-4.1-3.4c-1.9,0.1-3.6,1.8-3.9,3.8c-0.1,0.7,0.2,0.6,0.6,0.6C220.3,79,221.4,79,222.6,79z"/>
	<path class="st6" d="M166.7,80.3c-1.4,0-2.8,0-4.2,0c-0.8,0-0.9,0.2-0.7,0.9c0.9,3.4,4.9,4.6,7.8,2.2c0.7-0.6,1-0.3,1.5,0.1
		c0.3,0.3,0.3,0.4,0,0.7c-1.5,1.7-4.7,2.5-7,1.6c-2.5-0.9-3.9-2.8-4.2-5.4c-0.4-3.4,1.3-6.2,4-7.2c3.6-1.3,7.4,1,7.9,5
		c0.3,2,0.3,2-1.7,2C168.9,80.3,167.8,80.3,166.7,80.3z M165.8,79c1.2,0,2.3,0,3.5,0c0.5,0,0.7-0.2,0.6-0.7
		c-0.2-1.1-0.6-2.1-1.5-2.8c-2.4-2-5.7-0.7-6.6,2.7c-0.2,0.7-0.1,0.9,0.6,0.8C163.5,79,164.7,79,165.8,79z"/>
	<path class="st8" d="M120.8,84.3c-1.3,1.2-2.5,2-4.2,2c-3,0-4.9-1.7-5-4.7c-0.1-2.5,0-5.1,0-7.6c0-0.9,0.6-0.6,1-0.7
		c0.6-0.1,0.9,0,0.9,0.7c0,2.2,0,4.5,0,6.7c0,3,2.2,4.6,4.9,3.7c1.5-0.5,2.5-1.9,2.5-3.7c0-2.2,0-4.3,0-6.5c0-0.7,0.2-0.9,0.9-0.9
		c0.6,0,1,0,1,0.9c0,3.7,0,7.4,0,11.1c0,0.8-0.3,0.8-1,0.9c-0.7,0-1-0.2-0.9-0.9C120.9,84.9,120.8,84.6,120.8,84.3z"/>
	<path class="st7" d="M91.5,86.3c-1.6,0-3.1-0.5-4.5-1.4c-0.4-0.2-0.8-0.4-0.3-0.9c0.3-0.3,0.4-1.1,1.2-0.5c1.4,0.9,2.9,1.4,4.5,1.2
		c1.1-0.2,1.9-0.8,2-1.8c0.1-1-0.6-1.5-1.4-1.9c-1.3-0.6-2.8-0.8-4.1-1.4c-1.1-0.6-1.8-1.3-1.9-2.6c-0.1-1.3,0.5-2.4,1.6-3.1
		c1.2-0.8,2.6-0.8,4-0.6c1,0.1,1.9,0.5,2.8,1c0.3,0.2,0.7,0.4,0.3,0.8c-0.3,0.3-0.2,1.2-1.1,0.7c-0.8-0.5-1.7-0.8-2.6-0.9
		c-0.4,0-0.8,0-1.1,0c-1.1,0.1-1.9,0.7-2,1.6c-0.1,1.1,0.6,1.5,1.4,1.9c1,0.4,2,0.7,3,1c2.3,0.8,3.2,2.1,2.9,4.1
		c-0.3,1.8-2,3-4.2,3.1C91.7,86.3,91.6,86.3,91.5,86.3z"/>
	<path class="st9" d="M103.4,73.1c1.4,0,2.7,0.4,3.9,1c0.5,0.3,0.5,0.6,0.2,0.9c-0.3,0.3-0.3,0.9-1,0.5c-1.2-0.7-2.5-1.1-3.9-0.9
		c-0.9,0.1-1.6,0.6-1.8,1.6c-0.2,1,0.5,1.5,1.3,1.8c1.1,0.4,2.3,0.8,3.4,1.2c2.1,0.8,2.9,2,2.7,3.7c-0.2,1.7-1.7,3.1-3.7,3.3
		c-2,0.2-3.8-0.3-5.5-1.3c-0.4-0.3-0.7-0.5-0.3-1c0.3-0.4,0.4-0.9,1.1-0.4c1.4,0.9,2.9,1.5,4.5,1.2c1-0.2,1.7-0.6,1.9-1.7
		c0.1-0.9-0.3-1.6-1.5-2c-1.3-0.6-2.8-0.8-4.1-1.4c-2.3-1.2-2.4-4.1-0.3-5.6C101.2,73.3,102.2,73.1,103.4,73.1z"/>
	<path class="st7" d="M131.6,86.3c-2,0-3.5-0.5-4.9-1.4c-0.4-0.3-0.8-0.5-0.3-1c0.3-0.4,0.5-1,1.2-0.4c1.3,0.9,2.9,1.4,4.5,1.1
		c1.1-0.2,1.8-0.8,1.9-1.7c0.1-1-0.5-1.6-1.3-1.9c-1.2-0.5-2.5-0.8-3.7-1.3c-2-0.8-2.8-2.1-2.2-4c0.4-1.6,1.6-2.3,3.1-2.6
		c1.8-0.3,3.6,0.1,5.2,1c0.4,0.2,0.4,0.5,0.1,0.8c-0.3,0.3-0.2,1.1-1,0.7c-0.9-0.5-1.8-0.9-2.8-0.9c-0.4,0-0.8,0-1.2,0
		c-1,0.1-1.7,0.6-1.8,1.6c-0.1,1,0.6,1.4,1.3,1.7c0.9,0.4,1.9,0.7,2.8,1c0.5,0.2,1,0.3,1.4,0.6c1.2,0.6,1.9,1.5,1.9,2.9
		c-0.1,1.4-0.6,2.5-1.9,3.1C133,86.1,132.1,86.3,131.6,86.3z"/>
	<path class="st9" d="M64.7,86.3c-3.1,0.2-6.7-2.3-6.6-6.7c0.1-4,3.2-6.8,7.2-6.5c1.6,0.1,2.9,0.8,4,1.8c0.6,0.5,0.1,0.7-0.2,1
		c-0.3,0.3-0.5,0.9-1.1,0.3c-0.7-0.7-1.5-1.3-2.6-1.4c-2.3-0.4-4.2,0.7-5.1,2.8c-0.9,2.3-0.2,4.9,1.6,6.3c1.8,1.3,4.1,1.1,5.9-0.4
		c0.3-0.3,0.5-0.8,1.2-0.3c0.7,0.6,0.7,1,0,1.5C67.8,85.7,66.4,86.4,64.7,86.3z"/>
	<path class="st8" d="M204.3,80.6c0,1.6-0.1,3.2,0,4.7c0,0.9-0.5,0.8-1,0.8c-0.7,0-0.9-0.1-0.9-0.8c0-3.1,0-6.2,0-9.3
		c0-0.7-0.1-1.1-0.9-1c-0.7,0.1-0.9-0.2-0.9-0.8c0-0.6,0.2-0.9,0.8-0.8c0.9,0.2,1-0.3,1-1c0-0.5,0-1.1,0.1-1.6
		c0.5-2.2,3.2-3.5,5.3-2.6c0.8,0.3,0.4,0.9,0.4,1.4c0,0.6-0.5,0.1-0.7,0.1c-2.4-0.3-3.4,0.6-3.3,3.1c0,0.5,0.1,0.7,0.6,0.6
		c0.8,0,1.6,0,2.4,0c0.6,0,1.1-0.1,1.1,0.8c0,0.9-0.5,0.8-1,0.8c-0.8,0-1.6,0-2.4,0c-0.5,0-0.8,0.2-0.7,0.7c0,0,0,0.1,0,0.1
		C204.3,77.3,204.3,78.9,204.3,80.6z"/>
	<path class="st7" d="M156.5,76.7c-1.4-1.4-2.8-2.2-4.7-1.9c-2.4,0.4-4.1,2.7-3.9,5.3c0.2,2.5,2.2,4.5,4.5,4.6
		c1.5,0,2.7-0.5,3.7-1.5c0.7-0.7,0.9,0.2,1.2,0.4c0.6,0.3,0.1,0.6-0.1,0.8c-2,2-5,2.5-7.6,1.3c-2.5-1.2-4-4-3.7-7
		c0.3-2.6,2.5-5.1,5-5.6c2.1-0.4,4.1,0,5.8,1.4c0.7,0.5,0.8,0.9,0.1,1.5C156.8,76.2,156.7,76.4,156.5,76.7z"/>
	<path class="st8" d="M191.7,84.3c0.1,1.6,0.1,1.7-1.3,2c-2.6,0.5-4.5-0.9-4.5-3.6c0-2.3,0-4.5,0-6.8c0-0.7-0.1-1-0.9-0.9
		c-0.9,0.1-1.2-0.3-1-1.3c0.1-0.5,0.5-0.4,0.7-0.3c1,0.2,1.2-0.3,1.1-1.2c-0.1-0.7,0-1.4,0-2.2c0-0.9,0.6-0.5,1-0.6
		c0.4,0,0.9-0.2,0.9,0.6c0,0.9,0,1.8,0,2.7c0,0.5,0.2,0.7,0.6,0.6c1,0,1.9,0,2.9,0c0.8,0,0.6,0.5,0.6,0.9c0,0.4,0.1,0.8-0.6,0.8
		c-1-0.1-1.9,0-2.9,0c-0.5,0-0.6,0.1-0.6,0.6c0,2.3,0,4.7,0,7c0,1.3,0.7,2,2.1,2.1C190.5,84.6,191.1,84.4,191.7,84.3z"/>
	<path class="st8" d="M143.9,23.2c-2.1,0-3.8-1.6-3.8-3.7c0-2,1.7-3.8,3.8-3.8c2,0,3.7,1.7,3.7,3.7
		C147.6,21.5,145.9,23.2,143.9,23.2z"/>
	<path class="st8" d="M232,19.5c0,2.1-1.7,3.7-3.8,3.6c-2.1,0-3.7-1.7-3.7-3.7c0-2.1,1.7-3.7,3.8-3.7C230.4,15.7,232,17.4,232,19.5z
		"/>
	<path class="st8" d="M177.1,76.3c0.8-0.8,1.1-1.6,1.9-2.1c0.6-0.4,1.2-0.8,1.9-1c1.4-0.4,1.5-0.2,1.5,1.2c0,0.5-0.2,0.7-0.6,0.7
		c-2.7,0-4.6,2.7-4.6,5.6c0,1.5,0,2.9,0,4.4c0,0.7-0.2,0.9-0.9,0.9c-0.6,0-1,0-1-0.8c0-3.7,0-7.4,0-11.1c0-0.8,0.4-0.8,1-0.8
		c0.7,0,1,0.2,0.9,0.9C177,74.8,177.1,75.4,177.1,76.3z"/>
	<path class="st8" d="M35.3,76.1c1.1-1.4,2.2-2.5,3.8-2.9c0.4-0.1,1.1-0.4,1.3,0.1c0.2,0.4,0.1,1,0.1,1.5c0,0.3-0.3,0.3-0.5,0.4
		c-3.3,0.7-4.6,2.4-4.7,5.9c0,1.5,0,2.9,0,4.4c0,0.8-0.5,0.7-0.9,0.7c-0.5,0-0.9,0.2-0.9-0.7c0-3.8,0-7.7,0-11.5
		c0-0.7,0.4-0.6,0.9-0.6c0.4,0,1-0.3,1,0.6C35.2,74.6,35.3,75.4,35.3,76.1z"/>
	<path class="st8" d="M197.3,79.7c0,1.8,0,3.7,0,5.5c0,0.9-0.4,0.8-1,0.8c-0.6,0-0.9-0.1-0.9-0.8c0-3.7,0-7.4,0-11.2
		c0-0.7,0.3-0.8,0.9-0.8c0.6,0,1-0.1,1,0.8C197.2,76,197.3,77.9,197.3,79.7z"/>
	<path class="st8" d="M212.9,79.7c0,1.9,0,3.8,0,5.6c0,0.9-0.5,0.7-1,0.7c-0.5,0-0.9,0.1-0.9-0.7c0-3.8,0-7.6,0-11.4
		c0-0.8,0.4-0.7,0.9-0.7c0.5,0,1-0.2,1,0.7C212.9,75.9,212.9,77.8,212.9,79.7z"/>
	<path class="st9" d="M221.7,71.1c0.7-1,1.3-2,1.9-3c0.2-0.4,0.4-0.3,0.7-0.2c0.4,0.2,0.9,0.4,1.4,0.7
		C223.8,71,223.2,71.4,221.7,71.1z"/>
	<path class="st2" d="M212,70.4c-0.9,0.2-1-0.2-1.1-1c-0.1-1,0.4-1,1.2-1.1c0.9,0,1,0.3,1,1.1C213.1,70.4,212.8,70.6,212,70.4z"/>
	<path class="st4" d="M196.3,70.4c-1,0.3-1-0.3-1-1.1c-0.1-1,0.4-1,1.1-1c0.9-0.1,1,0.4,1,1.1C197.5,70.4,197.2,70.6,196.3,70.4z"/>
</g>
</svg>
