<?xml version="1.0" encoding="utf-8"?>
<!-- Generator: Adobe Illustrator 23.0.1, SVG Export Plug-In . SVG Version: 6.00 Build 0)  -->
<svg version="1.1" id="Calque_1" xmlns="http://www.w3.org/2000/svg" xmlns:xlink="http://www.w3.org/1999/xlink" x="0px" y="0px"
	 viewBox="0 0 30 21.3" style="enable-background:new 0 0 30 21.3;" xml:space="preserve">
<style type="text/css">
	.st0{fill:#BE3929;}
</style>
<g>
	<path class="st0" d="M0,14.7c0-1.2,0.3-2.4,1-3.7L6.5,0h7.5L9.8,9.4c1.7,1.2,2.6,3,2.6,5.3c0,1.8-0.6,3.4-1.8,4.7
		c-1.2,1.3-2.6,1.9-4.3,1.9c-1.8,0-3.3-0.6-4.5-1.9C0.6,18.1,0,16.6,0,14.7z M15.9,14.7c0-1.3,0.3-2.5,0.9-3.7l5.5-11H30l-4.3,9.4
		c1.8,1.2,2.7,2.9,2.7,5.3c0,1.8-0.6,3.4-1.7,4.7c-1.2,1.3-2.6,1.9-4.3,1.9c-1.8,0-3.3-0.6-4.5-1.9C16.5,18.1,15.9,16.6,15.9,14.7z"
		/>
</g>
</svg>
