<?xml version="1.0" encoding="utf-8"?>
<!-- Generator: Adobe Illustrator 21.0.0, SVG Export Plug-In . SVG Version: 6.00 Build 0)  -->
<svg version="1.1" id="Layer_1" xmlns="http://www.w3.org/2000/svg" xmlns:xlink="http://www.w3.org/1999/xlink" x="0px" y="0px"
	 viewBox="0 0 30 30" style="enable-background:new 0 0 30 30;" xml:space="preserve">
<style type="text/css">
	.st0{fill:#FFFFFF;}
</style>
<g>
	<path class="st0" d="M23.3,8.8c-2.4,1.2-4.7,2.5-7.1,3.7c-3.5,1.9-6.9,3.6-10.5,5.4c-0.4,0.1-0.6,0.2-0.9,0
		c-1.1-0.7-2.2-1.5-3.5-2.4c-0.7-0.5-0.7-0.9,0.1-1.2c3.1-1.2,6.3-2.4,9.4-3.5c5.7-2.1,11.5-4.2,17.2-6.2c0.2-0.1,0.5-0.1,0.9-0.2
		c-0.2,0.5-0.4,0.7-0.5,1c-2.8,4.6-5.6,9.3-8.4,13.9c-1.1,1.9-2.2,3.7-3.3,5.6c-0.5,0.7-0.6,0.7-1.4,0.2c-0.9-0.6-1.7-1.1-2.6-1.7
		c-0.4-0.2-0.6-0.4-1,0c-0.9,0.6-1.9,1.2-2.7,1.9c-0.5,0.4-0.7,0.2-0.7-0.4c0-1.4,0-2.8,0-4.2c0-0.2,0.2-0.5,0.4-0.6
		c4.7-3.5,9.3-6.9,14-10.5C22.8,9.3,23.2,9.2,23.3,8.8C23.4,8.9,23.3,8.9,23.3,8.8z"/>
</g>
</svg>
