<?xml version="1.0" encoding="utf-8"?>
<!-- Generator: Adobe Illustrator 21.0.0, SVG Export Plug-In . SVG Version: 6.00 Build 0)  -->
<svg version="1.1" id="Layer_1" xmlns="http://www.w3.org/2000/svg" xmlns:xlink="http://www.w3.org/1999/xlink" x="0px" y="0px"
	 viewBox="0 0 30 30" style="enable-background:new 0 0 30 30;" xml:space="preserve">
<style type="text/css">
	.st0{fill:#FFFFFF;}
</style>
<path class="st0" d="M10,26c10.2,0,15.7-8.4,15.7-15.7c0-0.2,0-0.4,0-0.7c1.1-0.8,2-1.8,2.8-2.9c-1,0.4-2.1,0.8-3.2,0.9
	c1.1-0.7,2-1.8,2.4-3.1c-1.1,0.7-2.2,1.1-3.5,1.3c-1-1.1-2.4-1.8-4-1.8c-3.1,0-5.5,2.4-5.5,5.5c0,0.4,0,0.9,0.1,1.2
	C10.2,10.6,6.1,8.5,3.5,5C2.9,5.9,2.7,6.8,2.7,7.9c0,1.9,1,3.7,2.4,4.5c-0.9,0-1.8-0.2-2.5-0.7c0,0,0,0,0,0.1c0,2.7,1.9,4.9,4.4,5.4
	c-0.4,0.1-1,0.2-1.4,0.2c-0.3,0-0.7,0-1-0.1c0.7,2.2,2.8,3.8,5.2,3.9c-1.9,1.4-4.3,2.3-6.9,2.3c-0.4,0-0.9,0-1.3-0.1
	C4,25,6.9,26,10,26"/>
</svg>
