<?xml version="1.0" encoding="utf-8"?>
<!-- Generator: Adobe Illustrator 21.0.0, SVG Export Plug-In . SVG Version: 6.00 Build 0)  -->
<svg version="1.1" id="Layer_1" xmlns="http://www.w3.org/2000/svg" xmlns:xlink="http://www.w3.org/1999/xlink" x="0px" y="0px"
	 viewBox="0 0 30 30" style="enable-background:new 0 0 30 30;" xml:space="preserve">
<style type="text/css">
	.st0{fill:#FFFFFF;}
</style>
<path class="st0" d="M12,29.3c0-0.1,0-0.2,0-0.2c0-4.2,0-8.4,0-12.6c0-0.1,0-0.1,0-0.2c-0.1,0-0.1,0-0.2,0c-1.3,0-2.7,0-4,0
	c-0.2,0-0.2,0-0.2-0.3c0-1.5,0-3,0-4.7c0-0.2,0-0.2,0.2-0.2c1.3,0,2.7,0,3.9,0c0.1,0,0.1,0,0.2,0c0-0.1,0-0.1,0-0.2
	c0-1.3,0-2.6,0-3.9c0-1.1,0.3-2.2,0.8-3.1c0.9-1.6,2.2-2.6,3.9-2.9c1.1-0.2,2.3-0.2,3.3-0.2c0.7,0,1.3,0.1,2,0.1c0.1,0,0.2,0,0.3,0
	c0.3,0,0.3,0,0.3,0.3c0,1.3,0,2.8,0,4.1c0,0.2,0,0.2-0.2,0.2c-0.8,0-1.6,0-2.4,0c-0.4,0-0.7,0-1,0.1c-0.9,0.2-1.3,0.7-1.4,1.5
	c0,0.3-0.1,0.5-0.1,0.8c0,1,0,2.1,0,3.1c0,0,0,0.1,0,0.2c0.1,0,0.2,0,0.2,0c1.5,0,3,0,4.6,0c0.3,0,0.3,0,0.2,0.3
	c-0.2,1.5-0.4,3.1-0.6,4.7c0,0.2-0.1,0.2-0.2,0.2c-1.3,0-2.7,0-3.9,0c-0.1,0-0.1,0-0.2,0c0,0.1,0,0.2,0,0.2c0,4.2,0,8.4,0,12.5
	c0,0.1,0,0.2,0,0.3C15.5,29.3,13.7,29.3,12,29.3z"/>
</svg>
