<?xml version="1.0" encoding="utf-8"?>
<!-- Generator: Adobe Illustrator 21.0.0, SVG Export Plug-In . SVG Version: 6.00 Build 0)  -->
<svg version="1.1" id="Layer_1" xmlns="http://www.w3.org/2000/svg" xmlns:xlink="http://www.w3.org/1999/xlink" x="0px" y="0px"
	 viewBox="0 0 30 30" style="enable-background:new 0 0 30 30;" xml:space="preserve">
<style type="text/css">
	.st0{fill:#FFFFFF;}
</style>
<g>
	<path class="st0" d="M2.2,10.6h5.5v17.6H2.2V10.6z M5,1.8c1.7,0,3.1,1.4,3.1,3.1S6.7,8.1,5,8.1C3.3,8.2,1.8,6.8,1.8,5
		C1.8,3.3,3.3,1.8,5,1.8"/>
	<path class="st0" d="M11.1,10.6h5.2v2.3h0.1c0.8-1.4,2.5-2.9,5.2-2.9c5.6,0,6.5,3.7,6.5,8.3V28h-5.5v-8.6c0-2.1,0-4.7-2.9-4.7
		s-3.3,2.2-3.3,4.6V28h-5.5V10.6z"/>
</g>
</svg>
